<?xml version="1.0" standalone="no"?>
<!DOCTYPE svg PUBLIC "-//W3C//DTD SVG 1.1//EN" "http://www.w3.org/Graphics/SVG/1.1/DTD/svg11.dtd" >
<svg xmlns="http://www.w3.org/2000/svg">
<metadata></metadata>
<defs>
<font id="renogareregular" horiz-adv-x="1460" >
<font-face units-per-em="2048" ascent="1638" descent="-410" />
<missing-glyph horiz-adv-x="614" />
<glyph horiz-adv-x="0" />
<glyph unicode="&#xd;" horiz-adv-x="729" />
<glyph unicode=" "  horiz-adv-x="614" />
<glyph unicode="&#x09;" horiz-adv-x="614" />
<glyph unicode="&#xa0;" horiz-adv-x="614" />
<glyph unicode="!" horiz-adv-x="624" d="M135 1495h346l-53 -1069h-240zM137 147q0 66 49.5 115t118.5 49q70 0 121 -49t51 -115q0 -67 -51 -115t-121 -48t-119 48t-49 115z" />
<glyph unicode="&#x22;" horiz-adv-x="946" d="M84 1499h313l-32 -469h-246zM524 1499h316l-37 -469h-242z" />
<glyph unicode="#" horiz-adv-x="1822" d="M25 367l116 290h277l80 197h-275l117 291h276l144 354h319l-141 -354h231l148 354h319l-145 -354h283l-117 -291h-283l-80 -197h281l-119 -290h-280l-150 -367h-321l151 367h-235l-148 -367h-321l149 367h-276zM741 657h230l82 197h-234z" />
<glyph unicode="$" horiz-adv-x="1447" d="M82 213l176 254q135 -90 256 -142.5t240 -52.5q84 0 146.5 26t95 67t32.5 84q0 70 -83 104.5t-249 64.5q-147 25 -270 64t-223.5 135t-100.5 260q0 197 120 302.5t308 136.5v165h324v-161q117 -16 213 -59.5t221 -129.5l-182 -248q-115 78 -217.5 116t-202.5 38 q-90 0 -175 -38t-85 -109q0 -72 132 -118t278 -67q143 -27 248.5 -65.5t186.5 -133t81 -260.5q0 -207 -133.5 -324.5t-364.5 -135.5v-164h-324v180q-125 20 -214 66.5t-234 144.5z" />
<glyph unicode="%" horiz-adv-x="2043" d="M63 1081q0 123 52.5 220.5t144.5 151.5t209 54t209 -54t144 -151.5t52 -220.5q0 -119 -53 -216t-145 -152.5t-207 -55.5q-117 0 -209 54.5t-144.5 152t-52.5 217.5zM356 1081q0 -53 22.5 -116.5t90.5 -63.5q55 0 85 57.5t30 122.5q0 66 -29 123.5t-86 57.5 q-68 0 -90.5 -61.5t-22.5 -119.5zM408 0l907 1468h278l-905 -1468h-280zM1135 397q0 121 52 218.5t145 151.5t210 54q115 0 208 -54t145.5 -151.5t52.5 -218.5t-53.5 -219t-146.5 -153.5t-206 -55.5q-117 0 -210 55.5t-145 152.5t-52 220zM1427 397q0 -55 23 -118.5 t92 -63.5q53 0 84 57.5t31 124.5q0 63 -29 122t-86 59q-69 0 -92 -61.5t-23 -119.5z" />
<glyph unicode="&#x26;" horiz-adv-x="1458" d="M53 395q0 102 47 185.5t138 156.5q-2 -2 59 43q12 8 24.5 16.5t22.5 16.5q-117 145 -117 313q0 33 2 50q14 84 61.5 157.5t119.5 120.5q51 33 114.5 50.5t126.5 17.5q57 0 107 -13q88 -23 158.5 -81t109.5 -138q39 -76 39 -157q0 -94 -45 -179q-31 -59 -86 -106t-137 -94 l166 -164q57 80 95 150.5t38 78.5l280 -135q-49 -88 -93 -154.5t-109 -150.5l45 -45q145 -145 182 -187l-244 -182l-196 191q-92 -76 -157 -113t-123 -50t-144 -18q-131 -4 -242 49.5t-176.5 151.5t-65.5 219zM367 408q0 -18 2 -27q4 -53 52 -90t114 -37q74 0 126 27.5 t103 72.5l-250 248q-41 -22 -84 -55q-20 -18 -41.5 -53t-21.5 -86zM528 1145q-6 -47 15.5 -97.5t58.5 -93.5q162 92 162 209q0 43 -35 70t-80 27q-43 0 -77.5 -29t-43.5 -86z" />
<glyph unicode="'" horiz-adv-x="489" d="M78 1499h317l-35 -469h-243z" />
<glyph unicode="(" horiz-adv-x="841" d="M82 608q0 512 336 852v-2q76 78 174 146l188 -236q-98 -72 -129 -102v-2q-121 -123 -182 -290t-61 -366t61 -364.5t182 -288.5q59 -55 129 -102l-188 -240q-109 78 -174 147v-2q-336 336 -336 850z" />
<glyph unicode=")" horiz-adv-x="763" d="M0 -147q74 49 127 102q121 123 183.5 289t62.5 364q0 199 -62.5 366t-183.5 290v2q-29 30 -127 102l188 236q98 -68 174 -146v2q334 -338 334 -852q0 -516 -334 -850v2q-66 -70 -174 -147z" />
<glyph unicode="*" horiz-adv-x="925" d="M49 1137l70 202l223 -75v229h227v-229l222 75l69 -202l-225 -76l139 -182l-186 -123l-131 180l-133 -180l-197 123l149 182z" />
<glyph unicode="+" horiz-adv-x="1208" d="M63 467v278h381v375h304v-375h382v-278h-382v-375h-304v375h-381z" />
<glyph unicode="," horiz-adv-x="446" d="M41 145q0 68 48 117t118 49q61 0 108 -36.5t62 -98.5q10 -41 10 -76q0 -115 -78 -213t-211 -127l-47 103q57 18 94 50t50 71q-68 2 -111 49t-43 112z" />
<glyph unicode="-" horiz-adv-x="870" d="M98 451v278h652v-278h-652z" />
<glyph unicode="." horiz-adv-x="438" d="M49 147q0 66 49 115t119 49t120 -49t50 -115q0 -67 -50 -115t-120 -48t-119 48t-49 115z" />
<glyph unicode="/" horiz-adv-x="1155" d="M-70 -276l940 1978h306l-943 -1978h-303z" />
<glyph unicode="0" horiz-adv-x="1591" d="M86 748q0 225 88 401t247 274.5t363 98.5q199 0 357.5 -99.5t249 -276.5t90.5 -398q0 -152 -48.5 -292.5t-138.5 -246.5q-94 -113 -229 -176.5t-281 -63.5q-155 0 -288.5 62.5t-229.5 177.5q-86 104 -133 243.5t-47 295.5zM416 748q0 -121 41 -231.5t124 -181.5t203 -71 q92 0 176 57.5t137.5 167t53.5 259.5q0 102 -27.5 200.5t-76.5 157.5q-102 121 -263 121q-90 0 -174 -52.5t-139 -161t-55 -265.5z" />
<glyph unicode="1" horiz-adv-x="946" d="M29 1004l542 495h211v-1499h-325v961l-205 -189z" />
<glyph unicode="2" horiz-adv-x="1368" d="M109 1081q27 92 94 193.5t185 174.5t276 73q176 0 299.5 -69t185 -177.5t61.5 -226.5q0 -150 -88 -278t-241 -257l-84 -68q-37 -29 -90.5 -70.5t-122.5 -94.5h643v-281h-1086v301l234 191l313 251q123 96 160 162t37 144q0 100 -65.5 145t-155.5 45q-111 0 -164.5 -81 t-75.5 -154z" />
<glyph unicode="3" horiz-adv-x="1277" d="M72 403l290 89q23 -74 81.5 -158t179.5 -84q106 0 163.5 46t57.5 116q0 92 -42 139t-122 63.5t-219 14.5v258q141 6 219 20.5t121 56.5t43 126q0 70 -57.5 114.5t-163.5 44.5q-131 0 -187.5 -81t-73.5 -158l-290 90q47 160 177 295t374 135q188 0 311 -64.5t179 -165 t56 -210.5q0 -140 -60 -214.5t-161 -119.5q221 -94 221 -344q0 -57 -20.5 -128t-73.5 -137q-82 -98 -203.5 -137t-248.5 -39q-244 0 -374 135.5t-177 296.5z" />
<glyph unicode="4" horiz-adv-x="1431" d="M102 324v262l811 913h244v-895h186v-280h-186v-324h-323v324h-732zM524 604h310v363z" />
<glyph unicode="5" horiz-adv-x="1312" d="M63 229l201 240q0 -8 50.5 -63.5t133 -102.5t189.5 -47q96 0 165.5 59.5t74.5 167.5q6 127 -58.5 201t-185.5 74q-104 0 -170 -36t-121 -93l-242 127l146 743h860v-282h-596l-47 -261q96 55 194 56q256 0 400.5 -140.5t144.5 -388.5q0 -150 -73.5 -266.5t-203.5 -181 t-292 -64.5q-203 0 -337 71t-233 187z" />
<glyph unicode="6" horiz-adv-x="1382" d="M92 541q0 150 62 278q59 127 477 680h401q-131 -170 -358 -477q37 6 47 6q162 6 284.5 -56.5t190.5 -183t68 -286.5q0 -129 -42 -221.5t-102 -149.5q-94 -92 -215 -126t-233 -34q-180 0 -311.5 78t-200 208t-68.5 284zM416 500q0 -107 76.5 -180.5t187.5 -73.5 q113 0 189.5 73.5t76.5 180.5q0 109 -76.5 182.5t-189.5 73.5q-111 0 -187.5 -75t-76.5 -181z" />
<glyph unicode="7" horiz-adv-x="1261" d="M59 1217v282h1125v-295l-705 -1204h-373l730 1217h-777z" />
<glyph unicode="8" horiz-adv-x="1323" d="M72 453q0 113 69.5 210t165.5 132q-72 43 -125 126t-53 171q0 121 69.5 219t189.5 153.5t261 55.5t261 -55.5t189.5 -154t69.5 -218.5q0 -97 -47 -179t-123 -120q94 -39 161 -135.5t67 -204.5q0 -158 -77 -266.5t-207 -162t-294 -53.5t-294 53.5t-206.5 162t-76.5 266.5z M397 453q0 -100 71 -149.5t181 -49.5q113 0 182.5 48t69.5 151q0 92 -72.5 147t-179.5 55q-106 0 -179 -54t-73 -148zM457 1061q0 -76 54 -117t138 -41q82 0 137.5 41t55.5 117q0 92 -53.5 134t-139.5 42t-139 -43t-53 -133z" />
<glyph unicode="9" horiz-adv-x="1398" d="M113 997q0 229 143 373q94 90 214 124t232 34q195 0 345.5 -97.5t201.5 -256.5v2q39 -104 39 -218q0 -131 -65 -278q-35 -72 -178.5 -273.5t-299.5 -406.5h-401l356 477q-20 -6 -45 -6q-157 -6 -281 65.5t-192.5 195.5t-68.5 265zM432 1001q0 -106 77 -179.5t187 -73.5 q113 0 189 72.5t76 180.5q0 106 -76 180t-189 74q-111 0 -187.5 -73.5t-76.5 -180.5z" />
<glyph unicode=":" horiz-adv-x="438" d="M47 147q0 68 49 116t119 48t120 -49t50 -115q0 -67 -50 -115t-120 -48t-119 48t-49 115zM47 713q0 68 49 116t119 48t120 -48.5t50 -115.5q0 -66 -50 -114t-120 -48t-119 48t-49 114z" />
<glyph unicode=";" horiz-adv-x="454" d="M41 145q0 68 48 117t118 49q61 0 108 -36.5t62 -98.5q10 -41 10 -76q0 -115 -78 -213t-211 -127l-47 103q57 18 94 50t50 71q-68 2 -111 49t-43 112zM49 713q0 68 49 116t119 48t120 -48.5t50 -115.5q0 -66 -50 -114t-120 -48t-119 48t-49 114z" />
<glyph unicode="&#x3c;" horiz-adv-x="1177" d="M100 465v276l961 433v-320l-604 -252l604 -250v-319z" />
<glyph unicode="=" horiz-adv-x="1196" d="M96 203v278h981v-278h-981zM96 686v279h981v-279h-981z" />
<glyph unicode="&#x3e;" horiz-adv-x="1177" d="M100 33v319l605 250l-605 252v320l961 -433v-276z" />
<glyph unicode="?" horiz-adv-x="1230" d="M-14 1104q47 145 184 288.5t405 143.5q154 0 260.5 -45t165.5 -109q56 -59 87.5 -131.5t31.5 -150.5q0 -119 -46 -199t-107.5 -125t-151.5 -90q-88 -47 -122 -102.5t-34 -159.5h-317q0 162 83 299t232 215q82 41 110 70.5t28 87.5q0 45 -43 89t-177 44 q-117 0 -190.5 -65.5t-101.5 -153.5zM336 147q0 -68 49 -115.5t119 -47.5t121 48t51 115q0 66 -51.5 115t-120.5 49q-70 0 -119 -49t-49 -115z" />
<glyph unicode="@" horiz-adv-x="1804" d="M84 571q0 152 53 289t152 244q111 115 263.5 175t332.5 60q381 0 594 -172q227 -186 227 -524q0 -348 -172 -471q-76 -55 -174 -55q-53 0 -86 10q-39 8 -77 33.5t-67 56.5q-104 -94 -272 -94q-195 0 -306.5 115.5t-111.5 316.5q0 127 52.5 224.5t147.5 150.5t220 53 q102 0 180 -41v33h242v-514q0 -41 13.5 -78t41.5 -47q61 -10 93 69.5t32 237.5q0 246 -139 354q-150 121 -438 121q-184 0 -310 -77.5t-187.5 -203.5t-61.5 -266q0 -238 120.5 -407.5t423.5 -169.5q113 0 192 18.5t120 40t47 29.5l153 -133q-158 -162 -508 -162 q-250 0 -428 93t-270 269.5t-92 421.5zM694 555q0 -117 49.5 -167t114.5 -50q78 0 129 42t53 134v94q-4 72 -39.5 119t-140.5 47q-90 0 -128 -67.5t-38 -151.5z" />
<glyph unicode="A" horiz-adv-x="1648" d="M-6 0l821 1544l821 -1544h-354l-119 229h-698l-115 -229h-356zM625 506h383l-193 391z" />
<glyph unicode="B" horiz-adv-x="1439" d="M158 0v1497h622q487 0 488 -416q0 -100 -52.5 -182t-136.5 -117q102 -35 176 -133t74 -215q0 -231 -147.5 -332.5t-376.5 -101.5h-647zM483 281h322q94 0 147.5 49t53.5 121t-53.5 121t-153.5 49h-316v-340zM483 903h303q80 0 118 49t38 117q0 59 -45 103.5t-109 44.5 h-305v-314z" />
<glyph unicode="C" horiz-adv-x="1656" d="M76 748q0 209 108.5 387t294 282.5t404.5 104.5q221 0 411.5 -112t298.5 -298l-301 -117q-72 102 -181.5 168t-227.5 66q-131 0 -242 -66.5t-175.5 -177.5t-64.5 -237q0 -127 64.5 -239t175.5 -178.5t242 -66.5q119 0 228.5 66.5t180.5 171.5l301 -117 q-108 -188 -297.5 -301t-412.5 -113q-219 0 -404.5 104.5t-294 283t-108.5 389.5z" />
<glyph unicode="D" horiz-adv-x="1673" d="M160 0v1497h618q334 0 547 -188q115 -100 174.5 -242.5t59.5 -316.5q0 -170 -61.5 -316.5t-172.5 -247.5q-102 -90 -242.5 -138t-304.5 -48h-618zM483 281h295q193 0 323 100t130 367q0 266 -131 366t-322 100h-295v-933z" />
<glyph unicode="E" horiz-adv-x="1433" d="M158 0v1497h1134v-280h-811v-334h717v-283h-717v-319h811v-281h-1134z" />
<glyph unicode="F" horiz-adv-x="1368" d="M158 0v1497h1134v-280h-809v-330h715v-281h-715v-606h-325z" />
<glyph unicode="G" horiz-adv-x="1763" d="M76 748q0 209 108.5 388t294 283.5t404.5 104.5q207 0 386 -97.5t292 -263.5l-279 -162q-74 100 -178.5 164t-220.5 64q-131 0 -243 -66.5t-177.5 -177.5t-65.5 -237q0 -127 65.5 -239t177.5 -178.5t243 -66.5q94 0 186 38t159.5 103.5t90.5 143.5h-559v285h905 q4 -82 4 -121q0 -25 -4 -86q-16 -188 -125.5 -338t-283 -234t-373.5 -84q-219 0 -404.5 104.5t-294 283t-108.5 389.5z" />
<glyph unicode="H" horiz-adv-x="1683" d="M160 0v1497h321v-635h703v635h321v-1497h-321v582h-703v-582h-321z" />
<glyph unicode="I" horiz-adv-x="724" d="M197 0v1497h323v-1497h-323z" />
<glyph unicode="J" horiz-adv-x="1296" d="M23 299l294 125q33 -70 89.5 -118t142.5 -48q150 0 203 84t53 195v958h325v-958q0 -174 -72.5 -301t-203.5 -196t-305 -69q-180 0 -317.5 86t-208.5 242z" />
<glyph unicode="K" horiz-adv-x="1538" d="M160 0v1497h323v-625l584 625h401l-616 -635l643 -862h-397l-469 637l-146 -152v-485h-323z" />
<glyph unicode="L" horiz-adv-x="1306" d="M158 0v1497h325v-1216h785v-281h-1110z" />
<glyph unicode="M" horiz-adv-x="1912" d="M160 0v1544l784 -885l785 885v-1544h-326v715l-459 -533l-459 533v-715h-325z" />
<glyph unicode="N" horiz-adv-x="1695" d="M160 0v1544l1032 -913v864h324v-1542l-1035 899v-852h-321z" />
<glyph unicode="O" horiz-adv-x="1802" d="M84 750q0 209 108.5 388t293 283.5t403.5 104.5t405.5 -104.5t295 -284t108.5 -387.5q0 -211 -108.5 -390.5t-295 -284t-405.5 -104.5t-403.5 104.5t-293 284t-108.5 390.5zM406 750q0 -127 65.5 -239t176 -179.5t241.5 -67.5t242.5 67.5t176 179.5t64.5 239t-64.5 237.5 t-176 177t-242.5 66.5t-241.5 -66.5t-176 -177t-65.5 -237.5z" />
<glyph unicode="P" horiz-adv-x="1404" d="M160 0v1497h608q184 0 320.5 -71.5t210 -193.5t73.5 -271q0 -150 -68.5 -269t-205.5 -187.5t-332 -68.5h-283v-436h-323zM483 717h330q115 0 174.5 71.5t59.5 172.5q0 66 -31 124t-91.5 95t-144.5 37h-297v-500z" />
<glyph unicode="Q" horiz-adv-x="1802" d="M84 750q0 209 108.5 388t293 283.5t403.5 104.5t405.5 -104.5t295 -284t108.5 -387.5q0 -139 -48 -265.5t-137 -230.5l134 -137l-230 -221l-157 161q-176 -86 -371 -86q-219 0 -403.5 104.5t-293 284t-108.5 390.5zM406 750q0 -127 65.5 -239t176 -179.5t241.5 -67.5 q74 0 147 23l-102 108l229 221l127 -133q82 125 82 267q0 127 -64.5 237.5t-176 177t-242.5 66.5t-241.5 -66.5t-176 -177t-65.5 -237.5z" />
<glyph unicode="R" horiz-adv-x="1492" d="M160 0v1497h665q160 0 283 -65.5t190.5 -184.5t67.5 -270q0 -162 -82 -289t-223 -186q145 -184 387 -502h-387q-131 164 -359 467h-221v-467h-321zM481 748h344q84 0 151.5 60t67.5 169q0 88 -47 164t-172 76h-344v-469z" />
<glyph unicode="S" horiz-adv-x="1447" d="M92 205l172 248q88 -74 233.5 -132.5t266.5 -58.5q127 0 201.5 49t74.5 117q0 55 -44 90t-111.5 52.5t-177.5 37.5q-147 25 -270.5 64t-223.5 135t-100 260q0 242 177 347.5t417 105.5q184 0 320 -50.5t271 -150.5l-180 -246q-100 72 -208.5 113t-215.5 41 q-94 0 -176 -34t-82 -114q0 -49 42 -78.5t92.5 -43t162.5 -37.5l74 -15q170 -33 281.5 -72.5t193.5 -134t82 -262.5q0 -227 -161 -346t-435 -119q-401 0 -676 234z" />
<glyph unicode="T" horiz-adv-x="1325" d="M90 1217v280h1196v-280h-434v-1217h-326v1217h-436z" />
<glyph unicode="U" horiz-adv-x="1679" d="M160 606v889h323v-889q0 -131 56.5 -210t135.5 -111.5t156 -32.5q76 0 155 32.5t134.5 111.5t55.5 210v889h323v-889q0 -190 -82 -333.5t-233.5 -221.5t-352.5 -78q-202 0 -353.5 78t-234.5 221.5t-83 333.5z" />
<glyph unicode="V" horiz-adv-x="1536" d="M10 1495h357l399 -827l401 827h359l-760 -1532z" />
<glyph unicode="W" horiz-adv-x="2111" d="M14 1495h348l289 -776l393 815l394 -815l295 776h344l-604 -1550l-429 889l-432 -889z" />
<glyph unicode="X" horiz-adv-x="1605" d="M12 1495h408l387 -516l387 516h403l-587 -754l577 -741h-405l-375 498l-375 -498h-407l579 741z" />
<glyph unicode="Y" horiz-adv-x="1503" d="M-4 1495h379l373 -604l376 604h379l-594 -928v-567h-323v567z" />
<glyph unicode="Z" horiz-adv-x="1495" d="M-2 0l881 1214h-779v281h1373l-883 -1214h811v-281h-1403z" />
<glyph unicode="[" horiz-adv-x="802" d="M160 -457v2149h596v-283h-273v-1583h273v-283h-596z" />
<glyph unicode="\" horiz-adv-x="1050" d="M-100 1702h315l762 -1978h-315z" />
<glyph unicode="]" horiz-adv-x="714" d="M10 -195h273v1584h-273v282h596v-2148h-596v282z" />
<glyph unicode="^" horiz-adv-x="1288" d="M74 748l391 761h326l391 -761h-334l-219 456l-223 -456h-332z" />
<glyph unicode="_" horiz-adv-x="1423" d="M102 33h1186v-279h-1186v279z" />
<glyph unicode="`" horiz-adv-x="604" d="M18 1425l279 115l270 -336h-241z" />
<glyph unicode="a" d="M88 563q0 164 67.5 298t195.5 212t302 78q117 0 206 -40t136 -101v116h303v-1126h-303v113q-39 -53 -134 -95.5t-208 -42.5q-174 0 -302 78t-195.5 212t-67.5 298zM389 563q0 -137 85 -227t224 -90q143 0 226.5 85t83.5 232q0 142 -84 231t-226 89q-143 0 -226 -89 t-83 -231z" />
<glyph unicode="b" d="M141 0v1548h303v-538q47 61 136.5 101t205.5 40q174 0 302.5 -78t196 -212t67.5 -298t-67.5 -298t-195.5 -212t-303 -78q-113 0 -208 42t-134 96v-113h-303zM432 563q0 -147 83 -232t226 -85q139 0 224.5 90t85.5 227q0 141 -83 230.5t-227 89.5q-141 0 -225 -89 t-84 -231z" />
<glyph unicode="c" horiz-adv-x="1331" d="M88 559q0 160 83 294t223.5 213t305.5 79q178 0 322.5 -85t230.5 -243l-276 -108q-49 84 -121 126t-156 42q-133 0 -220 -90.5t-87 -227.5t88 -227t221 -90q184 0 285 164l260 -103q-162 -332 -545 -332q-165 0 -306.5 79t-224.5 214t-83 295z" />
<glyph unicode="d" d="M88 563q0 164 67.5 298t195.5 212t302 78q117 0 206 -40t136 -101v538h303v-1548h-303v113q-39 -53 -134 -95.5t-208 -42.5q-174 0 -302 78t-195.5 212t-67.5 298zM389 563q0 -137 85 -227t224 -90q143 0 226.5 85t83.5 232q0 142 -84 231t-226 89q-143 0 -226 -89 t-83 -231z" />
<glyph unicode="e" horiz-adv-x="1394" d="M88 559q0 213 101.5 344t242.5 186.5t268 55.5q147 0 280.5 -65.5t218.5 -192.5t89 -301q0 -53 -2 -92t-4 -50h-889q25 -119 123 -161.5t184 -42.5q111 0 176.5 39.5t112.5 91.5l238 -138q-193 -262 -527 -262q-131 0 -271 55.5t-240.5 187.5t-100.5 345zM401 662h564 q-6 53 -41 102t-93.5 81t-132.5 32q-127 0 -206.5 -62.5t-90.5 -152.5z" />
<glyph unicode="f" horiz-adv-x="798" d="M66 846v262h127q8 219 124.5 333.5t323.5 114.5q61 0 135 -18l-16 -248q-39 12 -84 13q-111 0 -143.5 -55.5t-32.5 -139.5h202v-262h-202v-846h-307v846h-127z" />
<glyph unicode="g" d="M88 582q0 158 71.5 285.5t206 203.5t314.5 76q193 0 315 -100v79h303v-1026q0 -243 -150.5 -383.5t-418.5 -140.5q-322 0 -539 170l150 217q70 -55 165 -90t202 -35q289 0 288 262v19q-123 -100 -315 -101q-178 0 -313.5 75t-207 204t-71.5 285zM389 582 q0 -135 83 -220.5t226 -85.5q86 0 157 40t112 111t41 155q0 86 -41 155.5t-112 109.5t-157 40q-139 0 -224 -87t-85 -218z" />
<glyph unicode="h" horiz-adv-x="1351" d="M143 0v1550h306v-524q55 55 139 88t162 33q233 0 338.5 -125t105.5 -356v-666h-311v666q0 121 -60.5 174t-158.5 53q-84 -1 -152 -67q-63 -62 -63 -208v-22v-596h-306z" />
<glyph unicode="i" horiz-adv-x="624" d="M137 1411q0 68 50.5 116t121.5 48q70 0 119 -48t49 -116q0 -70 -49 -118t-119 -48q-72 0 -122 48t-50 118zM156 0v1124h307v-1124h-307z" />
<glyph unicode="j" horiz-adv-x="653" d="M-92 -397l16 260q57 -20 115 -21q66 0 97.5 24.5t38.5 58.5t7 85v1114h307v-1114q0 -233 -112.5 -330.5t-333.5 -97.5q-53 0 -135 21zM162 1411q0 68 51 116t121 48t120 -48t50 -116q0 -70 -50.5 -118t-119.5 -48q-70 0 -121 49t-51 117z" />
<glyph unicode="k" horiz-adv-x="1267" d="M143 0v1548h308v-901l383 473h374l-452 -524l471 -596h-371l-295 369l-110 -127v-242h-308z" />
<glyph unicode="l" horiz-adv-x="602" d="M143 0v1548h308v-1548h-308z" />
<glyph unicode="m" horiz-adv-x="2113" d="M143 0v1126h306v-102q59 53 143 88t153 35q238 0 363 -154q63 72 157.5 113t204.5 41q236 0 351.5 -127t115.5 -354v-666h-309v666q0 121 -60.5 174t-158.5 53q-82 0 -147.5 -61.5t-67.5 -204.5v-627h-309v666q0 121 -60.5 174t-156.5 53q-88 0 -152.5 -65.5 t-64.5 -231.5l-2 -596h-306z" />
<glyph unicode="n" horiz-adv-x="1347" d="M139 0v1126h305v-100q55 55 139.5 88t161.5 33q234 0 339.5 -125t105.5 -356v-666h-313v666q0 227 -218 227q-83 -1 -151 -67q-64 -63 -64 -212v-18v-596h-305z" />
<glyph unicode="o" horiz-adv-x="1421" d="M88 561q0 158 82 293t222 214t306 79t307.5 -79t224.5 -214t83 -293q0 -160 -83 -295t-224.5 -214t-307.5 -79t-306 79t-222 214t-82 295zM389 561q0 -92 40 -164.5t110.5 -114.5t158.5 -42q86 0 157 42t112 115.5t41 163.5q0 88 -41 161t-112 115t-157 42 q-84 0 -155.5 -42t-112.5 -115t-41 -161z" />
<glyph unicode="p" d="M141 -362v1488h303v-112q39 53 134.5 95t207.5 42q174 0 302.5 -78t196 -212t67.5 -298t-67.5 -298t-195.5 -212t-303 -78q-117 0 -205.5 40t-136.5 102v-479h-303zM432 563q0 -141 84 -230t225 -89q143 0 226.5 89t83.5 230q0 137 -85 227.5t-225 90.5q-143 0 -226 -85 t-83 -233z" />
<glyph unicode="q" d="M88 563q0 164 67.5 298t195.5 212t302 78q113 0 208 -42t134 -95v112h303v-1488h-303v479q-47 -61 -136 -101.5t-206 -40.5q-174 0 -302 78t-195.5 212t-67.5 298zM389 563q0 -141 83 -230t226 -89q141 0 225.5 89t84.5 230q0 148 -83 233t-227 85q-139 0 -224 -90.5 t-85 -227.5z" />
<glyph unicode="r" horiz-adv-x="868" d="M137 0v1126h305v-149q76 100 186 136q104 34 189 34h10v-299q-13 1 -28 1q-52 -1 -121 -17q-88 -22 -162 -101.5t-74 -232.5v-498h-305z" />
<glyph unicode="s" horiz-adv-x="1171" d="M78 150l160 212q74 -51 172 -85.5t192 -34.5q70 0 116 28.5t46 71.5t-52.5 60.5t-101.5 24.5l-63 9q-123 20 -212 49t-162 103t-73 203q0 213 155 284.5t310 71.5q133 0 246 -39t223 -123l-160 -209q-80 47 -157.5 76t-161.5 29q-51 0 -99 -22.5t-48 -61.5 q0 -49 66.5 -69.5t146.5 -31.5q143 -25 229 -51.5t152.5 -99t66.5 -205.5q0 -176 -121 -271.5t-342 -95.5q-307 1 -528 177z" />
<glyph unicode="t" horiz-adv-x="839" d="M80 877v268h137v301h303v-301h225v-268h-225v-476q0 -72 24.5 -120t114.5 -48q41 0 78 5v-258q-74 -8 -137 -9q-131 0 -212 21.5t-126 83t-45 176.5v625h-137z" />
<glyph unicode="u" horiz-adv-x="1347" d="M139 457v665h310v-665q0 -121 60 -173.5t159 -52.5q86 0 154 67q62 62 61 202v26v596h307v-1122h-307v96q-55 -57 -134 -89t-167 -32q-443 1 -443 482z" />
<glyph unicode="v" horiz-adv-x="1222" d="M-2 1122h340l262 -551l262 551h342l-604 -1171z" />
<glyph unicode="w" horiz-adv-x="1622" d="M10 1122h326l188 -499l273 561l276 -563l195 501h323l-483 -1169l-311 598l-308 -598z" />
<glyph unicode="x" horiz-adv-x="1282" d="M6 1122h381l244 -346l239 346h385l-436 -565l426 -557h-385l-229 334l-236 -334h-383l424 557z" />
<glyph unicode="y" horiz-adv-x="1316" d="M18 1122h355l284 -716l263 716h354l-629 -1544h-338l195 463z" />
<glyph unicode="z" horiz-adv-x="1159" d="M-10 0l612 858h-528v264h1071l-615 -856h551v-266h-1091z" />
<glyph unicode="{" horiz-adv-x="876" d="M78 469v299q61 6 88 39t32 83t5 159q0 137 21.5 254.5t101.5 212.5q78 86 184 131t190 58t127 13v-288q0 2 -57 -4.5t-116.5 -31t-92.5 -73.5q-27 -41 -36 -86t-9 -111q0 -35 4 -170q0 -127 -58.5 -213t-142.5 -123q84 -37 142.5 -121.5t58.5 -213.5q-4 -135 -4 -170 q0 -66 9.5 -111t35.5 -86q33 -49 92.5 -73.5t116.5 -31t57 -4.5v-288q-43 0 -127 13t-190.5 58t-183.5 131q-59 72 -86 163t-32 163t-5 170q0 90 -7.5 138t-34 78t-83.5 36z" />
<glyph unicode="|" horiz-adv-x="608" d="M178 -213v1919h244v-1919h-244z" />
<glyph unicode="}" horiz-adv-x="876" d="M43 -193q0 -2 57.5 4.5t116.5 31t92 73.5q27 41 36 86t9 111q0 35 -4 170q0 129 58.5 214t142.5 121q-84 37 -142.5 123t-58.5 213q4 135 4 170q0 66 -9 111t-36 86q-33 49 -92 73.5t-116.5 31t-57.5 4.5v288q43 0 127 -13t190.5 -58t184.5 -131q59 -72 85.5 -163 t32 -163t5.5 -170q0 -90 7 -138t33.5 -78t84.5 -36v-299q-61 -6 -88 -38t-33 -82t-4 -150q0 -141 -20.5 -261t-102.5 -217q-78 -86 -184.5 -131t-190.5 -58t-127 -13v288z" />
<glyph unicode="~" horiz-adv-x="1222" d="M76 745q31 92 110.5 171t204.5 79q57 0 100.5 -18.5t94.5 -50.5q49 -33 86 -48.5t82 -15.5q53 0 93 38t56 87l211 -65q-35 -98 -121 -183.5t-217 -85.5q-63 0 -109 18.5t-110 53.5q-51 31 -88 45t-80 14t-69.5 -35.5t-38.5 -66.5z" />
<glyph unicode="&#xa1;" horiz-adv-x="624" d="M135 0l53 1069h240l53 -1069h-346zM139 1348q0 67 50.5 115t119.5 48q70 0 120 -48t50 -115q0 -66 -50 -114t-120 -48t-120 48t-50 114z" />
<glyph unicode="&#xa2;" horiz-adv-x="1318" d="M70 745q0 137 61.5 259t168 209t239.5 124v187h323v-181q131 -31 238.5 -113.5t177.5 -203.5l-295 -115q-57 78 -120.5 123t-153.5 45t-165 -42t-118 -117.5t-43 -174.5q0 -96 43 -172.5t117.5 -119.5t165.5 -43q67 0 115 21.5t80 52t75 83.5l293 -112 q-70 -117 -175.5 -197t-234.5 -113v-170h-323v177q-133 37 -239.5 123.5t-168 209.5t-61.5 260z" />
<glyph unicode="&#xa3;" horiz-adv-x="1310" d="M100 0v266q35 4 75 37t68.5 85t28.5 110q0 88 -8 123h-160v251h121l-16 129q-2 16 -2 48q0 139 69.5 246.5t190.5 167t272 59.5q223 0 354.5 -128t180.5 -284l-293 -92q-18 88 -92 157.5t-150 69.5q-100 0 -156.5 -59.5t-56.5 -147.5q0 -68 17 -166h444v-251h-407 q2 -25 2 -66q0 -201 -82 -279h712v-276h-1112z" />
<glyph unicode="&#xa5;" horiz-adv-x="1302" d="M-2 1499h375l270 -446l268 446h377l-414 -684h277v-213h-346v-139h346v-211h-346v-252h-326v252h-325v211h325v139h-325v213h258z" />
<glyph unicode="&#xa6;" horiz-adv-x="608" d="M178 -213v807h244v-807h-244zM178 897v809h244v-809h-244z" />
<glyph unicode="&#xa7;" horiz-adv-x="1128" d="M82 147l133 191q100 -63 200.5 -101t182.5 -38q76 0 115 27.5t39 68.5q0 55 -50.5 77.5t-179.5 41.5q-164 25 -300 99.5t-136 236.5q0 82 48 141t110 92q-74 31 -116 93.5t-42 133.5q0 125 80 194t177 93.5t169 24.5q123 0 233.5 -37t229.5 -115l-154 -190 q-82 61 -156.5 87.5t-154.5 26.5q-78 0 -117 -22.5t-39 -61.5q0 -45 62.5 -68.5t179.5 -47.5q109 -25 195 -56.5t156.5 -101.5t70.5 -180q0 -72 -33 -129.5t-86 -85.5q53 -33 87 -102.5t34 -131.5q0 -113 -64.5 -188.5t-167 -111.5t-217.5 -36q-139 0 -251.5 48.5t-170 85 t-67.5 42.5zM297 805q0 -72 63.5 -115t144.5 -61.5t136 -18.5t100 33t45 86q0 51 -54 91t-137 61.5t-163 21.5q-53 0 -94 -24.5t-41 -73.5z" />
<glyph unicode="&#xa8;" horiz-adv-x="882" d="M66 1352q0 63 46 107t113 44q68 0 112 -44t44 -107q0 -66 -44 -108t-112 -42t-113.5 43t-45.5 107zM489 1352q0 63 45.5 107t112.5 44q66 0 113 -44t47 -107t-46 -106.5t-114 -43.5q-70 0 -114 42t-44 108z" />
<glyph unicode="&#xa9;" horiz-adv-x="1759" d="M70 745q0 207 107.5 384.5t290.5 280.5t400 103t401.5 -103t292 -280.5t107.5 -384.5q0 -209 -107.5 -386t-292 -280.5t-401.5 -103.5t-400 103.5t-290.5 281t-107.5 385.5zM250 745q0 -164 83 -302t224 -218t311 -80t312.5 80t225.5 218.5t83 301.5q0 164 -83 301.5 t-225.5 217t-312.5 79.5t-311 -79.5t-224 -217t-83 -301.5zM461 743q0 109 55 199t148.5 142.5t205.5 52.5q119 0 214.5 -56.5t156.5 -158.5l-151 -64q-39 53 -97.5 86t-122.5 33q-100 0 -173.5 -68.5t-73.5 -165.5q0 -98 73.5 -166.5t173.5 -68.5q61 0 119 28.5t94 77.5 l150 -59q-62 -96 -157 -153.5t-206 -57.5q-113 0 -206 53.5t-148 145.5t-55 200z" />
<glyph unicode="&#xaa;" horiz-adv-x="776" d="M4 1184q0 145 90 242.5t246 97.5q94 0 166 -47v30h194v-649h-194v33q-82 -47 -166 -47q-156 0 -246 96t-90 244zM70 565v195h635v-195h-635zM201 1184q0 -70 43 -115t112 -45q63 0 107.5 46t44.5 114q0 67 -44 114.5t-108 47.5q-72 0 -113.5 -46.5t-41.5 -115.5z" />
<glyph unicode="&#xab;" horiz-adv-x="1443" d="M100 561l322 483h338l-334 -483l336 -479h-342zM674 561l323 483h336l-332 -483l336 -479h-342z" />
<glyph unicode="&#xac;" horiz-adv-x="1255" d="M90 621v278h1040v-623h-323v345h-717z" />
<glyph unicode="&#xad;" horiz-adv-x="1773" />
<glyph unicode="&#xae;" horiz-adv-x="1761" d="M70 745q0 207 107.5 384.5t290.5 280.5t400 103t401.5 -103t292 -280.5t107.5 -384.5q0 -209 -107.5 -386t-292 -280.5t-401.5 -103.5t-400 103.5t-290.5 281t-107.5 385.5zM250 745q0 -164 83 -302t224 -218t311 -80t312.5 80t225.5 218.5t83 301.5q0 164 -83 301.5 t-225.5 217t-312.5 79.5t-311 -79.5t-224 -217t-83 -301.5zM573 399v713h351q117 0 190.5 -70.5t73.5 -183.5q0 -78 -41 -139.5t-117 -97.5q100 -127 170 -222h-178q-10 14 -35 43q-63 80 -69 88l-56 72h-139v-203h-150zM723 745h201q41 0 79.5 23t38.5 90q0 115 -118 115 h-201v-228z" />
<glyph unicode="&#xaf;" horiz-adv-x="802" d="M55 1245v217h674v-217h-674z" />
<glyph unicode="&#xb0;" horiz-adv-x="714" d="M72 1481q0 74 39 135t103.5 98t139.5 37q76 0 139.5 -36t101.5 -98.5t38 -135.5q0 -72 -38 -134.5t-101.5 -99.5t-139.5 -37q-75 0 -139.5 37t-103.5 99.5t-39 134.5zM268 1481q0 -33 25.5 -56.5t60.5 -23.5t58.5 22.5t23.5 57.5t-23.5 58.5t-58.5 23.5t-60.5 -25 t-25.5 -57z" />
<glyph unicode="&#xb1;" horiz-adv-x="1169" d="M119 0v279h903v-279h-903zM119 702v275h289v307h327v-307h287v-275h-287v-303h-327v303h-289z" />
<glyph unicode="&#xb2;" horiz-adv-x="847" d="M39 1425q16 61 61 129t123 117t185 49q117 0 197.5 -45t120.5 -116.5t40 -151.5q0 -90 -46 -167t-110.5 -136.5t-171.5 -138.5l-69 -54h411v-192h-721v207l359 286q78 59 101.5 102.5t23.5 92.5q0 61 -40 90t-95 29q-68 0 -103 -53.5t-51 -100.5z" />
<glyph unicode="&#xb3;" horiz-adv-x="817" d="M14 985l219 59l3 -26q31 -133 143 -133q68 0 103.5 28.5t35.5 71.5q0 82 -57.5 108.5t-192.5 32.5v172q92 4 142.5 12.5t79 35t28.5 79.5q0 43 -36 71t-103 28q-68 0 -100.5 -43t-42.5 -90l-3 -25l-219 59q33 111 120 202t245 91q125 0 207 -43t118.5 -109.5t36.5 -140.5 q0 -156 -135 -215q135 -63 135 -225q0 -37 -13 -84t-48 -90q-55 -63 -137 -91t-164 -28q-158 0 -245 91t-120 202z" />
<glyph unicode="&#xb4;" horiz-adv-x="626" d="M33 1204l270 336l279 -115l-306 -221h-243z" />
<glyph unicode="&#xb6;" horiz-adv-x="1159" d="M41 1042q0 457 555 457h395v-1499h-229v1356h-117v-1356h-229v639q-96 6 -182.5 54t-139.5 137.5t-53 211.5z" />
<glyph unicode="&#xb7;" horiz-adv-x="438" d="M49 692q0 66 49 114t119 48t120 -48t50 -114q0 -67 -50 -115.5t-120 -48.5t-119 48.5t-49 115.5z" />
<glyph unicode="&#xb8;" horiz-adv-x="489" d="M18 -313l58 100q6 -2 28.5 -12.5t45 -14.5t49.5 -4q31 0 46 11.5t15 31.5q0 45 -70 45q-33 0 -63.5 -12t-38.5 -14l-35 57l72 178h170l-33 -67q27 0 64 -11q55 -14 85.5 -59t30.5 -102q0 -117 -74.5 -157t-154.5 -40q-55 0 -98 16.5t-66.5 32t-30.5 21.5z" />
<glyph unicode="&#xb9;" horiz-adv-x="608" d="M-31 1372l363 330h143v-987h-223v618l-127 -119z" />
<glyph unicode="&#xba;" horiz-adv-x="841" d="M53 1180q0 92 48.5 172t130 126t178.5 46q96 0 178 -47t130 -126t48 -171t-48 -171t-130 -125t-178 -46q-97 0 -178.5 46t-130 124.5t-48.5 171.5zM92 565v195h635v-195h-635zM266 1180q0 -63 41 -106.5t103 -43.5q59 0 100 43t41 107q0 66 -41 109.5t-100 43.5 q-60 0 -102 -45t-42 -108z" />
<glyph unicode="&#xbb;" horiz-adv-x="1443" d="M90 82l334 479l-330 483h334l326 -483l-324 -479h-340zM664 82l335 479l-151 221q-78 111 -180 262h336l323 -483l-321 -479h-342z" />
<glyph unicode="&#xbc;" horiz-adv-x="1861" d="M-23 1171l361 330h143v-987h-221v619l-129 -117zM254 0l928 1499h231l-928 -1499h-231zM918 213v178l530 596h166v-584h123v-190h-123v-213h-221v213h-475zM1212 403h181v215z" />
<glyph unicode="&#xbd;" horiz-adv-x="1861" d="M-23 1171l361 330h145v-987h-223v619l-129 -117zM254 0l928 1499h233l-928 -1499h-233zM1044 707q16 61 61.5 128.5t123.5 116.5t184 49q117 0 198 -45t121 -116.5t40 -151.5q0 -88 -45.5 -163.5t-110 -135t-166.5 -137.5l-76 -59h412v-193h-723v207l360 287 q76 61 100.5 104t24.5 90q0 61 -40 90t-95 29q-68 0 -102.5 -53.5t-50.5 -100.5z" />
<glyph unicode="&#xbe;" horiz-adv-x="2039" d="M14 774l219 62q8 -57 40 -109.5t106 -52.5q68 0 104.5 28.5t36.5 71.5q0 84 -57 111.5t-195 32.5v172q94 4 144.5 12t79 34.5t28.5 77.5q0 43 -37 71t-104 28q-76 0 -106.5 -49.5t-39.5 -108.5l-219 59q33 111 120 202t245 91q125 0 207 -43t118.5 -109.5t36.5 -140.5 q0 -156 -135 -215q135 -63 135 -225q0 -35 -13 -83t-48 -91q-55 -63 -137 -90t-164 -27q-111 0 -189.5 47.5t-121.5 115t-54 128.5zM463 0l928 1499h231l-926 -1499h-233zM1126 213v178l533 596h166v-584h121v-190h-121v-213h-223v213h-476zM1421 403h181v215z" />
<glyph unicode="&#xbf;" horiz-adv-x="1243" d="M68 420q0 119 46 198.5t107.5 124.5t151.5 91q88 47 121.5 102t33.5 160h318q0 -162 -83 -299.5t-233 -214.5q-82 -41 -109.5 -71t-27.5 -87q0 -45 43 -89t176 -44q117 0 191 65.5t102 153.5l297 -94q-47 -145 -184 -288.5t-406 -143.5q-154 0 -260 45t-166 108 q-55 60 -86.5 132.5t-31.5 150.5zM512 1372q0 68 51 116t121 48t119 -48t49 -116q0 -66 -49 -115t-119 -49t-121 49.5t-51 114.5z" />
<glyph unicode="&#xc0;" horiz-adv-x="1648" d="M-6 0l821 1544l821 -1544h-354l-119 229h-698l-115 -229h-356zM399 1845l279 115l270 -336h-241zM625 506h383l-193 391z" />
<glyph unicode="&#xc1;" horiz-adv-x="1648" d="M-6 0l821 1544l821 -1544h-354l-119 229h-698l-115 -229h-356zM625 506h383l-193 391zM676 1624l270 336l279 -115l-306 -221h-243z" />
<glyph unicode="&#xc2;" horiz-adv-x="1648" d="M-6 0l821 1544l821 -1544h-354l-119 229h-698l-115 -229h-356zM408 1622l278 340h260l281 -338h-274l-140 131l-131 -133h-274zM625 506h383l-193 391z" />
<glyph unicode="&#xc3;" horiz-adv-x="1648" d="M-6 0l821 1544l821 -1544h-354l-119 229h-698l-115 -229h-356zM385 1691q35 111 100.5 183.5t168.5 72.5q59 0 97 -18t81 -53q33 -27 58.5 -40.5t58.5 -13.5q57 0 82.5 35t44.5 82l184 -57q-27 -98 -93.5 -182t-170.5 -84q-68 0 -108 18.5t-85 54.5q-31 27 -55.5 40.5 t-59.5 13.5q-55 0 -79.5 -35t-40.5 -78zM625 506h383l-193 391z" />
<glyph unicode="&#xc4;" horiz-adv-x="1648" d="M-6 0l821 1544l821 -1544h-354l-119 229h-698l-115 -229h-356zM445 1758q0 63 46 107t113 44q68 0 112 -44t44 -107q0 -66 -44 -108t-112 -42t-113.5 43t-45.5 107zM625 506h383l-193 391zM868 1758q0 63 45.5 107t112.5 44q66 0 113 -44t47 -107t-46 -106.5t-114 -43.5 q-70 0 -114 42t-44 108z" />
<glyph unicode="&#xc5;" horiz-adv-x="1648" d="M-6 0l749 1407q-74 23 -121 84t-47 139q0 94 71 162t169 68q100 0 171 -68t71 -162q0 -78 -47 -139t-123 -84l749 -1407h-354l-119 229h-698l-115 -229h-356zM625 506h383l-193 391zM748 1630q0 -29 19 -47t48 -18t49.5 18.5t20.5 46.5q0 27 -20.5 45.5t-49.5 18.5 t-48 -18.5t-19 -45.5z" />
<glyph unicode="&#xc6;" horiz-adv-x="2260" d="M-45 0l1028 1499h1122v-285h-831v-329h737v-289h-737v-309h831v-287h-1157v246h-456l-168 -246h-369zM684 526h264v406z" />
<glyph unicode="&#xc7;" horiz-adv-x="1656" d="M76 748q0 208 108.5 386.5t294 283t404.5 104.5q221 0 411.5 -112t298.5 -298l-301 -117q-72 102 -181.5 168t-227.5 66q-131 0 -242 -66.5t-175.5 -177.5t-64.5 -237q0 -127 64.5 -239t175.5 -178.5t242 -66.5q119 0 228.5 66.5t180.5 171.5l301 -117 q-102 -176 -275 -286.5t-378 -125.5l-29 -57q27 0 64 -10q55 -14 86 -59.5t31 -102.5q0 -117 -75 -157t-155 -40q-55 0 -98 16.5t-66.5 32t-29.5 21.5l57 100q6 -2 28.5 -12t45 -14t49.5 -4q31 0 46 11t15 32q0 45 -69 45q-33 0 -64 -12.5t-39 -14.5l-35 57l70 175 q-195 25 -353.5 133t-250.5 275t-92 360z" />
<glyph unicode="&#xc8;" horiz-adv-x="1433" d="M158 0v1497h1134v-280h-811v-334h717v-283h-717v-319h811v-281h-1134zM366 1845l279 115l270 -336h-241z" />
<glyph unicode="&#xc9;" horiz-adv-x="1433" d="M158 0v1497h1134v-280h-811v-334h717v-283h-717v-319h811v-281h-1134zM541 1624l270 336l279 -115l-306 -221h-243z" />
<glyph unicode="&#xca;" horiz-adv-x="1433" d="M158 0v1497h1134v-280h-811v-334h717v-283h-717v-319h811v-281h-1134zM307 1622l278 340h260l281 -338h-274l-140 131l-131 -133h-274z" />
<glyph unicode="&#xcb;" horiz-adv-x="1433" d="M158 0v1497h1134v-280h-811v-334h717v-283h-717v-319h811v-281h-1134zM359 1758q0 63 46 107t113 44q68 0 112 -44t44 -107q0 -66 -44 -108t-112 -42t-113.5 43t-45.5 107zM782 1758q0 63 45.5 107t112.5 44q66 0 113 -44t47 -107t-46 -106.5t-114 -43.5q-70 0 -114 42 t-44 108z" />
<glyph unicode="&#xcc;" horiz-adv-x="724" d="M-56 1845l279 115l270 -336h-241zM197 0v1497h323v-1497h-323z" />
<glyph unicode="&#xcd;" horiz-adv-x="724" d="M197 0v1497h323v-1497h-323zM219 1624l270 336l279 -115l-306 -221h-243z" />
<glyph unicode="&#xce;" horiz-adv-x="724" d="M-51 1622l278 340h260l281 -338h-274l-140 131l-131 -133h-274zM197 0v1497h323v-1497h-323z" />
<glyph unicode="&#xcf;" horiz-adv-x="724" d="M-6 1758q0 63 46 107t113 44q68 0 112 -44t44 -107q0 -66 -44 -108t-112 -42t-113.5 43t-45.5 107zM197 0v1497h323v-1497h-323zM417 1758q0 63 45.5 107t112.5 44q66 0 113 -44t47 -107t-46 -106.5t-114 -43.5q-70 0 -114 42t-44 108z" />
<glyph unicode="&#xd0;" horiz-adv-x="1736" d="M53 602v279h168v616h621q330 0 547 -188q113 -100 172 -242.5t59 -316.5q0 -170 -60.5 -316.5t-170.5 -247.5q-104 -90 -244.5 -138t-302.5 -48h-621v602h-168zM547 281h295q193 0 322.5 100t129.5 367q0 266 -131 366t-321 100h-295v-333h262v-279h-262v-321z" />
<glyph unicode="&#xd1;" horiz-adv-x="1695" d="M160 0v1544l1032 -913v864h324v-1542l-1035 899v-852h-321zM405 1691q35 111 100.5 183.5t168.5 72.5q59 0 97 -18t81 -53q33 -27 58.5 -40.5t58.5 -13.5q57 0 82.5 35t44.5 82l184 -57q-27 -98 -93.5 -182t-170.5 -84q-68 0 -108 18.5t-85 54.5q-31 27 -55.5 40.5 t-59.5 13.5q-55 0 -79.5 -35t-40.5 -78z" />
<glyph unicode="&#xd2;" horiz-adv-x="1802" d="M84 750q0 209 108.5 388t293 283.5t403.5 104.5t405.5 -104.5t295 -284t108.5 -387.5q0 -211 -108.5 -390.5t-295 -284t-405.5 -104.5t-403.5 104.5t-293 284t-108.5 390.5zM406 750q0 -127 65.5 -239t176 -179.5t241.5 -67.5t242.5 67.5t176 179.5t64.5 239t-64.5 237.5 t-176 177t-242.5 66.5t-241.5 -66.5t-176 -177t-65.5 -237.5zM548 1845l279 115l270 -336h-241z" />
<glyph unicode="&#xd3;" horiz-adv-x="1802" d="M84 750q0 209 108.5 388t293 283.5t403.5 104.5t405.5 -104.5t295 -284t108.5 -387.5q0 -211 -108.5 -390.5t-295 -284t-405.5 -104.5t-403.5 104.5t-293 284t-108.5 390.5zM406 750q0 -127 65.5 -239t176 -179.5t241.5 -67.5t242.5 67.5t176 179.5t64.5 239t-64.5 237.5 t-176 177t-242.5 66.5t-241.5 -66.5t-176 -177t-65.5 -237.5zM729 1624l270 336l279 -115l-306 -221h-243z" />
<glyph unicode="&#xd4;" horiz-adv-x="1802" d="M84 750q0 209 108.5 388t293 283.5t403.5 104.5t405.5 -104.5t295 -284t108.5 -387.5q0 -211 -108.5 -390.5t-295 -284t-405.5 -104.5t-403.5 104.5t-293 284t-108.5 390.5zM406 750q0 -127 65.5 -239t176 -179.5t241.5 -67.5t242.5 67.5t176 179.5t64.5 239t-64.5 237.5 t-176 177t-242.5 66.5t-241.5 -66.5t-176 -177t-65.5 -237.5zM463 1622l278 340h260l281 -338h-274l-140 131l-131 -133h-274z" />
<glyph unicode="&#xd5;" horiz-adv-x="1802" d="M84 750q0 209 108.5 388t293 283.5t403.5 104.5t405.5 -104.5t295 -284t108.5 -387.5q0 -211 -108.5 -390.5t-295 -284t-405.5 -104.5t-403.5 104.5t-293 284t-108.5 390.5zM406 750q0 -127 65.5 -239t176 -179.5t241.5 -67.5t242.5 67.5t176 179.5t64.5 239t-64.5 237.5 t-176 177t-242.5 66.5t-241.5 -66.5t-176 -177t-65.5 -237.5zM444 1691q35 111 100.5 183.5t168.5 72.5q59 0 97 -18t81 -53q33 -27 58.5 -40.5t58.5 -13.5q57 0 82.5 35t44.5 82l184 -57q-27 -98 -93.5 -182t-170.5 -84q-68 0 -108 18.5t-85 54.5q-31 27 -55.5 40.5 t-59.5 13.5q-55 0 -79.5 -35t-40.5 -78z" />
<glyph unicode="&#xd6;" horiz-adv-x="1802" d="M84 750q0 209 108.5 388t293 283.5t403.5 104.5t405.5 -104.5t295 -284t108.5 -387.5q0 -211 -108.5 -390.5t-295 -284t-405.5 -104.5t-403.5 104.5t-293 284t-108.5 390.5zM406 750q0 -127 65.5 -239t176 -179.5t241.5 -67.5t242.5 67.5t176 179.5t64.5 239t-64.5 237.5 t-176 177t-242.5 66.5t-241.5 -66.5t-176 -177t-65.5 -237.5zM510 1758q0 63 46 107t113 44q68 0 112 -44t44 -107q0 -66 -44 -108t-112 -42t-113.5 43t-45.5 107zM933 1758q0 63 45.5 107t112.5 44q66 0 113 -44t47 -107t-46 -106.5t-114 -43.5q-70 0 -114 42t-44 108z" />
<glyph unicode="&#xd7;" horiz-adv-x="1073" d="M35 362l268 256l-268 256l223 216l266 -254l271 256l225 -215l-270 -259l268 -260l-225 -215l-269 260l-266 -258z" />
<glyph unicode="&#xd8;" horiz-adv-x="1802" d="M84 750q0 209 108.5 388t293 283.5t403.5 104.5q238 0 440 -127l125 143l184 -153l-131 -144q92 -104 141.5 -230t49.5 -265q0 -211 -108.5 -390.5t-295 -284t-405.5 -104.5q-117 0 -227.5 32t-206.5 89l-136 -143l-182 151l135 148q-188 217 -188 502zM406 750 q0 -66 22.5 -135.5t58.5 -127.5l631 684q-51 29 -111.5 44.5t-117.5 15.5q-131 0 -241.5 -66.5t-176 -177t-65.5 -237.5zM662 322q119 -57 227 -58q131 0 242.5 67.5t176 179.5t64.5 239q0 129 -80 258z" />
<glyph unicode="&#xd9;" horiz-adv-x="1679" d="M160 606v889h323v-889q0 -131 56.5 -210t135.5 -111.5t156 -32.5q76 0 155 32.5t134.5 111.5t55.5 210v889h323v-889q0 -190 -82 -333.5t-233.5 -221.5t-352.5 -78q-202 0 -353.5 78t-234.5 221.5t-83 333.5zM458 1845l279 115l270 -336h-241z" />
<glyph unicode="&#xda;" horiz-adv-x="1679" d="M160 606v889h323v-889q0 -131 56.5 -210t135.5 -111.5t156 -32.5q76 0 155 32.5t134.5 111.5t55.5 210v889h323v-889q0 -190 -82 -333.5t-233.5 -221.5t-352.5 -78q-202 0 -353.5 78t-234.5 221.5t-83 333.5zM600 1624l270 336l279 -115l-306 -221h-243z" />
<glyph unicode="&#xdb;" horiz-adv-x="1679" d="M160 606v889h323v-889q0 -131 56.5 -210t135.5 -111.5t156 -32.5q76 0 155 32.5t134.5 111.5t55.5 210v889h323v-889q0 -190 -82 -333.5t-233.5 -221.5t-352.5 -78q-202 0 -353.5 78t-234.5 221.5t-83 333.5zM416 1622l278 340h260l281 -338h-274l-140 131l-131 -133 h-274z" />
<glyph unicode="&#xdc;" horiz-adv-x="1679" d="M160 606v889h323v-889q0 -131 56.5 -210t135.5 -111.5t156 -32.5q76 0 155 32.5t134.5 111.5t55.5 210v889h323v-889q0 -190 -82 -333.5t-233.5 -221.5t-352.5 -78q-202 0 -353.5 78t-234.5 221.5t-83 333.5zM457 1758q0 63 46 107t113 44q68 0 112 -44t44 -107 q0 -66 -44 -108t-112 -42t-113.5 43t-45.5 107zM880 1758q0 63 45.5 107t112.5 44q66 0 113 -44t47 -107t-46 -106.5t-114 -43.5q-70 0 -114 42t-44 108z" />
<glyph unicode="&#xdd;" horiz-adv-x="1503" d="M-4 1495h379l373 -604l376 604h379l-594 -928v-567h-323v567zM531 1624l270 336l279 -115l-306 -221h-243z" />
<glyph unicode="&#xde;" horiz-adv-x="1513" d="M160 0v1497h323v-211h371q152 0 280 -72.5t203.5 -196.5t75.5 -267q0 -145 -75.5 -268.5t-203.5 -196t-280 -72.5h-371v-213h-323zM483 494h371q61 0 115.5 37.5t86 97t31.5 121.5q0 61 -31.5 120.5t-86 96.5t-115.5 37h-371v-510z" />
<glyph unicode="&#xdf;" horiz-adv-x="1431" d="M170 0v1067q0 76 22.5 152.5t92.5 154.5q141 141 385 142q127 0 238.5 -44.5t183 -141.5t71.5 -249q0 -75 -48 -153t-124 -113q127 -33 225.5 -129t98.5 -264q0 -221 -136.5 -334t-381.5 -113q-41 0 -119 8.5t-129 22.5v262q113 -18 182 -18q133 0 207 48t74 148 q0 86 -70 125t-155 47.5t-207 8.5v295q162 0 220 53t58 108t-36 102.5t-152 47.5q-125 0 -159 -55.5t-34 -96.5l2 -1081h-309z" />
<glyph unicode="&#xe0;" d="M88 563q0 164 67.5 298t195.5 212t302 78q117 0 206 -40t136 -101v116h303v-1126h-303v113q-39 -53 -134 -95.5t-208 -42.5q-174 0 -302 78t-195.5 212t-67.5 298zM358 1472l279 115l270 -336h-241zM389 563q0 -137 85 -227t224 -90q143 0 226.5 85t83.5 232 q0 142 -84 231t-226 89q-143 0 -226 -89t-83 -231z" />
<glyph unicode="&#xe1;" d="M88 563q0 164 67.5 298t195.5 212t302 78q117 0 206 -40t136 -101v116h303v-1126h-303v113q-39 -53 -134 -95.5t-208 -42.5q-174 0 -302 78t-195.5 212t-67.5 298zM389 563q0 -137 85 -227t224 -90q143 0 226.5 85t83.5 232q0 142 -84 231t-226 89q-143 0 -226 -89 t-83 -231zM535 1253l270 336l279 -115l-306 -221h-243z" />
<glyph unicode="&#xe2;" d="M88 563q0 164 67.5 298t195.5 212t302 78q117 0 206 -40t136 -101v116h303v-1126h-303v113q-39 -53 -134 -95.5t-208 -42.5q-174 0 -302 78t-195.5 212t-67.5 298zM342 1253l278 340h260l281 -338h-274l-140 131l-131 -133h-274zM389 563q0 -137 85 -227t224 -90 q143 0 226.5 85t83.5 232q0 142 -84 231t-226 89q-143 0 -226 -89t-83 -231z" />
<glyph unicode="&#xe3;" d="M88 563q0 164 67.5 298t195.5 212t302 78q117 0 206 -40t136 -101v116h303v-1126h-303v113q-39 -53 -134 -95.5t-208 -42.5q-174 0 -302 78t-195.5 212t-67.5 298zM297 1321q35 111 100.5 183.5t168.5 72.5q59 0 97 -18t81 -53q33 -27 58.5 -40.5t58.5 -13.5 q57 0 82.5 35t44.5 82l184 -57q-27 -98 -93.5 -182t-170.5 -84q-68 0 -108 18.5t-85 54.5q-31 27 -55.5 40.5t-59.5 13.5q-55 0 -79.5 -35t-40.5 -78zM389 563q0 -137 85 -227t224 -90q143 0 226.5 85t83.5 232q0 142 -84 231t-226 89q-143 0 -226 -89t-83 -231z" />
<glyph unicode="&#xe4;" d="M88 563q0 164 67.5 298t195.5 212t302 78q117 0 206 -40t136 -101v116h303v-1126h-303v113q-39 -53 -134 -95.5t-208 -42.5q-174 0 -302 78t-195.5 212t-67.5 298zM389 563q0 -137 85 -227t224 -90q143 0 226.5 85t83.5 232q0 142 -84 231t-226 89q-143 0 -226 -89 t-83 -231zM396 1399q0 63 46 107t113 44q68 0 112 -44t44 -107q0 -66 -44 -108t-112 -42t-113.5 43t-45.5 107zM819 1399q0 63 45.5 107t112.5 44q66 0 113 -44t47 -107t-46 -106.5t-114 -43.5q-70 0 -114 42t-44 108z" />
<glyph unicode="&#xe5;" d="M88 563q0 164 67.5 298t195.5 212t302 78q117 0 206 -40t136 -101v116h303v-1126h-303v113q-39 -53 -134 -95.5t-208 -42.5q-174 0 -302 78t-195.5 212t-67.5 298zM389 563q0 -137 85 -227t224 -90q143 0 226.5 85t83.5 232q0 142 -84 231t-226 89q-143 0 -226 -89 t-83 -231zM493 1477q0 94 71 161.5t169 67.5q100 0 170.5 -67.5t70.5 -161.5q0 -96 -70.5 -165t-170.5 -69q-98 0 -169 69t-71 165zM665 1477q0 -29 19.5 -47.5t48.5 -18.5t49 18.5t20 47.5q0 27 -20.5 45t-48.5 18q-29 0 -48.5 -18t-19.5 -45z" />
<glyph unicode="&#xe6;" horiz-adv-x="2150" d="M84 342q0 156 93 242t216 115.5t236 29.5q115 0 207 -14q-16 80 -66.5 117.5t-173.5 37.5q-166 0 -338 -104l-135 231q82 51 226.5 100.5t299.5 49.5q127 0 226.5 -39t158.5 -113q88 78 203 114t217 36q147 0 280.5 -65.5t218.5 -192.5t89 -301q0 -53 -2 -92t-4 -50h-889 q25 -119 123 -161.5t184 -42.5q111 0 176.5 39.5t112.5 91.5l237 -138q-193 -262 -526 -262q-111 0 -230.5 41t-209.5 131q-104 -106 -228 -137t-280 -31q-57 0 -154.5 27t-182.5 109t-85 231zM397 358q0 -70 64.5 -92t122.5 -22q110 0 189 50t79 150q0 10 -4 39 q-68 8 -205 9q-88 0 -167 -27t-79 -107zM1155 678h563q-18 80 -87.5 139.5t-176.5 59.5q-123 0 -200.5 -58.5t-98.5 -140.5z" />
<glyph unicode="&#xe7;" horiz-adv-x="1331" d="M88 559q0 160 83 294t223.5 213t305.5 79q178 0 322.5 -85t230.5 -243l-276 -108q-49 84 -121 126t-156 42q-133 0 -220 -90.5t-87 -227.5t88 -227t221 -90q184 0 285 164l260 -103q-147 -299 -475 -330l-24 -51q27 0 63 -10q55 -14 86 -59.5t31 -102.5 q0 -117 -75 -156.5t-155 -39.5q-55 0 -98 16t-66.5 31.5t-29.5 21.5l57 101q6 -2 28.5 -12.5t45 -14.5t49.5 -4q31 0 46 11t15 32q0 45 -69 45q-33 0 -63.5 -12.5t-39.5 -14.5l-34 58l67 168q-143 20 -262 103t-187.5 208t-68.5 268z" />
<glyph unicode="&#xe8;" horiz-adv-x="1394" d="M88 559q0 213 101.5 344t242.5 186.5t268 55.5q147 0 280.5 -65.5t218.5 -192.5t89 -301q0 -53 -2 -92t-4 -50h-889q25 -119 123 -161.5t184 -42.5q111 0 176.5 39.5t112.5 91.5l238 -138q-193 -262 -527 -262q-131 0 -271 55.5t-240.5 187.5t-100.5 345zM333 1472 l279 115l270 -336h-241zM401 662h564q-6 53 -41 102t-93.5 81t-132.5 32q-127 0 -206.5 -62.5t-90.5 -152.5z" />
<glyph unicode="&#xe9;" horiz-adv-x="1394" d="M88 559q0 213 101.5 344t242.5 186.5t268 55.5q147 0 280.5 -65.5t218.5 -192.5t89 -301q0 -53 -2 -92t-4 -50h-889q25 -119 123 -161.5t184 -42.5q111 0 176.5 39.5t112.5 91.5l238 -138q-193 -262 -527 -262q-131 0 -271 55.5t-240.5 187.5t-100.5 345zM401 662h564 q-6 53 -41 102t-93.5 81t-132.5 32q-127 0 -206.5 -62.5t-90.5 -152.5zM535 1253l270 336l279 -115l-306 -221h-243z" />
<glyph unicode="&#xea;" horiz-adv-x="1394" d="M88 559q0 213 101.5 344t242.5 186.5t268 55.5q147 0 280.5 -65.5t218.5 -192.5t89 -301q0 -53 -2 -92t-4 -50h-889q25 -119 123 -161.5t184 -42.5q111 0 176.5 39.5t112.5 91.5l238 -138q-193 -262 -527 -262q-131 0 -271 55.5t-240.5 187.5t-100.5 345zM289 1253 l278 340h260l281 -338h-274l-140 131l-131 -133h-274zM401 662h564q-6 53 -41 102t-93.5 81t-132.5 32q-127 0 -206.5 -62.5t-90.5 -152.5z" />
<glyph unicode="&#xeb;" horiz-adv-x="1394" d="M88 559q0 213 101.5 344t242.5 186.5t268 55.5q147 0 280.5 -65.5t218.5 -192.5t89 -301q0 -53 -2 -92t-4 -50h-889q25 -119 123 -161.5t184 -42.5q111 0 176.5 39.5t112.5 91.5l238 -138q-193 -262 -527 -262q-131 0 -271 55.5t-240.5 187.5t-100.5 345zM334 1399 q0 63 46 107t113 44q68 0 112 -44t44 -107q0 -66 -44 -108t-112 -42t-113.5 43t-45.5 107zM401 662h564q-6 53 -41 102t-93.5 81t-132.5 32q-127 0 -206.5 -62.5t-90.5 -152.5zM757 1399q0 63 45.5 107t112.5 44q66 0 113 -44t47 -107t-46 -106.5t-114 -43.5q-70 0 -114 42 t-44 108z" />
<glyph unicode="&#xec;" horiz-adv-x="624" d="M-100 1473l278 114l271 -336h-242zM156 0v1124h307v-1124h-307z" />
<glyph unicode="&#xed;" horiz-adv-x="645" d="M156 0v1124h307v-1124h-307zM172 1253l270 336l279 -114l-305 -222h-244z" />
<glyph unicode="&#xee;" horiz-adv-x="624" d="M-102 1253l278 340h260l281 -338h-275l-139 131l-131 -133h-274zM156 0v1124h307v-1124h-307z" />
<glyph unicode="&#xef;" horiz-adv-x="624" d="M-57 1399q0 63 46 107t113 44q68 0 112 -44t44 -107q0 -66 -44 -108t-112 -42t-113.5 43t-45.5 107zM156 0v1124h307v-1124h-307zM367 1399q0 63 45 107t112 44q66 0 113 -44t47 -107t-46 -106.5t-114 -43.5q-70 0 -113.5 42t-43.5 108z" />
<glyph unicode="&#xf0;" horiz-adv-x="1503" d="M115 530q0 137 67.5 256t187 188.5t269.5 69.5q129 0 227 -43q-70 121 -180 207l-252 -96l-74 172l150 55l-158 93l281 139q43 -27 106 -74q45 -33 68 -47l205 80l71 -172l-110 -43q133 -131 225 -330t96 -416q0 -176 -68.5 -310t-205.5 -210t-336 -76q-137 0 -267 55.5 t-216 180.5t-86 321zM410 520q0 -123 86 -198.5t209 -75.5q129 0 211.5 75.5t82.5 198.5q0 125 -82.5 200t-211.5 75q-139 0 -217 -75t-78 -200z" />
<glyph unicode="&#xf1;" horiz-adv-x="1347" d="M139 0v1126h305v-100q55 55 139.5 88t161.5 33q234 0 339.5 -125t105.5 -356v-666h-313v666q0 227 -218 227q-84 0 -151.5 -66.5t-63.5 -230.5v-596h-305zM219 1321q35 111 100.5 183.5t168.5 72.5q59 0 97 -18t81 -53q33 -27 58.5 -40.5t58.5 -13.5q57 0 82.5 35 t44.5 82l184 -57q-27 -98 -93.5 -182t-170.5 -84q-68 0 -108 18.5t-85 54.5q-31 27 -55.5 40.5t-59.5 13.5q-55 0 -79.5 -35t-40.5 -78z" />
<glyph unicode="&#xf2;" horiz-adv-x="1421" d="M88 561q0 158 82 293t222 214t306 79t307.5 -79t224.5 -214t83 -293q0 -160 -83 -295t-224.5 -214t-307.5 -79t-306 79t-222 214t-82 295zM342 1472l279 115l270 -336h-241zM389 561q0 -92 40 -164.5t110.5 -114.5t158.5 -42q86 0 157 42t112 115.5t41 163.5 q0 88 -41 161t-112 115t-157 42q-84 0 -155.5 -42t-112.5 -115t-41 -161z" />
<glyph unicode="&#xf3;" horiz-adv-x="1421" d="M88 561q0 158 82 293t222 214t306 79t307.5 -79t224.5 -214t83 -293q0 -160 -83 -295t-224.5 -214t-307.5 -79t-306 79t-222 214t-82 295zM389 561q0 -92 40 -164.5t110.5 -114.5t158.5 -42q86 0 157 42t112 115.5t41 163.5q0 88 -41 161t-112 115t-157 42 q-84 0 -155.5 -42t-112.5 -115t-41 -161zM516 1253l270 336l279 -115l-306 -221h-243z" />
<glyph unicode="&#xf4;" horiz-adv-x="1421" d="M88 561q0 158 82 293t222 214t306 79t307.5 -79t224.5 -214t83 -293q0 -160 -83 -295t-224.5 -214t-307.5 -79t-306 79t-222 214t-82 295zM289 1253l278 340h260l281 -338h-274l-140 131l-131 -133h-274zM389 561q0 -92 40 -164.5t110.5 -114.5t158.5 -42q86 0 157 42 t112 115.5t41 163.5q0 88 -41 161t-112 115t-157 42q-84 0 -155.5 -42t-112.5 -115t-41 -161z" />
<glyph unicode="&#xf5;" horiz-adv-x="1421" d="M88 561q0 158 82 293t222 214t306 79t307.5 -79t224.5 -214t83 -293q0 -160 -83 -295t-224.5 -214t-307.5 -79t-306 79t-222 214t-82 295zM241 1321q35 111 100.5 183.5t168.5 72.5q59 0 97 -18t81 -53q33 -27 58.5 -40.5t58.5 -13.5q57 0 82.5 35t44.5 82l184 -57 q-27 -98 -93.5 -182t-170.5 -84q-68 0 -108 18.5t-85 54.5q-31 27 -55.5 40.5t-59.5 13.5q-55 0 -79.5 -35t-40.5 -78zM389 561q0 -92 40 -164.5t110.5 -114.5t158.5 -42q86 0 157 42t112 115.5t41 163.5q0 88 -41 161t-112 115t-157 42q-84 0 -155.5 -42t-112.5 -115 t-41 -161z" />
<glyph unicode="&#xf6;" horiz-adv-x="1421" d="M88 561q0 158 82 293t222 214t306 79t307.5 -79t224.5 -214t83 -293q0 -160 -83 -295t-224.5 -214t-307.5 -79t-306 79t-222 214t-82 295zM330 1399q0 63 46 107t113 44q68 0 112 -44t44 -107q0 -66 -44 -108t-112 -42t-113.5 43t-45.5 107zM389 561q0 -92 40 -164.5 t110.5 -114.5t158.5 -42q86 0 157 42t112 115.5t41 163.5q0 88 -41 161t-112 115t-157 42q-84 0 -155.5 -42t-112.5 -115t-41 -161zM753 1399q0 63 45.5 107t112.5 44q66 0 113 -44t47 -107t-46 -106.5t-114 -43.5q-70 0 -114 42t-44 108z" />
<glyph unicode="&#xf7;" horiz-adv-x="1302" d="M92 500v278h1102v-278h-1102zM479 178q0 63 48 108.5t116 45.5t115 -45t47 -109q0 -65 -47 -110t-115 -45t-116 46t-48 109zM479 1106q0 63 48 109.5t116 46.5t115 -45.5t47 -110.5q0 -64 -47 -111t-115 -47t-116 47t-48 111z" />
<glyph unicode="&#xf8;" horiz-adv-x="1421" d="M88 561q0 158 82 293t222 214t306 79q172 0 322 -88l90 94l164 -154l-84 -90q57 -74 90 -164t33 -184q0 -160 -83 -295t-224.5 -214t-307.5 -79q-172 0 -313 82l-92 -96l-164 154l84 90q-59 76 -92 167t-33 191zM389 561q0 -78 29 -141l407 432q-63 27 -127 27 q-84 0 -155.5 -42t-112.5 -115t-41 -161zM578 262q57 -23 120 -22q86 0 157 42t112 115.5t41 163.5q0 66 -27 129z" />
<glyph unicode="&#xf9;" horiz-adv-x="1347" d="M139 457v665h310v-665q0 -121 60 -173.5t159 -52.5q86 0 153.5 67t61.5 228v596h307v-1122h-307v96q-55 -57 -134 -89t-167 -32q-443 1 -443 482zM290 1472l279 115l270 -336h-241z" />
<glyph unicode="&#xfa;" horiz-adv-x="1347" d="M139 457v665h310v-665q0 -121 60 -173.5t159 -52.5q86 0 153.5 67t61.5 228v596h307v-1122h-307v96q-55 -57 -134 -89t-167 -32q-443 1 -443 482zM496 1253l270 336l279 -115l-306 -221h-243z" />
<glyph unicode="&#xfb;" horiz-adv-x="1347" d="M139 457v665h310v-665q0 -121 60 -173.5t159 -52.5q86 0 153.5 67t61.5 228v596h307v-1122h-307v96q-55 -57 -134 -89t-167 -32q-443 1 -443 482zM254 1253l278 340h260l281 -338h-274l-140 131l-131 -133h-274z" />
<glyph unicode="&#xfc;" horiz-adv-x="1347" d="M139 457v665h310v-665q0 -121 60 -173.5t159 -52.5q86 0 153.5 67t61.5 228v596h307v-1122h-307v96q-55 -57 -134 -89t-167 -32q-443 1 -443 482zM293 1399q0 63 46 107t113 44q68 0 112 -44t44 -107q0 -66 -44 -108t-112 -42t-113.5 43t-45.5 107zM716 1399 q0 63 45.5 107t112.5 44q66 0 113 -44t47 -107t-46 -106.5t-114 -43.5q-70 0 -114 42t-44 108z" />
<glyph unicode="&#xfd;" horiz-adv-x="1316" d="M18 1122h355l284 -716l263 716h354l-629 -1544h-338l195 463zM496 1253l270 336l279 -115l-306 -221h-243z" />
<glyph unicode="&#xfe;" d="M139 -365v1913h305v-514q61 51 146.5 84t183.5 33q178 0 309 -78t200 -212t69 -298t-69 -298t-200 -212t-309 -78q-106 0 -190 33t-140 84v-457h-305zM432 563q0 -88 41 -160.5t111.5 -114.5t156.5 -42q139 0 223.5 90t84.5 227q0 141 -82 230.5t-226 89.5 q-86 0 -156.5 -42t-111.5 -115t-41 -163z" />
<glyph unicode="&#xff;" horiz-adv-x="1316" d="M18 1122h355l284 -716l263 716h354l-629 -1544h-338l195 463zM285 1399q0 63 46 107t113 44q68 0 112 -44t44 -107q0 -66 -44 -108t-112 -42t-113.5 43t-45.5 107zM708 1399q0 63 45.5 107t112.5 44q66 0 113 -44t47 -107t-46 -106.5t-114 -43.5q-70 0 -114 42t-44 108z " />
<glyph unicode="&#x152;" horiz-adv-x="2469" d="M88 750q0 209 108.5 388t294 283.5t404.5 104.5q133 0 262 -45v16h1153v-283h-829v-331h737v-287h-737v-311h829v-285h-1153v16q-123 -45 -262 -45q-219 0 -404.5 105.5t-294 284t-108.5 389.5zM412 750q0 -152 64.5 -263.5t174 -172t244.5 -60.5q96 0 156.5 27.5 t105.5 74.5v787q-84 100 -262 100q-137 0 -246.5 -57.5t-173 -169t-63.5 -266.5z" />
<glyph unicode="&#x153;" horiz-adv-x="2293" d="M88 561q0 158 82 293t222 214t306 79q133 0 249 -53.5t202 -145.5q88 102 212 149.5t238 47.5q147 0 280.5 -65.5t218.5 -192.5t89 -301q0 -53 -2 -92t-4 -50h-889q25 -119 123 -161.5t184 -42.5q111 0 176.5 39.5t112.5 91.5l238 -138q-193 -262 -527 -262 q-118 0 -242 47.5t-210 149.5q-86 -92 -201 -143.5t-248 -51.5q-166 0 -306 79t-222 214t-82 295zM389 561q0 -92 40 -164.5t110.5 -114.5t158.5 -42q86 0 157 42t112 115.5t41 163.5q0 88 -41 161t-112 115t-157 42q-84 0 -155.5 -42t-112.5 -115t-41 -161zM1300 678h564 q-18 80 -88 139.5t-177 59.5q-122 0 -200 -58.5t-99 -140.5z" />
<glyph unicode="&#x178;" horiz-adv-x="1503" d="M-4 1495h379l373 -604l376 604h379l-594 -928v-567h-323v567zM377 1758q0 63 46 107t113 44q68 0 112 -44t44 -107q0 -66 -44 -108t-112 -42t-113.5 43t-45.5 107zM800 1758q0 63 45.5 107t112.5 44q66 0 113 -44t47 -107t-46 -106.5t-114 -43.5q-70 0 -114 42t-44 108z " />
<glyph unicode="&#x2c6;" horiz-adv-x="917" d="M37 1198l278 340h260l281 -338h-274l-140 131l-131 -133h-274z" />
<glyph unicode="&#x2dc;" horiz-adv-x="1007" d="M59 1255q35 111 100.5 183.5t168.5 72.5q59 0 97 -18t81 -53q33 -27 58.5 -40.5t58.5 -13.5q57 0 82.5 35t44.5 82l184 -57q-27 -98 -93.5 -182t-170.5 -84q-68 0 -108 18.5t-85 54.5q-31 27 -55.5 40.5t-59.5 13.5q-55 0 -79.5 -35t-40.5 -78z" />
<glyph unicode="&#x2000;" horiz-adv-x="981" />
<glyph unicode="&#x2001;" horiz-adv-x="1962" />
<glyph unicode="&#x2002;" horiz-adv-x="981" />
<glyph unicode="&#x2003;" horiz-adv-x="1962" />
<glyph unicode="&#x2004;" horiz-adv-x="654" />
<glyph unicode="&#x2005;" horiz-adv-x="490" />
<glyph unicode="&#x2006;" horiz-adv-x="327" />
<glyph unicode="&#x2007;" horiz-adv-x="327" />
<glyph unicode="&#x2008;" horiz-adv-x="245" />
<glyph unicode="&#x2009;" horiz-adv-x="392" />
<glyph unicode="&#x200a;" horiz-adv-x="109" />
<glyph unicode="&#x2010;" horiz-adv-x="870" d="M98 451v278h652v-278h-652z" />
<glyph unicode="&#x2011;" horiz-adv-x="870" d="M98 451v278h652v-278h-652z" />
<glyph unicode="&#x2012;" horiz-adv-x="870" d="M98 451v278h652v-278h-652z" />
<glyph unicode="&#x2013;" horiz-adv-x="1052" d="M68 451v278h895v-278h-895z" />
<glyph unicode="&#x2014;" horiz-adv-x="1566" d="M70 451v278h1396v-278h-1396z" />
<glyph unicode="&#x2018;" horiz-adv-x="524" d="M78 1186q0 115 76.5 213t210.5 127l51 -101q-129 -43 -150 -125q70 -2 114 -49t44 -114q0 -68 -48 -115t-118 -47q-63 0 -109.5 37t-62.5 98q-8 45 -8 76z" />
<glyph unicode="&#x2019;" horiz-adv-x="409" d="M31 1354q-4 70 45 120t121 50q61 0 107 -36t63 -99q8 -31 8 -76q0 -113 -78 -212.5t-209 -127.5l-49 100q121 41 143 125q-66 2 -107.5 47t-43.5 109z" />
<glyph unicode="&#x201a;" horiz-adv-x="446" d="M41 145q0 68 48 117t118 49q61 0 108 -36.5t62 -98.5q10 -41 10 -76q0 -115 -78 -213t-211 -127l-47 103q57 18 94 50t50 71q-68 2 -111 49t-43 112z" />
<glyph unicode="&#x201c;" horiz-adv-x="944" d="M82 1186q0 115 77 213t210 127l49 -101q-129 -45 -148 -125q68 -2 112 -49t44 -114q0 -68 -48 -115t-118 -47q-63 0 -109.5 37t-62.5 98q-6 35 -6 76zM475 1186q0 113 78 212t209 128l49 -101q-119 -43 -141 -125q63 -2 106 -47t45 -108q4 -70 -46 -120t-122 -50 q-61 0 -108 37t-62 98q-8 31 -8 76z" />
<glyph unicode="&#x201d;" horiz-adv-x="835" d="M45 1360q0 68 48 115t118 47q61 0 108.5 -36t61.5 -97q8 -33 8 -78q0 -113 -78 -212.5t-209 -127.5l-47 100q115 41 142 125q-66 2 -109 49t-43 115zM440 1352q-4 70 46.5 120t119.5 50q63 0 109.5 -36t62.5 -97q8 -33 8 -78q0 -113 -77.5 -212.5t-210.5 -127.5l-49 100 q123 39 145 125q-68 2 -111 47t-43 109z" />
<glyph unicode="&#x201e;" horiz-adv-x="835" d="M45 145q0 68 48 116t118 48q61 0 108.5 -36.5t61.5 -98.5q8 -33 8 -76q0 -115 -78 -213t-209 -127l-47 101q113 37 142 123q-66 2 -109 49t-43 114zM440 137q-4 70 46.5 121t119.5 51q63 0 109.5 -36.5t62.5 -98.5q8 -33 8 -76q0 -115 -77.5 -213t-210.5 -127l-49 101 q123 35 145 123q-68 2 -111 47t-43 108z" />
<glyph unicode="&#x2022;" horiz-adv-x="770" d="M129 627q0 100 75 170.5t177 70.5q104 0 178 -70.5t74 -170.5t-74 -171t-178 -71q-102 0 -177 70.5t-75 171.5z" />
<glyph unicode="&#x2026;" horiz-adv-x="1556" d="M98 147q0 66 49.5 115t118.5 49q70 0 120 -49t50 -115q0 -67 -50 -115t-120 -48t-119 48t-49 115zM592 147q0 66 50 115t118 49q70 0 120 -49t50 -115q0 -67 -50.5 -115t-119.5 -48q-68 0 -118 48t-50 115zM1083 147q0 66 51.5 115t120.5 49q70 0 120 -49t50 -115 q0 -67 -50 -115t-120 -48t-121 48t-51 115z" />
<glyph unicode="&#x202f;" horiz-adv-x="392" />
<glyph unicode="&#x2039;" horiz-adv-x="862" d="M96 561l324 483h336l-332 -483l334 -479h-340z" />
<glyph unicode="&#x203a;" horiz-adv-x="862" d="M86 82l336 479l-211 307l-123 176h338l322 -483l-320 -479h-342z" />
<glyph unicode="&#x205f;" horiz-adv-x="490" />
<glyph unicode="&#x20ac;" d="M39 487v234l147 4q0 41 2 66h-149v235h188q41 141 154 274q92 104 218 163t263 59q227 0 358.5 -114t184.5 -202l-285 -151q-10 25 -43 65.5t-88 77.5t-127 37q-92 0 -166.5 -56.5t-122.5 -152.5h410v-235h-471q-2 -23 -2 -70h473v-234h-440q37 -102 114.5 -165.5 t204.5 -63.5q84 0 140.5 42t85 90t28.5 59l305 -130q-14 -36 -74.5 -116t-184.5 -156t-300 -76q-231 0 -414.5 126t-240.5 390h-168z" />
<glyph unicode="&#x2122;" horiz-adv-x="1808" d="M100 1294v205h678v-205h-229v-565h-221v565h-228zM842 729v836l397 -453l401 453v-836h-221v260l-180 -207l-178 207v-260h-219z" />
<glyph unicode="&#x25fc;" horiz-adv-x="1126" d="M0 0v1126h1126v-1126h-1126z" />
</font>
</defs>
</svg>
