<?xml version="1.0" standalone="no"?>
<!DOCTYPE svg PUBLIC "-//W3C//DTD SVG 1.1//EN" "http://www.w3.org/Graphics/SVG/1.1/DTD/svg11.dtd" >
<svg xmlns="http://www.w3.org/2000/svg">
<metadata></metadata>
<defs>
<font id="anglecia_pro_dspitalic" horiz-adv-x="1228" >
<font-face units-per-em="2048" ascent="1536" descent="-512" />
<missing-glyph horiz-adv-x="440" />
<glyph unicode="&#xfb00;" horiz-adv-x="1316" d="M-240 -281q10 50 48.5 82.5t85.5 32.5q50 0 74 -34t14 -89l-17 -88q62 0 110 98.5t93 311.5l197 950h-123l4 16l129 39l14 64q32 159 188 251.5t375 92.5q108 0 187 -43q123 80 276 80q71 0 129.5 -17t94 -59t22.5 -102q-11 -50 -45.5 -80.5t-81.5 -30.5q-51 0 -77.5 36 t-14.5 95l22 111q-28 16 -55 16q-67 0 -122 -75t-81 -201l-30 -152h327l-10 -41h-326l-202 -983q-38 -177 -201 -280t-387 -103q-68 0 -112 11.5t-89 37.5q-106 -86 -244 -86q-101 0 -142 39t-30 100zM221 -299q62 -51 162 -51q141 0 238.5 96t130.5 254l202 983h-376 l-197 -950q-46 -212 -160 -332zM586 1024h334l47 14l26 138q24 113 101 190q-58 47 -150 47q-132 0 -223 -85.5t-119 -225.5z" />
<glyph unicode="&#xfb01;" horiz-adv-x="1126" d="M-240 -281q10 50 48.5 82.5t85.5 32.5q50 0 74 -34t14 -89l-17 -88q62 0 110 98.5t93 311.5l197 950h-123l4 16l129 39l26 127q30 147 174 232.5t375 85.5q141 0 224.5 -48.5t64.5 -142.5q-12 -59 -51.5 -91t-93.5 -32q-57 0 -88.5 39t-18.5 103l25 116q-36 25 -92 25 q-118 0 -198.5 -77t-107.5 -210l-28 -141h256l309 14l23 -28l-179 -863q-17 -75 39 -75q48 0 125 67l12 -16q-74 -61 -152.5 -97t-137.5 -36t-88.5 33.5t-16.5 99.5l174 838l-92 22h-280l-197 -950q-46 -219 -162 -336t-287 -117q-101 0 -142 39t-30 100z" />
<glyph unicode="&#xfb02;" horiz-adv-x="1116" d="M-240 -281q10 50 48.5 82.5t85.5 32.5q50 0 74 -34t14 -89l-17 -88q62 0 110 98.5t93 311.5l197 950h-123l4 16l129 39l28 138q30 145 161 226t358 81q92 0 165 -15l170 21l23 -29l-270 -1313q-17 -75 39 -75q48 0 125 67l12 -16q-74 -61 -153 -97t-138 -36t-88 33.5 t-16 99.5l262 1268q-48 57 -148 57q-114 0 -188 -72.5t-101 -199.5l-30 -152h286l-8 -41h-286l-197 -950q-46 -219 -162 -336t-287 -117q-101 0 -142 39t-30 100z" />
<glyph unicode="&#xfb03;" horiz-adv-x="1716" d="M-240 -281q10 50 48.5 82.5t85.5 32.5q50 0 74 -34t14 -89l-17 -88q62 0 110 98.5t93 311.5l197 950h-123l4 16l129 39l14 64q21 105 101.5 184t197 119.5t252.5 40.5q79 0 124.5 -14.5t90.5 -45.5q146 97 383 97q93 0 161.5 -19.5t106 -63.5t23.5 -108 q-12 -58 -52 -90.5t-94 -32.5q-57 0 -87 39t-17 103l25 116q-39 25 -95 25q-118 0 -197.5 -77t-107.5 -210l-28 -141h256l309 14l22 -28l-178 -863q-17 -75 39 -75q48 0 125 67l12 -16q-74 -61 -153 -97t-138 -36t-88 33.5t-16 99.5l172 838l-92 22h-279l-202 -983 q-38 -177 -201 -280t-387 -103q-68 0 -112 11.5t-89 37.5q-106 -86 -244 -86q-101 0 -142 39t-30 100zM221 -299q62 -51 162 -51q141 0 238.5 96t130.5 254l202 983h-376l-197 -950q-46 -212 -160 -332zM586 1024h334l47 14l24 127q24 109 117 187q-61 61 -166 61 q-130 0 -220.5 -86t-119.5 -225z" />
<glyph unicode="&#xfb04;" horiz-adv-x="1730" d="M-240 -281q10 50 48.5 82.5t85.5 32.5q50 0 74 -34t14 -89l-17 -88q62 0 110 98.5t93 311.5l197 950h-123l4 16l129 39l14 64q21 105 101.5 184t197.5 119.5t254 40.5q133 0 207 -53q136 90 362 90q96 0 166 -15l172 21l21 -29l-271 -1313q-17 -75 39 -75q48 0 125 67 l13 -16q-74 -61 -153 -97t-138 -36t-88.5 33.5t-16.5 99.5l262 1268q-45 57 -145 57q-114 0 -189 -73t-102 -199l-30 -152h286l-8 -41h-287l-202 -983q-38 -177 -201 -280t-387 -103q-68 0 -112 11.5t-89 37.5q-106 -86 -244 -86q-101 0 -142 39t-30 100zM221 -299 q62 -51 162 -51q141 0 238.5 96t130.5 254l202 983h-376l-197 -950q-46 -212 -160 -332zM586 1024h334l47 14l26 138q24 111 109 184q-60 53 -160 53q-130 0 -220.5 -86t-119.5 -225z" />
<glyph unicode="ffj" horiz-adv-x="1716" d="M-240 -281q10 50 48.5 82.5t85.5 32.5q50 0 74 -34t14 -89l-17 -88q62 0 110 98.5t93 311.5l197 950h-123l4 16l129 39l14 64q21 105 101.5 184t197 119.5t252.5 40.5q79 0 124.5 -14.5t90.5 -45.5q146 97 383 97q93 0 161.5 -19.5t106 -63.5t23.5 -108 q-12 -58 -52 -90.5t-94 -32.5q-57 0 -87 39t-17 103l25 116q-39 25 -95 25q-118 0 -197.5 -77t-107.5 -210l-28 -141h256l309 14l22 -28l-196 -949q-24 -117 -108 -205t-207 -133t-269 -45q-70 0 -116 12t-93 40q-162 -113 -397 -113q-68 0 -112 11.5t-89 37.5 q-106 -86 -244 -86q-101 0 -142 39t-30 100zM221 -299q62 -51 162 -51q141 0 238.5 96t130.5 254l202 983h-376l-197 -950q-46 -212 -160 -332zM586 1024h334l47 14l24 127q24 109 117 187q-61 61 -166 61q-130 0 -220.5 -86t-119.5 -225zM821 -238q70 -51 168 -51 q139 0 235.5 96t129.5 254l184 900l-92 22h-279l-202 -983q-29 -141 -144 -238z" />
<glyph unicode="fj" horiz-adv-x="1126" d="M-240 -281q10 50 48.5 82.5t85.5 32.5q50 0 74 -34t14 -89l-17 -88q62 0 110 98.5t93 311.5l197 950h-123l4 16l129 39l26 127q30 147 174 232.5t375 85.5q141 0 224.5 -48.5t64.5 -142.5q-12 -59 -51.5 -91t-93.5 -32q-57 0 -88.5 39t-18.5 103l25 116q-36 25 -92 25 q-118 0 -198.5 -77t-107.5 -210l-28 -141h256l309 14l23 -28l-209 -1010q-38 -177 -201 -280t-387 -103q-68 0 -112 11.5t-89 37.5q-106 -86 -244 -86q-101 0 -142 39t-30 100zM221 -299q62 -51 162 -51q141 0 238.5 96t130.5 254l198 961l-92 22h-280l-197 -950 q-46 -212 -160 -332z" />
<glyph horiz-adv-x="0" />
<glyph horiz-adv-x="682" />
<glyph unicode=" "  horiz-adv-x="440" />
<glyph unicode="&#x09;" horiz-adv-x="440" />
<glyph unicode="&#xa0;" horiz-adv-x="440" />
<glyph unicode="!" horiz-adv-x="419" d="M129 92q7 42 41.5 70t77.5 28t65.5 -27.5t14.5 -70.5q-9 -41 -43.5 -69.5t-77.5 -28.5q-41 0 -64 28.5t-14 69.5zM252 299q21 181 32 316t10.5 181.5t0 91.5t2.5 46q9 44 45 74t80 30q46 0 69.5 -30t14.5 -74q-3 -13 -23 -59t-72.5 -194.5t-121.5 -381.5h-37z" />
<glyph unicode="&#x22;" horiz-adv-x="591" d="M362 1022q13 98 14.5 177t-2.5 102t1 59q8 36 34.5 59t61.5 23q34 0 52.5 -23.5t11.5 -58.5q-4 -17 -22 -54.5t-48 -111.5t-57 -172h-46zM614 1022q13 98 14.5 177t-2.5 102t1 59q7 35 34.5 58.5t61.5 23.5q35 0 53 -23t12 -59q-4 -16 -23 -54.5t-48.5 -112t-57.5 -171.5 h-45z" />
<glyph unicode="#" horiz-adv-x="933" d="M115 0l161 319h-118l10 50h133l150 295h-168l10 49h184l162 319h55l-164 -319h283l162 319h55l-162 -319h119l-10 -49h-135l-150 -295h170l-10 -50h-186l-160 -319h-53l159 319h-280l-162 -319h-55zM356 369h281l151 295h-282z" />
<glyph unicode="$" horiz-adv-x="978" d="M127 57l37 189h29q3 -56 22 -99.5t46 -68t63.5 -39.5t68.5 -20t66 -5l94 424q-136 42 -187 73q-115 71 -93 212q1 9 3 18q28 133 132 215.5t280 83.5l14 66h37l-14 -66q121 -6 217 -65h78l-39 -189h-27q-2 67 -25.5 114.5t-61 71t-73 34t-75.5 12.5l-86 -393h4 q34 -11 57 -19.5t53.5 -21t51 -23.5t44.5 -27t38 -32.5t28 -38.5t19 -46t5 -54t-7 -64q-28 -137 -136.5 -220t-297.5 -87l-15 -66h-37l15 66q-150 6 -248 65h-80zM442 819q-16 -74 22 -111.5t134 -70.5l84 379q-94 -6 -158 -60t-82 -137zM496 14q106 8 176.5 64t89.5 151 q8 25 5.5 46.5t-5.5 37.5t-16.5 30.5t-26.5 25t-35.5 21t-44 18.5t-51.5 18z" />
<glyph unicode="%" horiz-adv-x="1183" d="M246 0l841 1032h64l-842 -1032h-63zM266 774q26 122 102.5 195t174.5 73q99 0 146.5 -73t23.5 -195q-26 -123 -103.5 -195.5t-177.5 -72.5q-98 0 -144 72.5t-22 195.5zM375 589q16 -61 63 -61q48 0 90.5 63t67.5 183q23 124 7 185t-64 61q-46 0 -88.5 -63t-67.5 -183 q-24 -124 -8 -185zM684 258q24 122 102 195t177 73q98 0 144 -73t21 -195q-26 -123 -102 -195.5t-174 -72.5q-100 0 -147 72.5t-21 195.5zM792.5 73q15.5 -61 63.5 -61t90.5 63t67.5 183q24 124 8 185t-64 61t-90 -63t-67 -183q-24 -124 -8.5 -185z" />
<glyph unicode="&#x26;" horiz-adv-x="1183" d="M168 289q13 60 43 108t78.5 83.5t94 58.5t110.5 49q-69 120 -45 235q20 99 97 158t206 59q118 0 164 -49.5t30 -130.5q-32 -146 -244 -244l72 -114q118 94 170 94q27 0 82.5 -33t89.5 -33q30 0 71 18t79 48l16 -18q-168 -137 -225 -142q-31 -106 -115 -209 q61 -109 87.5 -139.5t49.5 -30.5q32 0 88 45l9 -12q-48 -40 -110 -68t-118 -28q-58 0 -97 21.5t-73 88.5q-125 -112 -305 -112q-166 0 -249.5 81.5t-55.5 215.5zM344 270q-48 -233 186 -233q142 0 232 94l-227 375q-77 -44 -124.5 -97.5t-66.5 -138.5zM627 874 q-9 -52 2.5 -100t46.5 -110q98 41 158.5 89t72.5 115q13 65 -22.5 104.5t-102.5 39.5q-60 0 -100 -34.5t-55 -103.5zM791 467l133 -213q42 55 63.5 94t34.5 92q-15 4 -66 34t-84 30q-32 0 -81 -37z" />
<glyph unicode="'" horiz-adv-x="350" d="M362 1022q13 98 14.5 177t-2.5 102t1 59q8 36 34.5 59t61.5 23q34 0 52.5 -23.5t11.5 -58.5q-4 -17 -22 -54.5t-48 -111.5t-57 -172h-46z" />
<glyph unicode="(" horiz-adv-x="489" d="M195 317.5q0 91.5 22 198.5q42 208 142 357.5t264 277.5l14 -16q-95 -135 -154 -282.5t-98 -336.5t-40.5 -333t36.5 -285l-21 -17q-54 63 -89 127t-55.5 141t-20.5 168.5z" />
<glyph unicode=")" horiz-adv-x="489" d="M66 -102q93 135 151.5 281.5t97.5 336.5q39 187 40.5 332.5t-36.5 286.5l21 16q54 -63 89 -127t55.5 -141t20.5 -168.5t-22 -198.5q-42 -208 -142 -358t-263 -277z" />
<glyph unicode="*" horiz-adv-x="876" d="M304.5 1122.5q-8.5 22.5 6.5 48.5q12 26 38.5 38t51.5 3q13 -4 37.5 -22t76.5 -50t126 -65q14 89 16.5 159.5t-1 90.5t0.5 51q6 28 28 47t48 19q28 0 42.5 -19t8.5 -47q-3 -14 -17.5 -46.5t-39.5 -99.5t-49 -155q87 33 152 65t96.5 50t44.5 22q30 9 51.5 -2.5t24.5 -38.5 q3 -25 -14.5 -49.5t-45.5 -31.5q-1 0 -92 -9.5t-213 -38.5q40 -68 78 -115t60.5 -68.5t27.5 -31.5q11 -23 2.5 -50.5t-35.5 -41.5q-25 -15 -51 -10.5t-35 27.5q-5 11 -11.5 42.5t-23.5 92t-47 135.5q-61 -74 -102.5 -134.5t-60 -92.5t-29.5 -43q-20 -23 -47.5 -27.5 t-47.5 12.5q-19 15 -16 41t25 49q3 3 81 62.5t173 152.5q-79 22 -142.5 32t-97 12t-45.5 6q-25 8 -33.5 30.5z" />
<glyph unicode="+" horiz-adv-x="919" d="M197 584l12 61h350l74 354h63l-75 -354h352l-12 -61h-353l-71 -357h-64l74 357h-350z" />
<glyph unicode="," horiz-adv-x="411" d="M59 -213q54 44 98 101t50 89q3 14 -2 23q-53 0 -82 34.5t-19 86.5q10 54 53.5 89.5t96.5 35.5q51 0 81 -36.5t17 -103.5q-10 -48 -40 -98t-75.5 -98.5t-78 -78.5t-78.5 -69z" />
<glyph unicode="-" horiz-adv-x="614" d="M193 559l12 62h459l-13 -62h-458z" />
<glyph unicode="." horiz-adv-x="411" d="M102 119q12 54 55.5 90.5t96.5 36.5q54 0 82.5 -36.5t17.5 -90.5t-54 -90.5t-97 -36.5q-52 0 -81 36.5t-20 90.5z" />
<glyph unicode="/" horiz-adv-x="608" d="M31 -74l704 1180h53l-704 -1180h-53z" />
<glyph unicode="0" horiz-adv-x="1325" d="M244 717q70 332 267 530.5t447 198.5q252 0 368 -199t48 -530q-45 -221 -152 -387.5t-252.5 -254t-310.5 -87.5q-252 0 -367.5 197.5t-47.5 531.5zM434.5 330q12.5 -155 72 -233.5t159.5 -78.5q153 0 284 181t199 518q66 346 11.5 522t-208.5 176q-153 0 -283 -181 t-200 -517q-47 -232 -34.5 -387z" />
<glyph unicode="1" horiz-adv-x="724" d="M94 0l4 20l176 39l269 1297h-197l6 30l393 62l23 -29l-281 -1360l160 -39l-4 -20h-549z" />
<glyph unicode="2" horiz-adv-x="1071" d="M72 0l14 78q303 237 419 339q295 260 411 484q55 106 77 213q29 147 -23 222t-179 75q-51 0 -92.5 -13.5t-94.5 -45.5l-41 -203q-13 -62 -56 -98.5t-101 -36.5q-54 0 -82 33.5t-15 95.5q25 128 167.5 213.5t338.5 85.5q218 0 321 -92t66 -271q-16 -77 -56 -155 t-91.5 -145.5t-129 -141.5t-148 -131.5t-171 -128t-176 -120t-182.5 -116.5h672l108 189h35l-66 -330h-925z" />
<glyph unicode="3" horiz-adv-x="1198" d="M170 268q13 62 55 95.5t97 33.5q58 0 85.5 -36.5t14.5 -98.5l-37 -182q69 -53 178 -53q146 0 253.5 89t141.5 251q35 174 -50.5 260t-264.5 86h-88l8 41h86q154 0 260 82t140 249q31 154 -24 237t-175 83q-107 0 -193 -51l-36 -183q-12 -63 -55.5 -100t-100.5 -37 q-55 0 -82 34.5t-14 96.5q18 87 104 153.5t196 97t222 30.5q206 0 307.5 -99t67.5 -266q-29 -137 -131.5 -226t-262.5 -120q169 -30 252.5 -124.5t53.5 -241.5q-37 -174 -197 -277.5t-387 -103.5q-88 0 -168.5 18t-143 51.5t-94 88.5t-18.5 122z" />
<glyph unicode="4" horiz-adv-x="1185" d="M164 307l6 31q119 158 203 281.5t163.5 262t132 275t81.5 277.5h213q-31 -152 -98 -294.5t-170.5 -279t-213.5 -253.5t-264 -259h584l104 504l223 186l23 -28l-137 -662h143l-6 -41h-145l-52 -248l113 -39l-2 -20h-457l4 20l129 39l52 248h-629z" />
<glyph unicode="5" horiz-adv-x="1126" d="M156 254q12 64 53 97.5t98 33.5q56 0 84.5 -36.5t16.5 -98.5l-39 -176q74 -54 163 -54q140 0 240 107t139 293q41 194 -29.5 304t-248.5 110q-150 0 -266 -76l-19 24l191 645q424 0 702 35l-35 -176h-633l-188 -485q144 84 340 84q246 0 348.5 -120.5t59.5 -324.5 q-43 -209 -201.5 -329.5t-399.5 -120.5q-113 0 -203.5 29.5t-140 90.5t-32.5 144z" />
<glyph unicode="6" horiz-adv-x="1187" d="M223 631q78 376 332 577t655 236l17 -21q-168 -33 -297 -94.5t-218 -149.5t-147.5 -191.5t-95.5 -233.5q131 112 332 112q211 0 315.5 -118t63.5 -318q-39 -201 -195 -320.5t-373 -119.5q-254 0 -353 170.5t-36 470.5zM408.5 329.5q-1.5 -141.5 49 -225.5t148.5 -84 q124 0 222 110.5t137 299.5q39 185 -21.5 290t-189.5 105q-92 0 -175 -46t-133 -122q-36 -186 -37.5 -327.5z" />
<glyph unicode="7" horiz-adv-x="1116" d="M330 1098l67 336h899l-6 -31q-71 -131 -199.5 -347t-211 -358t-166 -335.5t-117.5 -362.5h-213q30 148 93.5 288t151 264.5t174.5 232.5t196 247t184 254h-701l-119 -188h-32z" />
<glyph unicode="8" horiz-adv-x="1169" d="M164 340q15 74 51 134t90.5 103.5t109.5 73.5t126 58q-43 20 -73.5 40.5t-58 50t-39.5 64t-16 83t11 106.5q16 83 54.5 152.5t101 124.5t157.5 85.5t213 30.5q206 0 292 -93t54 -249q-15 -68 -46 -122.5t-74.5 -93t-88.5 -65t-102 -49.5q37 -16 66.5 -32t57.5 -37 t48.5 -43t36.5 -50.5t23 -60t6.5 -71.5t-9.5 -85q-18 -88 -61.5 -160t-114 -128.5t-177.5 -87.5t-241 -31q-235 0 -332 95t-65 257zM342 362q-69 -342 244 -342q157 0 259.5 81t133.5 227q8 37 9 67.5t-6.5 56t-17.5 45.5t-32 38.5t-42 31.5t-54.5 28t-63 25.5t-74.5 26.5 q-73 26 -110 41q-100 -51 -159.5 -123t-86.5 -203zM527.5 1072q-0.5 -28 6.5 -52t17 -43t29 -36.5t38.5 -31.5t49.5 -29t57.5 -26.5t67.5 -26.5q31 -13 67 -26q84 53 134.5 120.5t72.5 172.5q32 155 -19.5 237t-179.5 82t-217 -77t-116 -203q-7 -33 -7.5 -61z" />
<glyph unicode="9" horiz-adv-x="1181" d="M217 12q147 22 263.5 65t199.5 101t146.5 138.5t104.5 167t73 196.5q-133 -111 -326 -111q-210 0 -315 115t-64 313q41 203 201 325t379 122q249 0 343.5 -163.5t32.5 -463.5q-42 -201 -132 -353.5t-222.5 -251t-297.5 -153t-367 -67.5zM510 993q-38 -182 23.5 -282.5 t189.5 -100.5q92 0 171.5 44.5t133.5 121.5q30 140 38 254t-7 201t-60.5 134.5t-119.5 47.5q-129 0 -230 -115t-139 -305z" />
<glyph unicode=":" horiz-adv-x="411" d="M102 119q12 54 55.5 90.5t96.5 36.5q54 0 82.5 -36.5t17.5 -90.5t-54 -90.5t-97 -36.5q-52 0 -81 36.5t-20 90.5zM268 905q9 54 52 90.5t96 36.5q54 0 83.5 -36.5t18.5 -90.5q-10 -54 -54.5 -90.5t-98.5 -36.5q-53 0 -81 36.5t-16 90.5z" />
<glyph unicode=";" horiz-adv-x="411" d="M59 -213q54 44 98 101t50 89q3 14 -2 23q-53 0 -82 34.5t-19 86.5q10 54 53.5 89.5t96.5 35.5q51 0 81 -36.5t17 -103.5q-10 -48 -40 -98t-75.5 -98.5t-78 -78.5t-78.5 -69zM268 905q9 54 52 90.5t96 36.5q54 0 83.5 -36.5t18.5 -90.5q-10 -54 -54.5 -90.5t-98.5 -36.5 q-53 0 -81 36.5t-16 90.5z" />
<glyph unicode="&#x3c;" horiz-adv-x="919" d="M211 541l10 45l758 327l14 -57l-678 -293l557 -293l-38 -55z" />
<glyph unicode="=" horiz-adv-x="919" d="M166 436l14 62h762l-12 -62h-764zM227 729l13 64h761l-10 -64h-764z" />
<glyph unicode="&#x3e;" horiz-adv-x="919" d="M156 270l680 293l-560 293l39 57l623 -327l-10 -45l-758 -326z" />
<glyph unicode="?" horiz-adv-x="858" d="M264 834q18 91 124 147.5t243 56.5q162 0 242 -65t55 -180q-10 -49 -36 -90t-61 -71.5t-75 -58.5t-80.5 -56t-75 -58t-61.5 -71t-37 -89h-37q3 71 22 127.5t45.5 91t59.5 69.5t62.5 63.5t54.5 73t36 97.5q19 86 -15 140.5t-112 54.5q-56 0 -116 -35l-29 -141 q-10 -53 -45 -83t-82 -30q-46 0 -69 28t-13 79zM346 94q7 41 41.5 68.5t77.5 27.5q41 0 64 -27.5t16 -68.5q-9 -43 -43.5 -71.5t-75.5 -28.5q-43 0 -66 28.5t-14 71.5z" />
<glyph unicode="@" horiz-adv-x="1777" d="M182 414q68 335 320 528t639 193q132 0 239 -23.5t181 -66.5t126.5 -104t75.5 -136.5t27 -163t-18 -184.5q-45 -218 -168.5 -342.5t-309.5 -124.5t-192 114l-4 2q-136 -116 -301 -116q-164 0 -228.5 114.5t-25.5 303.5q44 220 188.5 337t362.5 117q114 0 217 -41l102 47 l21 -30l-150 -717q-8 -47 6 -65.5t45 -18.5q78 0 147 104t105 287q137 664 -454 664q-309 0 -506 -179.5t-262 -492.5q-34 -153 -15.5 -278.5t82.5 -215.5t189.5 -139t304.5 -49q160 0 318 41t265 131l17 -25q-121 -102 -299.5 -155.5t-372.5 -53.5q-385 0 -564 196.5 t-108 541.5zM743 434q-37 -172 5 -277.5t149 -105.5q108 0 207 96l131 641q-81 46 -152 46q-125 0 -213.5 -104t-126.5 -296z" />
<glyph unicode="A" horiz-adv-x="1531" d="M18 0l2 20l148 39l874 1375h68l285 -1375l123 -39l-5 -20h-489l4 20l139 39l-84 416h-608l-264 -416l172 -39l-4 -20h-361zM502 518h571l-133 690z" />
<glyph unicode="B" horiz-adv-x="1327" d="M41 0l2 16l137 33l277 1335l-125 31l2 19h649q217 0 331 -96q88 -74 88 -190q0 -34 -7 -71q-27 -134 -133.5 -223t-262.5 -119q169 -31 253 -125q62 -70 62 -167q0 -34 -7 -70q-36 -171 -206.5 -272t-412.5 -101h-647zM399 41h256q162 0 277.5 87t148.5 249q10 49 10 92 q0 98 -55 158q-79 86 -243 86h-254zM547 754h254q137 0 236 82t130 237q11 52 11 96q0 86 -43 141q-65 83 -201 83h-256z" />
<glyph unicode="C" horiz-adv-x="1425" d="M244 717q70 335 298.5 532t540.5 197q122 0 226.5 -31t171.5 -92l96 51l16 -20l-59 -283h-33q-1 81 -29 143t-68.5 96t-95.5 55t-100 27.5t-92 6.5q-235 0 -402 -173.5t-235 -500.5q-27 -118 -27 -220q0 -28 2 -55q10 -124 56.5 -212t141 -136.5t231.5 -48.5 q267 0 458 166l17 -24q-242 -207 -565 -207q-319 0 -469 196q-102 134 -102 334q0 93 22 199z" />
<glyph unicode="D" horiz-adv-x="1470" d="M41 0l2 16l137 33l277 1335l-125 31l2 19h645q309 0 459 -194q103 -133 103 -330q0 -90 -21 -193q-68 -333 -296.5 -525t-537.5 -192h-645zM399 41h293q101 0 193 42.5t170 125t138 211.5t95 295q29 143 29 256q0 149 -50 248q-88 174 -296 174h-293z" />
<glyph unicode="E" horiz-adv-x="1255" d="M41 0l2 16l137 33l277 1335l-125 31l2 19h1089l-51 -252h-33l-53 211h-608l-131 -631h493l74 160h33l-76 -363h-31l-8 160h-493l-140 -678h629l137 209h35l-51 -250h-1108z" />
<glyph unicode="F" horiz-adv-x="1208" d="M41 0l2 20l139 39l275 1325l-125 31l2 19h1063l-51 -252h-35l-51 211h-582l-131 -631h448l76 160h31l-76 -363h-29l-10 160h-448l-136 -660l185 -39l-4 -20h-543z" />
<glyph unicode="G" horiz-adv-x="1511" d="M244 717q70 336 300 532.5t546 196.5q120 0 224.5 -31t172.5 -92l98 51l14 -20l-57 -283h-33q-1 81 -30 143t-70 96t-96.5 55t-100.5 27.5t-92 6.5q-238 0 -406 -175t-237 -511q-28 -121 -28 -225q0 -24 2 -48q8 -124 50 -213t128 -138.5t207 -49.5q178 0 315 92l104 498 l-122 37l4 20h475l-4 -20l-133 -37l-115 -555l-33 -27l-102 47q-190 -106 -428 -106q-323 0 -473 196q-102 134 -102 334q0 93 22 199z" />
<glyph unicode="H" horiz-adv-x="1511" d="M41 0l2 20l139 39l273 1315l-125 39l4 21h483l-4 -21l-139 -39l-129 -622h729l129 622l-125 39l4 21h483l-4 -21l-139 -39l-270 -1315l123 -39l-2 -20h-484l2 20l139 39l136 650h-729l-134 -650l123 -39l-4 -20h-481z" />
<glyph unicode="I" horiz-adv-x="563" d="M41 0l4 20l139 39l273 1315l-125 39l4 21h473l-4 -21l-131 -39l-273 -1315l117 -39l-2 -20h-475z" />
<glyph unicode="J" horiz-adv-x="563" d="M-33 -397q160 183 213 430l277 1341l-125 39l4 21h473l-4 -21l-133 -39l-277 -1341q-29 -148 -130.5 -255t-278.5 -198z" />
<glyph unicode="K" horiz-adv-x="1396" d="M33 0l4 20l139 39l273 1315l-125 39l4 21h483l-6 -21l-137 -39l-152 -733l830 733l-160 39l4 21h369l-5 -21l-153 -39l-524 -467l383 -854l110 -33l-2 -20h-328l-344 758l-192 -172l-109 -527l123 -39l-2 -20h-483z" />
<glyph unicode="L" horiz-adv-x="1189" d="M41 0l2 16l137 33l275 1325l-125 39l4 21h483l-4 -21l-139 -39l-275 -1333h559l138 209h34l-51 -250h-1038z" />
<glyph unicode="M" horiz-adv-x="1863" d="M31 0l2 16l139 39l367 1319l-125 39l4 21h313l254 -1209l750 1209h299l-4 -21l-134 -39l-178 -1315l119 -39l-4 -20h-475l4 20l137 39l162 1186l-776 -1245h-68l-272 1247l-332 -1192l117 -39l-2 -16h-297z" />
<glyph unicode="N" horiz-adv-x="1411" d="M41 0l2 16l139 39l273 1319l-125 39l4 21h362l564 -1127l223 1071l-125 37l4 19h303l-2 -19l-139 -37l-283 -1378h-63l-686 1356l-269 -1301l123 -39l-2 -16h-303z" />
<glyph unicode="O" horiz-adv-x="1558" d="M244 717q70 332 299 530.5t532 198.5q305 0 453 -198q101 -136 102 -335q0 -91 -22 -196q-45 -222 -166.5 -388t-294 -253.5t-373.5 -87.5q-304 0 -451 197q-101 135 -101 334q0 92 22 198zM477 715q-31 -150 -31 -269q0 -148 48 -248q86 -180 288 -180q204 0 363.5 180 t228.5 517q32 152 32 272q0 147 -48 247q-86 181 -289 181t-363 -181.5t-229 -518.5z" />
<glyph unicode="P" horiz-adv-x="1251" d="M41 0l2 20l139 39l275 1325l-125 31l2 19h573q243 0 369 -110q97 -84 97 -215q0 -40 -9 -85q-39 -189 -211.5 -299.5t-415.5 -110.5h-164l-20 27l4 14h162q156 0 269.5 95t150.5 274q12 58 12 108q-1 102 -51 166q-74 95 -230 95h-192l-275 -1334l195 -39l-4 -20h-553z " />
<glyph unicode="Q" horiz-adv-x="1558" d="M244 715q70 335 298.5 533t532.5 198q305 0 453 -198q101 -137 101 -335q0 -91 -21 -196q-59 -283 -237 -470t-421 -235q49 -21 105 -58t94.5 -66t91.5 -51.5t105 -22.5q39 0 85.5 12t77.5 37l15 -19q-132 -108 -307 -108q-58 0 -114.5 12.5t-97.5 29t-92.5 48.5t-79 53 t-79.5 61.5t-74 57.5q-261 29 -380 221q-78 126 -78 299q0 92 22 197zM477 715q-30 -149 -30 -266q0 -147 47 -244q86 -174 290 -174q205 0 363.5 174.5t226.5 509.5q32 152 32 272q0 147 -48 247q-85 181 -289 181q-203 0 -363 -181.5t-229 -518.5z" />
<glyph unicode="R" horiz-adv-x="1337" d="M41 0l2 20l139 39l275 1325l-125 31l2 19h608q226 0 343 -104q88 -79 89 -201q0 -40 -10 -85q-30 -152 -150 -251t-292 -121q40 -16 63.5 -52t44.5 -96l170 -471l111 -33l-2 -20h-316l-233 662h-232l-125 -603l123 -39l-4 -20h-481zM537 702h227q138 0 240 89t135 256 q12 58 12 106q0 92 -43 151q-65 89 -203 89h-227z" />
<glyph unicode="S" horiz-adv-x="1193" d="M121 43l59 291h39q2 -77 26 -135.5t59.5 -92t84 -54t91.5 -27.5t89 -7q167 0 279 82.5t143 229.5q7 35 8 64.5t-7.5 53.5t-19 42.5t-34 35.5t-43 29t-56 26t-64.5 23.5t-75 24.5q-163 52 -225 86q-138 75 -150 208q-1 14 -1 28q0 41 10 89q16 86 59 158.5t109.5 128.5 t163.5 87.5t213 31.5q193 0 319 -96l98 59l17 -20l-58 -291h-36q-2 76 -24 134.5t-54.5 92t-76 55t-82 28.5t-79.5 7q-146 0 -249.5 -80t-131.5 -209q-6 -29 -6 -54.5t3.5 -45.5t16.5 -38.5t23.5 -31.5t34.5 -27t39.5 -22.5t49.5 -21.5t52.5 -19t59.5 -20q46 -16 74.5 -26 t70.5 -27.5t68 -32t58.5 -36.5t51.5 -44t37.5 -52t26.5 -63q8 -35 8 -78q0 -39 -10 -84q-37 -185 -189 -300t-407 -115q-211 0 -348 96l-99 -61z" />
<glyph unicode="T" horiz-adv-x="1363" d="M309 1182l53 252h1229l-53 -252h-33l-51 211h-375l-276 -1334l123 -39l-2 -20h-484l4 20l140 39l274 1334h-377l-137 -211h-35z" />
<glyph unicode="U" horiz-adv-x="1456" d="M281 532l174 842l-125 39l4 21h483l-4 -21l-139 -39l-172 -842q-16 -75 -15 -138q0 -124 59 -204q90 -122 279 -122q191 0 337.5 125t191.5 339l174 846l-125 37l4 19h303l-4 -19l-137 -37l-174 -846q-35 -167 -131.5 -291t-235 -188.5t-301.5 -64.5q-251 0 -375 147 q-87 103 -86 258q0 65 15 139z" />
<glyph unicode="V" horiz-adv-x="1531" d="M307 1413l4 21h492l-4 -21l-140 -39l240 -1149l715 1149l-170 39l4 21h360l-4 -21l-147 -39l-858 -1374h-68l-301 1374z" />
<glyph unicode="W" horiz-adv-x="2410" d="M307 1413l4 21h492l-4 -21l-140 -39l224 -1149l522 869l-59 280l-123 39l4 21h491l-4 -21l-141 -39l225 -1149l692 1149l-170 39l4 21h363l-4 -21l-148 -39l-839 -1374h-66l-215 1040l-633 -1040h-67l-285 1374z" />
<glyph unicode="X" horiz-adv-x="1501" d="M33 0l4 20l151 39l609 650l-334 665l-115 39l4 21h484l-5 -21l-139 -39l283 -573l520 573l-164 39l4 21h363l-4 -21l-152 -39l-549 -606l363 -709l117 -39l-5 -20h-485l4 20l141 39l-313 619l-579 -619l163 -39l-2 -20h-364z" />
<glyph unicode="Y" horiz-adv-x="1468" d="M307 1413l4 21h490l-4 -21l-140 -39l293 -706l592 706l-162 39l4 21h361l-4 -21l-152 -39l-626 -751l-117 -564l119 -39l-4 -20h-478l4 20l140 39l114 564l-315 751z" />
<glyph unicode="Z" horiz-adv-x="1243" d="M84 0l6 31l1116 1362h-688l-141 -211h-33l51 252h1051l-6 -31l-1114 -1362h718l142 209h33l-52 -250h-1083z" />
<glyph unicode="[" horiz-adv-x="520" d="M106 -111l259 1254h319l-2 -17l-160 -30l-239 -1159l147 -31l-4 -17h-320z" />
<glyph unicode="\" horiz-adv-x="608" d="M272 1106h56l219 -1180h-55z" />
<glyph unicode="]" horiz-adv-x="520" d="M45 -111l4 17l158 31l239 1159l-147 30l4 17h320l-258 -1254h-320z" />
<glyph unicode="^" horiz-adv-x="821" d="M281 1038l409 406h33l244 -406l-25 -22l-266 274l-379 -274z" />
<glyph unicode="_" horiz-adv-x="1277" d="M-29 -166l15 64h1265l-12 -64h-1268z" />
<glyph unicode="`" horiz-adv-x="563" d="M356 1323l140 119l221 -289l-27 -23z" />
<glyph unicode="a" d="M55 0l2 16l111 31l641 985h57l219 -985l91 -31l-2 -16h-392l2 16l105 31l-62 287h-438l-186 -287l127 -31l-2 -16h-273zM412 367h407l-100 473z" />
<glyph unicode="b" horiz-adv-x="1087" d="M70 0l2 14l102 25l197 954l-92 25l4 14h495q164 0 252 -69q69 -54 69 -139q0 -23 -5 -48q-20 -95 -98.5 -159.5t-196.5 -86.5q128 -22 190 -90q46 -51 47 -121q0 -23 -6 -49q-26 -126 -152.5 -198t-310.5 -72h-497zM365 33h174q113 0 193 60t104 177q8 38 8 70 q0 70 -38 112q-55 62 -169 62h-174zM469 545h174q95 0 163.5 57t92.5 170q8 39 8 71q1 61 -29 99q-46 57 -141 57h-174z" />
<glyph unicode="c" horiz-adv-x="1138" d="M217 516q51 241 220.5 382.5t402.5 141.5q186 0 290 -82l78 39l13 -16l-43 -213h-27q-2 59 -23 103t-50 68.5t-68 40t-71.5 20t-66.5 4.5q-168 0 -286 -121.5t-166 -360.5q-18 -87 -18 -159q0 -113 43 -191q70 -128 266 -127q189 0 327 113l15 -17q-183 -151 -422 -151 t-352 142q-78 98 -78 243q0 66 16 141z" />
<glyph unicode="d" horiz-adv-x="1187" d="M70 0l2 14l102 25l197 954l-92 25l4 14h489q232 0 346 -138q79 -97 79 -243q0 -63 -15 -135q-33 -159 -123 -276.5t-218 -178.5t-280 -61h-491zM365 33h200q144 0 254.5 120.5t159.5 360.5q22 109 22 194q0 102 -32 169q-59 122 -203 122h-203z" />
<glyph unicode="e" horiz-adv-x="1021" d="M70 0l2 14l102 25l197 954l-92 25l4 14h821l-39 -188h-25l-47 155h-430l-92 -450h348l58 119h24l-55 -271h-25l-8 119h-348l-100 -483h444l109 155h26l-37 -188h-837z" />
<glyph unicode="f" horiz-adv-x="985" d="M70 0l2 16l104 31l195 946l-92 25l4 14h798l-39 -188h-24l-45 155h-410l-92 -450h313l60 119h22l-55 -271h-23l-10 119h-313l-98 -469l137 -31l-2 -16h-432z" />
<glyph unicode="g" horiz-adv-x="1212" d="M217 516q51 242 222 383t407 141q188 0 289 -82l79 39l13 -16l-43 -213h-25q-3 59 -24.5 103t-51 68.5t-69.5 40t-72.5 20t-67.5 4.5q-171 0 -288.5 -122t-167.5 -368q-20 -89 -20 -166v-28q5 -89 33.5 -152.5t89 -99t147.5 -35.5q117 0 206 55l76 365l-90 28l4 19h379 l-2 -19l-100 -28l-84 -404l-25 -20l-90 32q-139 -71 -307 -71q-242 0 -355 142q-79 98 -79 244q0 65 16 140z" />
<glyph unicode="h" horiz-adv-x="1220" d="M70 0l2 16l104 31l193 938l-90 31l4 16h385l-4 -16l-103 -31l-92 -444h504l92 444l-90 31l2 16h387l-4 -16l-105 -31l-192 -938l90 -31l-2 -16h-385l2 16l102 31l97 463h-504l-96 -463l92 -31l-2 -16h-387z" />
<glyph unicode="i" horiz-adv-x="526" d="M70 0l4 16l102 31l193 938l-90 31l4 16h379l-3 -16l-100 -31l-194 -938l88 -31l-2 -16h-381z" />
<glyph unicode="j" horiz-adv-x="526" d="M16 -287q119 136 158 318l197 954l-90 31l2 16h379l-5 -16l-98 -31l-197 -954q-24 -110 -106.5 -188.5t-226.5 -145.5z" />
<glyph unicode="k" horiz-adv-x="1144" d="M66 0l2 16l104 31l193 938l-91 31l5 16h385l-5 -16l-102 -31l-106 -508l596 508l-119 31l2 16h282l-4 -16l-116 -31l-369 -315l278 -627l84 -27l-2 -16h-270l-246 543l-125 -109l-80 -387l93 -31l-2 -16h-387z" />
<glyph unicode="l" horiz-adv-x="974" d="M70 0l2 14l102 25l195 946l-90 31l4 16h385l-4 -16l-103 -31l-196 -952h393l106 155h27l-37 -188h-784z" />
<glyph unicode="m" horiz-adv-x="1484" d="M61 0l2 14l105 29l260 942l-90 31l4 16h254l190 -839l537 839h244l-4 -16l-101 -31l-125 -938l88 -31l-2 -16h-381l2 16l103 31l110 832l-559 -879h-57l-207 879l-233 -836l84 -29v-14h-224z" />
<glyph unicode="n" horiz-adv-x="1132" d="M70 0l2 14l104 29l193 942l-90 31l4 16h295l407 -770l150 727l-91 29l3 14h227l-2 -14l-105 -29l-200 -989h-54l-514 969l-190 -926l90 -29l-2 -14h-227z" />
<glyph unicode="o" horiz-adv-x="1239" d="M217 516q51 240 219.5 382t394.5 142q227 0 339 -142q77 -99 78 -245q0 -64 -15 -137q-51 -241 -220 -383.5t-397 -142.5q-227 0 -338 143q-77 99 -77 243q0 65 16 140zM418 514q-24 -116 -24 -205q0 -101 30 -169q58 -128 197 -128q140 0 250 127.5t161 374.5 q24 118 24 208q0 100 -30 168q-57 128 -199 128q-139 0 -248.5 -128t-160.5 -376z" />
<glyph unicode="p" horiz-adv-x="1034" d="M70 0l2 16l104 31l195 946l-92 25l4 14h444q182 0 277 -80q75 -62 75 -159q0 -28 -6 -58q-29 -135 -158 -215t-311 -80h-112l-17 23v8h113q107 0 185.5 67t105.5 197q9 46 9 83q0 71 -32 114q-51 67 -160 67h-133l-196 -952l147 -31l-2 -16h-442z" />
<glyph unicode="q" horiz-adv-x="1241" d="M217 514q51 241 219.5 383.5t394.5 142.5q228 0 339 -142q78 -99 78 -245q0 -64 -15 -137q-40 -199 -168 -332t-305 -174q36 -14 76 -39.5t67.5 -46.5t65 -37t75.5 -16q76 0 119 35l13 -12q-108 -87 -244 -87q-54 0 -100 10t-92.5 36t-69 41t-73 56t-62.5 50 q-189 25 -275 162q-58 92 -58 216q0 64 15 136zM418 514q-23 -115 -23 -203q0 -101 31 -166q57 -122 197 -122q141 0 249.5 123t159.5 368q24 117 24 207q0 101 -30 169q-57 128 -197 128t-250 -128t-161 -376z" />
<glyph unicode="r" horiz-adv-x="1101" d="M70 0l2 16l104 31l195 946l-92 25l4 14h465q172 0 262 -75q69 -58 69 -148q0 -27 -6 -57q-23 -106 -109.5 -177t-213.5 -90q33 -11 52 -37.5t36 -70.5l118 -334l86 -27l-2 -16h-262l-170 477h-153l-88 -430l92 -31l-2 -16h-387zM463 508h155q96 0 166 62t95 184 q8 43 8 79q0 65 -28 105q-44 62 -140 61h-156z" />
<glyph unicode="s" horiz-adv-x="978" d="M129 29l43 217h29q2 -57 21 -100.5t46 -67.5t64 -39t68.5 -20t66.5 -5q117 0 196 57t99 158q5 24 5.5 44t-5.5 36.5t-13.5 29.5t-23.5 25t-31 21t-40 19t-46.5 17t-54.5 17q-136 42 -188 74q-93 59 -93 166q0 23 4 48q1 7 3 15q26 134 131.5 216.5t281.5 82.5 q143 0 238 -65l76 43l12 -14l-43 -218h-29q-3 68 -27.5 117t-62 72t-73.5 33t-74 10q-103 0 -175.5 -55.5t-91.5 -143.5q-4 -20 -4 -37t2.5 -31t11 -26.5t16.5 -22t24 -19t28.5 -16t35 -15t38.5 -13.5t43 -14q37 -13 57.5 -20t53 -20.5t51 -24t44 -27t38.5 -32t27.5 -38 t19.5 -46t5.5 -54t-7.5 -64.5q-28 -139 -141 -223t-308 -84q-155 0 -258 65l-80 -45z" />
<glyph unicode="t" horiz-adv-x="1105" d="M262 844l39 188h928l-39 -188h-27l-45 155h-264l-197 -952l91 -31l-3 -16h-385l2 16l105 31l197 952h-267l-108 -155h-27z" />
<glyph unicode="u" horiz-adv-x="1169" d="M244 383l125 602l-90 31l4 16h385l-4 -16l-103 -31l-125 -602q-10 -50 -10 -93q0 -90 45 -148q66 -84 201 -85q138 0 242.5 87t134.5 239l125 606l-91 29l2 14h228l-4 -14l-103 -29l-125 -606q-36 -181 -172.5 -287t-324.5 -106t-282 106q-68 77 -68 193q0 44 10 94z" />
<glyph unicode="v" d="M262 1016l4 16h391l-4 -16l-102 -31l178 -792l508 792l-127 31l4 16h272l-4 -16l-110 -31l-631 -985h-55l-234 985z" />
<glyph unicode="w" horiz-adv-x="1884" d="M262 1016l4 16h391l-4 -16l-102 -31l168 -792l364 589l-47 203l-90 31l2 16h393l-4 -16l-104 -31l168 -792l491 792l-127 31l4 16h273l-2 -16l-113 -31l-614 -985h-58l-163 741l-463 -741h-56l-221 985z" />
<glyph unicode="x" horiz-adv-x="1204" d="M66 0l2 16l114 31l439 459l-246 479l-84 31l4 16h387l-4 -16l-105 -31l203 -401l367 401l-119 31l2 16h272l-2 -16l-114 -31l-391 -428l264 -510l86 -31l-2 -16h-387l2 16l104 31l-223 434l-416 -434l123 -31l-2 -16h-274z" />
<glyph unicode="y" horiz-adv-x="1181" d="M262 1016l4 16h391l-4 -16l-104 -31l211 -496l422 496l-119 31l2 16h272l-2 -16l-116 -31l-449 -532l-84 -406l86 -31l-2 -16h-381l2 16l103 31l84 406l-230 532z" />
<glyph unicode="z" horiz-adv-x="1007" d="M100 0l4 23l805 976h-485l-111 -155h-26l39 188h788l-4 -22l-803 -977h508l111 155h26l-37 -188h-815z" />
<glyph unicode="{" horiz-adv-x="643" d="M203 504l6 24q62 0 114 76t83 225q31 147 134 234.5t242 87.5l-4 -23q-63 0 -115 -76.5t-83 -226.5q-26 -121 -101.5 -201.5t-181.5 -107.5q96 -27 138 -108.5t16 -200.5q-29 -154 -9 -228.5t82 -74.5l-4 -23q-139 0 -207 87.5t-37 234.5q29 154 9.5 227.5t-82.5 73.5z " />
<glyph unicode="|" horiz-adv-x="370" d="M129 -147l258 1253h49l-258 -1253h-49z" />
<glyph unicode="}" horiz-adv-x="643" d="M74 -119l6 23q63 0 114.5 76.5t81.5 226.5q24 120 100 201t183 108q-96 27 -138 107.5t-18 201.5q30 154 11.5 228.5t-80.5 74.5l4 23q138 0 205 -88t37 -234q-29 -154 -9.5 -227.5t82.5 -73.5l-6 -24q-62 0 -114 -76t-82 -225q-31 -147 -134.5 -234.5t-242.5 -87.5z" />
<glyph unicode="~" horiz-adv-x="954" d="M170 522q142 118 218 163.5t126 45.5q32 0 66.5 -16.5t60.5 -35.5t63 -35.5t72 -16.5q48 0 114.5 28.5t125.5 77.5l18 -22q-253 -215 -356 -215q-37 0 -80 26t-90 52t-94 26q-105 0 -224 -102z" />
<glyph unicode="&#xa1;" horiz-adv-x="419" d="M125 98q2 15 22 59.5t72.5 194t120.5 381.5h39q-21 -181 -31.5 -315.5t-10.5 -181.5t-1 -92t-2 -46q-9 -44 -46 -74t-81 -30q-45 0 -68.5 30t-13.5 74zM303 940q8 41 42 69.5t77 28.5q41 0 64.5 -28.5t15.5 -69.5q-9 -43 -43.5 -70.5t-77.5 -27.5q-42 0 -64 27.5 t-14 70.5z" />
<glyph unicode="&#xa2;" horiz-adv-x="1126" d="M184 508q48 231 197.5 370t374.5 152l20 96h47l-20 -94h4q110 0 199 -29.5t139 -91t33 -143.5q-12 -63 -53.5 -97t-98.5 -34t-84.5 36t-15.5 99l37 176q-73 53 -162 53h-4l-193 -944q38 -6 80 -6q178 0 322 123l18 -24q-190 -157 -434 -160l-19 -92h-47l19 94 q-225 12 -315.5 150.5t-43.5 365.5zM401 233.5q40 -124.5 158 -163.5l191 927q-127 -22 -219 -142t-130 -312q-40 -185 0 -309.5z" />
<glyph unicode="&#xa3;" horiz-adv-x="954" d="M78 0l94 63l92 441h-92l2 14l96 21l35 168q31 154 140.5 242.5t279.5 88.5q76 0 140.5 -20t103.5 -65t26 -107q-10 -51 -44.5 -79t-80.5 -28q-48 0 -70.5 29.5t-13.5 83.5l29 131q-42 33 -90 33q-82 0 -142 -75t-87 -206l-41 -196h293l-7 -35h-292q-47 -199 -162 -375 q71 35 119 35q44 0 124.5 -37t131.5 -37q47 0 111 21t118 57l14 -18q-122 -82 -205 -126t-135 -44q-42 0 -126 37.5t-138 37.5q-100 0 -211 -71z" />
<glyph unicode="&#xa4;" horiz-adv-x="1038" d="M156 242l174 145q-55 89 -27 227q26 131 119 228l-113 145l53 45l113 -143q108 78 244 78q135 0 211 -76l170 141l35 -45l-170 -141q57 -91 26 -232q-27 -136 -125 -231l115 -141l-53 -45l-113 143q-113 -76 -242 -76q-133 0 -208 78l-175 -145zM371 614 q-25 -124 35 -201t182 -77q124 0 217 77.5t119 200.5q26 128 -33.5 206.5t-185.5 78.5q-123 0 -214.5 -78.5t-119.5 -206.5z" />
<glyph unicode="&#xa5;" horiz-adv-x="1181" d="M262 1016l4 16h391l-4 -16l-104 -31l211 -496l422 496l-119 31l2 16h272l-2 -16l-116 -31l-449 -532l-12 -56h188l-10 -51h-188l-27 -125h188l-8 -51h-190l-25 -123l86 -31l-2 -16h-381l2 16l103 31l24 123h-186l10 51h186l27 125h-186l8 51h188l13 56l-230 532z" />
<glyph unicode="&#xa6;" horiz-adv-x="370" d="M129 -147l115 553h49l-115 -553h-49zM272 553l115 553h49l-112 -553h-52z" />
<glyph unicode="&#xa7;" horiz-adv-x="860" d="M102 49q10 51 45 79t80 28q48 0 70 -30t12 -83l-28 -139q42 -37 102 -37q83 0 143 55t74 129q11 52 -8 91.5t-56.5 63.5t-85.5 43.5t-95.5 38.5t-85.5 42.5t-57 61t-9 87.5q15 87 104 168q-65 62 -47 152q22 109 127 174t266 65q137 0 218 -56t61 -148q-10 -51 -44.5 -79 t-80.5 -28q-48 0 -70 30t-12 83l29 141q-46 35 -97 35q-83 0 -141.5 -54.5t-73.5 -127.5q-10 -47 3 -84t42 -59.5t68 -43.5t81.5 -35.5t81.5 -34.5t68.5 -42t43 -57.5t4.5 -80.5q-17 -80 -101 -161q67 -61 49 -152q-23 -109 -131 -174.5t-268 -65.5q-136 0 -217.5 56.5 t-63.5 148.5zM295 547q-10 -45 14.5 -80.5t74.5 -60.5t104.5 -46t119 -49t103.5 -57q23 37 34 74q9 46 -15.5 82.5t-74.5 63t-104 48t-119 50t-104 57.5q-26 -39 -33 -82z" />
<glyph unicode="&#xa8;" horiz-adv-x="536" d="M172 1276q12 57 57 94t101 37t86 -37t18 -94q-10 -57 -55.5 -94t-102.5 -37q-56 0 -85 37t-19 94zM627 1276q12 57 56 94t99 37q57 0 87 -37t18 -94q-10 -57 -55 -94t-101 -37q-57 0 -86 37t-18 94z" />
<glyph unicode="&#xa9;" horiz-adv-x="1630" d="M225 487.5q-11 108.5 11 229.5q40 197 172 364.5t319.5 265t384.5 97.5t344.5 -97.5t210.5 -265t23 -364.5q-41 -197 -173.5 -364.5t-320.5 -265t-385 -97.5q-118 0 -221.5 37t-178 103.5t-125 157.5t-61.5 199.5zM299.5 510.5q10.5 -97.5 55.5 -179.5t112 -141.5 t160.5 -93t199.5 -33.5q177 0 346 88t288 238.5t155 327.5q20 109 9.5 206t-56 179t-112.5 141.5t-160 93t-199 33.5q-133 0 -265 -52t-237.5 -139.5t-182.5 -208t-104 -253.5q-20 -109 -9.5 -206.5zM618 717q33 167 150.5 265.5t275.5 98.5q134 0 197 -57l55 27l9 -11 l-29 -145h-19q-1 49 -21 83.5t-51 50t-59.5 22t-58.5 6.5q-115 0 -195.5 -84t-115.5 -250q-31 -156 16.5 -244t181.5 -88q128 0 224 78l10 -12q-124 -105 -289 -105q-163 0 -239.5 98.5t-41.5 266.5z" />
<glyph unicode="&#xaa;" horiz-adv-x="618" d="M287 1165q28 132 113 202.5t218 70.5q59 0 130 -23l65 27l12 -17l-90 -426q-8 -38 21 -38q23 0 61 30l6 -6q-79 -67 -155 -67q-34 0 -52 17t-8 50l6 21l-2 4q-89 -92 -194 -92q-90 0 -122.5 67t-8.5 180zM416 1021q17 -63 69 -63q67 0 131 80l74 359q-38 24 -82 24 q-67 0 -115 -60.5t-73 -176.5q-21 -100 -4 -163z" />
<glyph unicode="&#xab;" horiz-adv-x="835" d="M190 557l7 33l393 315l16 -20l-260 -312l131 -311l-24 -20zM504 557l6 33l391 315l19 -20l-261 -312l132 -311l-25 -20z" />
<glyph unicode="&#xac;" horiz-adv-x="1019" d="M219 686l12 62h863l-54 -267h-61l41 205h-801z" />
<glyph unicode="&#xad;" horiz-adv-x="614" d="M197 584l12 61h461l-13 -61h-460z" />
<glyph unicode="&#xae;" horiz-adv-x="1630" d="M225 487.5q-11 108.5 11 229.5q40 197 172 364.5t319.5 265t384.5 97.5t344.5 -97.5t210.5 -265t23 -364.5q-41 -197 -173.5 -364.5t-320.5 -265t-385 -97.5q-118 0 -221.5 37t-178 103.5t-125 157.5t-61.5 199.5zM299.5 510.5q10.5 -97.5 55.5 -179.5t112 -141.5 t160.5 -93t199.5 -33.5q177 0 346 88t288 238.5t155 327.5q20 109 9.5 206t-56 179t-112.5 141.5t-160 93t-199 33.5q-133 0 -265 -52t-237.5 -139.5t-182.5 -208t-104 -253.5q-20 -109 -9.5 -206.5zM586 379l4 12l69 19l138 659l-64 18v9h318q119 0 180 -52t43 -143 q-15 -73 -73.5 -122.5t-145.5 -63.5q38 -12 57 -74l84 -233l57 -17l-4 -12h-178l-115 330h-104l-61 -299l63 -19l-4 -12h-264zM856 731h105q66 0 114.5 43.5t65.5 128.5q18 84 -12.5 127t-96.5 43h-106z" />
<glyph unicode="&#xaf;" horiz-adv-x="614" d="M307 1219l12 61h502l-12 -61h-502z" />
<glyph unicode="&#xb0;" horiz-adv-x="526" d="M328 1247q17 89 80.5 143t148.5 54q88 0 130.5 -54t25.5 -143q-19 -87 -84 -140.5t-152 -53.5q-85 0 -126.5 54t-22.5 140zM403 1247q-12 -57 12.5 -92t76.5 -35q53 0 93 35t52 92t-13.5 93t-78.5 36q-54 0 -92.5 -36t-49.5 -93z" />
<glyph unicode="&#xb1;" horiz-adv-x="919" d="M98 102l13 62h761l-12 -62h-762zM219 686l12 62h349l73 354h62l-72 -354h350l-12 -62h-350l-74 -356h-61l73 356h-350z" />
<glyph unicode="&#xb2;" horiz-adv-x="561" d="M188 717l11 45q186 148 254 213q158 155 188 303q15 69 -7.5 106t-78.5 37q-43 0 -82 -24l-20 -103q-7 -36 -32.5 -56.5t-58.5 -20.5q-31 0 -46 18.5t-9 54.5q13 65 87.5 106.5t172.5 41.5q112 0 165.5 -47t33.5 -136q-10 -51 -43.5 -103t-74 -93t-108 -92t-118.5 -84 t-133 -84h332l61 98h16l-36 -180h-474z" />
<glyph unicode="&#xb3;" horiz-adv-x="626" d="M238 854q7 34 30.5 53t55.5 19q31 0 46.5 -21t8.5 -57l-19 -94q33 -23 80 -23q67 0 118.5 44t68.5 126q18 88 -22.5 130t-127.5 42h-45l6 21h43q158 0 191 166q17 79 -8 119t-80 40q-46 0 -86 -22l-21 -97q-7 -36 -30 -56.5t-56 -20.5q-32 0 -47 19.5t-8 53.5 q14 69 96.5 106.5t175.5 37.5q106 0 158 -49t35 -134q-15 -67 -67 -112t-132 -62q85 -14 127 -61.5t27 -120.5q-17 -87 -99 -138.5t-200 -51.5q-59 0 -110.5 14t-84.5 48t-24 81z" />
<glyph unicode="&#xb4;" horiz-adv-x="563" d="M319 1153l340 289l93 -119l-414 -193z" />
<glyph unicode="&#xb5;" horiz-adv-x="1230" d="M117 -209l241 1165l-116 27l6 23l311 32l23 -28l-138 -662q-16 -84 -10.5 -148.5t46.5 -102.5t114 -38q71 0 151.5 33.5t149.5 95.5l158 768l-115 27l6 23l311 32l23 -28l-197 -942l117 -27l-6 -23l-309 -24l-23 26l31 117l-6 6q-83 -75 -187 -114t-200 -39 q-136 0 -195 88q1 -90 8 -155.5t12 -92t3 -39.5q-9 -46 -44.5 -76t-82.5 -30q-44 0 -67.5 30t-14.5 76z" />
<glyph unicode="&#xb6;" horiz-adv-x="837" d="M248 670q35 167 177.5 264.5t340.5 97.5h213l-2 -16l-98 -31l-187 -907q-26 -125 -110 -214.5t-228 -166.5l-12 16q99 82 151 167.5t76 197.5l47 229q-197 0 -299 98t-69 265z" />
<glyph unicode="&#xb7;" horiz-adv-x="411" d="M207 614q10 54 53 90.5t96 36.5q54 0 83 -36.5t18 -90.5q-10 -54 -54 -89.5t-98 -35.5q-53 0 -80.5 35.5t-17.5 89.5z" />
<glyph unicode="&#xb8;" horiz-adv-x="376" d="M10 -221l172 221h37l-82 -106q81 0 125.5 -21.5t34.5 -71.5q-19 -93 -252 -274l-12 18q49 38 84.5 83t44.5 83q8 39 -24.5 53.5t-127.5 14.5z" />
<glyph unicode="&#xb9;" horiz-adv-x="397" d="M201 717l2 12l88 19l133 645h-96l4 16l215 33l12 -17l-141 -677l82 -19l-2 -12h-297z" />
<glyph unicode="&#xba;" horiz-adv-x="612" d="M291 1178q23 117 109.5 188.5t201.5 71.5q116 0 173 -71t32 -189q-25 -119 -110 -189.5t-201 -70.5q-117 0 -174 70.5t-31 189.5zM417.5 993q21.5 -61 80.5 -61q60 0 108 62.5t72 183.5q24 124 2.5 184.5t-82.5 60.5q-58 0 -105.5 -62t-72.5 -183q-24 -124 -2.5 -185z " />
<glyph unicode="&#xbb;" horiz-adv-x="835" d="M150 262l262 311l-133 312l26 20l260 -315l-6 -33l-391 -315zM463 262l260 311l-131 312l24 20l263 -315l-7 -33l-391 -315z" />
<glyph unicode="&#xbc;" horiz-adv-x="1173" d="M201 717l2 12l88 19l133 645h-96l4 16l215 33l12 -17l-141 -677l82 -19l-2 -12h-297zM225 0l916 1434h69l-917 -1434h-68zM643 154l4 14q120 164 189 290.5t98 258.5h127q-16 -76 -50.5 -147t-88.5 -139.5t-111 -126t-137 -130.5h280l50 234l135 112l12 -16l-70 -330h72 l-4 -20h-72l-24 -123l57 -19l-2 -12h-250l2 12l66 19l24 123h-307z" />
<glyph unicode="&#xbd;" horiz-adv-x="1261" d="M201 717l2 12l88 19l133 645h-96l4 16l215 33l12 -17l-141 -677l82 -19l-2 -12h-297zM225 0l916 1434h69l-917 -1434h-68zM733 0l8 45q185 147 249 208q165 158 196 308q14 69 -8.5 106.5t-79.5 37.5q-39 0 -82 -25l-21 -102q-7 -36 -31.5 -57t-58.5 -21q-30 0 -45 18.5 t-8 54.5q12 65 86 106.5t172 41.5q112 0 165.5 -46.5t35.5 -135.5q-11 -51 -44.5 -103t-74.5 -94t-107.5 -91.5t-119.5 -84t-134 -84.5h334l60 98h16l-35 -180h-473z" />
<glyph unicode="&#xbe;" horiz-adv-x="1335" d="M238 854q7 34 30.5 53t55.5 19q31 0 46.5 -21t8.5 -57l-19 -94q33 -23 80 -23q67 0 118.5 44t68.5 126q18 88 -22.5 130t-127.5 42h-45l6 21h43q158 0 191 166q17 79 -8 119t-80 40q-46 0 -86 -22l-21 -97q-7 -36 -30 -56.5t-56 -20.5q-32 0 -47 19.5t-8 53.5 q14 69 96.5 106.5t175.5 37.5q106 0 158 -49t35 -134q-15 -67 -67 -112t-132 -62q85 -14 127 -61.5t27 -120.5q-17 -87 -99 -138.5t-200 -51.5q-59 0 -110.5 14t-84.5 48t-24 81zM379 0l917 1434h68l-918 -1434h-67zM799 154l4 14q120 164 189 290.5t98 258.5h127 q-21 -100 -80 -197t-129 -172t-179 -174h281l51 234l133 112l13 -16l-70 -330h72l-4 -20h-72l-25 -123l58 -19l-2 -12h-248v12l65 19l25 123h-307z" />
<glyph unicode="&#xbf;" horiz-adv-x="858" d="M141 242q13 65 57.5 118t100 90.5t111 74.5t100 90t57.5 118h35q-2 -62 -16 -111.5t-35.5 -84t-47.5 -63.5t-53.5 -55.5t-51.5 -54.5t-44.5 -68t-29.5 -87q-19 -85 14 -138t113 -53q60 0 114 33l29 139q10 53 45.5 84t83.5 31q45 0 69 -27.5t15 -78.5 q-20 -92 -126.5 -148.5t-244.5 -56.5q-162 0 -241 65.5t-54 182.5zM526 940q9 42 43 70t76 28q41 0 64 -28.5t14 -69.5q-7 -42 -41.5 -70t-77.5 -28q-42 0 -64.5 28t-13.5 70z" />
<glyph unicode="&#xc0;" horiz-adv-x="1531" d="M18 0l2 20l148 39l874 1375h68l285 -1375l123 -39l-5 -20h-489l4 20l139 39l-84 416h-608l-264 -416l172 -39l-4 -20h-361zM502 518h571l-133 690zM889 1694l139 116l221 -288l-26 -23z" />
<glyph unicode="&#xc1;" horiz-adv-x="1531" d="M18 0l2 20l148 39l874 1375h68l285 -1375l123 -39l-5 -20h-489l4 20l139 39l-84 416h-608l-264 -416l172 -39l-4 -20h-361zM502 518h571l-133 690zM934 1522l338 288l94 -116l-416 -195z" />
<glyph unicode="&#xc2;" horiz-adv-x="1531" d="M18 0l2 20l148 39l874 1375h68l285 -1375l123 -39l-5 -20h-489l4 20l139 39l-84 416h-608l-264 -416l172 -39l-4 -20h-361zM502 518h571l-133 690zM803 1522l332 288h30l213 -288l-26 -23l-234 160l-299 -160z" />
<glyph unicode="&#xc3;" horiz-adv-x="1531" d="M18 0l2 20l148 39l874 1375h68l285 -1375l123 -39l-5 -20h-489l4 20l139 39l-84 416h-608l-264 -416l172 -39l-4 -20h-361zM502 518h571l-133 690zM760 1577q121 100 183.5 139t105.5 39q38 0 104 -47t111 -47q39 0 92.5 25t103.5 67l19 -24q-219 -185 -295 -185 q-25 0 -53.5 15t-50.5 33t-53.5 33t-61.5 15q-75 0 -185 -88z" />
<glyph unicode="&#xc4;" horiz-adv-x="1531" d="M18 0l2 20l148 39l874 1375h68l285 -1375l123 -39l-5 -20h-489l4 20l139 39l-84 416h-608l-264 -416l172 -39l-4 -20h-361zM502 518h571l-133 690zM760 1647q11 56 54.5 93.5t100.5 37.5q55 0 85.5 -37.5t19.5 -93.5q-12 -57 -57.5 -95.5t-100.5 -38.5q-57 0 -85.5 38.5 t-16.5 95.5zM1212 1647q11 56 56 93.5t102 37.5q54 0 84.5 -38t20.5 -93q-12 -57 -58 -95.5t-100 -38.5q-57 0 -87 38.5t-18 95.5z" />
<glyph unicode="&#xc5;" horiz-adv-x="1531" d="M18 0l2 20l148 39l874 1375h68l285 -1375l123 -39l-5 -20h-489l4 20l139 39l-84 416h-608l-264 -416l172 -39l-4 -20h-361zM502 518h571l-133 690zM950 1655q15 76 71 121t130 45q77 0 115.5 -45t23.5 -121q-17 -77 -73.5 -121.5t-133.5 -44.5q-75 0 -112.5 44.5 t-20.5 121.5zM1030 1655q-13 -56 5 -90.5t57 -34.5q40 0 72 34t44 91q11 57 -6 91t-57 34t-72.5 -34.5t-42.5 -90.5z" />
<glyph unicode="&#xc6;" horiz-adv-x="1705" d="M18 0l2 20l148 39l860 1375h848l-51 -252h-35l-51 211h-602l-25 -631h379l78 160h28l-73 -363h-31l-8 160h-373l-25 -678h394l139 209h33l-51 -250h-863l2 16l136 33l16 426h-422l-260 -416l172 -39l-4 -20h-361zM496 518h401l29 690z" />
<glyph unicode="&#xc7;" horiz-adv-x="1425" d="M244 717q70 335 298.5 532t540.5 197q122 0 226.5 -31t171.5 -92l96 51l16 -20l-59 -283h-33q-1 81 -29 143t-68.5 96t-95.5 55t-100 27.5t-92 6.5q-235 0 -402 -173.5t-235 -500.5q-34 -151 -24.5 -275t56 -212t141 -136.5t231.5 -48.5q267 0 458 166l17 -24 q-229 -198 -543 -207l-70 -94q79 0 123.5 -21.5t34.5 -71.5q-19 -91 -250 -274l-12 18q113 91 127 166q9 38 -23.5 53t-128.5 15l162 209q-312 5 -457.5 200.5t-76.5 528.5z" />
<glyph unicode="&#xc8;" horiz-adv-x="1255" d="M41 0l2 16l137 33l277 1335l-125 31l2 19h1089l-51 -252h-33l-53 211h-608l-131 -631h493l74 160h33l-76 -363h-31l-8 160h-493l-140 -678h629l137 209h35l-51 -250h-1108zM737 1694l137 116l222 -288l-25 -23z" />
<glyph unicode="&#xc9;" horiz-adv-x="1255" d="M41 0l2 16l137 33l277 1335l-125 31l2 19h1089l-51 -252h-33l-53 211h-608l-131 -631h493l74 160h33l-76 -363h-31l-8 160h-493l-140 -678h629l137 209h35l-51 -250h-1108zM782 1522l338 288l92 -116l-413 -195z" />
<glyph unicode="&#xca;" horiz-adv-x="1255" d="M41 0l2 16l137 33l277 1335l-125 31l2 19h1089l-51 -252h-33l-53 211h-608l-131 -631h493l74 160h33l-76 -363h-31l-8 160h-493l-140 -678h629l137 209h35l-51 -250h-1108zM651 1522l332 288h31l213 -288l-25 -23l-233 160l-301 -160z" />
<glyph unicode="&#xcb;" horiz-adv-x="1255" d="M41 0l2 16l137 33l277 1335l-125 31l2 19h1089l-51 -252h-33l-53 211h-608l-131 -631h493l74 160h33l-76 -363h-31l-8 160h-493l-140 -678h629l137 209h35l-51 -250h-1108zM608 1647q10 55 55 93t101 38q55 0 86 -37.5t20 -93.5q-12 -57 -57.5 -95.5t-101.5 -38.5 t-85.5 38.5t-17.5 95.5zM1061 1647q12 56 57.5 93.5t100.5 37.5q56 0 86 -38t18 -93q-10 -57 -56 -95.5t-102 -38.5q-55 0 -85 38.5t-19 95.5z" />
<glyph unicode="&#xcc;" horiz-adv-x="563" d="M41 0l4 20l139 39l273 1315l-125 39l4 21h473l-4 -21l-131 -39l-273 -1315l117 -39l-2 -20h-475zM391 1694l141 116l220 -288l-25 -23z" />
<glyph unicode="&#xcd;" horiz-adv-x="563" d="M41 0l4 20l139 39l273 1315l-125 39l4 21h473l-4 -21l-131 -39l-273 -1315l117 -39l-2 -20h-475zM436 1522l338 288l94 -116l-413 -195z" />
<glyph unicode="&#xce;" horiz-adv-x="565" d="M43 0l4 20l137 39l273 1315l-123 39l4 21h471l-4 -21l-131 -39l-273 -1315l117 -39l-2 -20h-473zM307 1522l330 288h31l215 -288l-27 -23l-233 160l-299 -160z" />
<glyph unicode="&#xcf;" horiz-adv-x="563" d="M41 0l4 20l139 39l273 1315l-125 39l4 21h473l-4 -21l-131 -39l-273 -1315l117 -39l-2 -20h-475zM305 1647q10 55 55 93t101 38q57 0 87 -37.5t19 -93.5q-12 -57 -57 -95.5t-102 -38.5q-56 0 -85.5 38.5t-17.5 95.5zM674 1647q11 56 55.5 93.5t99.5 37.5q57 0 87.5 -37.5 t19.5 -93.5q-12 -57 -57.5 -95.5t-102.5 -38.5q-55 0 -84.5 38.5t-17.5 95.5z" />
<glyph unicode="&#xd0;" horiz-adv-x="1470" d="M41 0l2 16l137 33l137 660h-129l5 18l133 25l131 632l-125 31l2 19h645q309 0 459 -193.5t82 -523.5q-68 -333 -296.5 -525t-537.5 -192h-645zM399 41h293q101 0 193 42.5t170 125t138 211.5t95 295q67 330 -21 504t-296 174h-293l-133 -641h346l-8 -43h-346z" />
<glyph unicode="&#xd1;" horiz-adv-x="1411" d="M41 0l2 16l139 39l273 1319l-125 39l4 21h362l564 -1127l223 1071l-125 37l4 19h303l-2 -19l-139 -37l-283 -1378h-63l-686 1356l-269 -1301l123 -39l-2 -16h-303zM686 1577q123 101 185 139.5t104 38.5q33 0 68 -23.5t72 -47t75 -23.5q39 0 93 25t103 67l21 -24 q-223 -185 -297 -185q-31 0 -67 24t-74.5 48t-77.5 24q-74 0 -184 -88z" />
<glyph unicode="&#xd2;" horiz-adv-x="1558" d="M244 717q70 332 299 530.5t532 198.5q305 0 453 -198.5t80 -530.5q-45 -222 -166.5 -388t-294 -253.5t-373.5 -87.5q-304 0 -451 197t-79 532zM477 715q-69 -336 16.5 -516.5t288.5 -180.5q204 0 363.5 180t228.5 517q70 338 -15.5 519t-289.5 181q-203 0 -363 -181.5 t-229 -518.5zM887 1694l141 116l219 -288l-24 -23z" />
<glyph unicode="&#xd3;" horiz-adv-x="1558" d="M244 717q70 332 299 530.5t532 198.5q305 0 453 -198.5t80 -530.5q-45 -222 -166.5 -388t-294 -253.5t-373.5 -87.5q-304 0 -451 197t-79 532zM477 715q-69 -336 16.5 -516.5t288.5 -180.5q204 0 363.5 180t228.5 517q70 338 -15.5 519t-289.5 181q-203 0 -363 -181.5 t-229 -518.5zM934 1522l338 288l94 -116l-416 -195z" />
<glyph unicode="&#xd4;" horiz-adv-x="1558" d="M244 717q70 332 299 530.5t532 198.5q305 0 453 -198.5t80 -530.5q-45 -222 -166.5 -388t-294 -253.5t-373.5 -87.5q-304 0 -451 197t-79 532zM477 715q-69 -336 16.5 -516.5t288.5 -180.5q204 0 363.5 180t228.5 517q70 338 -15.5 519t-289.5 181q-203 0 -363 -181.5 t-229 -518.5zM803 1522l332 288h30l213 -288l-24 -23l-236 160l-297 -160z" />
<glyph unicode="&#xd5;" horiz-adv-x="1558" d="M244 717q70 332 299 530.5t532 198.5q305 0 453 -198.5t80 -530.5q-45 -222 -166.5 -388t-294 -253.5t-373.5 -87.5q-304 0 -451 197t-79 532zM477 715q-69 -336 16.5 -516.5t288.5 -180.5q204 0 363.5 180t228.5 517q70 338 -15.5 519t-289.5 181q-203 0 -363 -181.5 t-229 -518.5zM762 1577q120 100 183 139t104 39q33 0 68.5 -23.5t72.5 -47t74 -23.5q40 0 93.5 25t104.5 67l19 -24q-219 -185 -297 -185q-31 0 -67 24t-74.5 48t-77.5 24q-76 0 -183 -88z" />
<glyph unicode="&#xd6;" horiz-adv-x="1558" d="M244 717q70 332 299 530.5t532 198.5q305 0 453 -198.5t80 -530.5q-45 -222 -166.5 -388t-294 -253.5t-373.5 -87.5q-304 0 -451 197t-79 532zM477 715q-69 -336 16.5 -516.5t288.5 -180.5q204 0 363.5 180t228.5 517q70 338 -15.5 519t-289.5 181q-203 0 -363 -181.5 t-229 -518.5zM760 1647q11 56 56 93.5t102 37.5q55 0 85 -37.5t19 -93.5q-12 -57 -57.5 -95.5t-100.5 -38.5q-57 0 -86.5 38.5t-17.5 95.5zM1214 1647q10 55 55 93t101 38t86.5 -38t20.5 -93q-12 -57 -58 -95.5t-102 -38.5t-85.5 38.5t-17.5 95.5z" />
<glyph unicode="&#xd7;" horiz-adv-x="919" d="M170 301l371 313l-244 314l53 43l244 -314l373 314l34 -43l-372 -314l245 -313l-53 -43l-246 313l-370 -313z" />
<glyph unicode="&#xd8;" horiz-adv-x="1558" d="M98 0l217 195q-138 196 -71 522q70 332 299 530.5t532 198.5q283 0 432 -172l176 160h72l-219 -199q137 -194 72 -518q-45 -222 -166.5 -388t-294 -253.5t-373.5 -87.5q-286 0 -430 170l-174 -158h-72zM457 324l927 837q-33 125 -114.5 189.5t-200.5 64.5 q-203 0 -363 -181.5t-229 -518.5q-48 -230 -20 -391zM467 270q33 -125 114 -188.5t201 -63.5q204 0 363.5 180t228.5 517q49 233 21 393z" />
<glyph unicode="&#xd9;" horiz-adv-x="1456" d="M281 532l174 842l-125 39l4 21h483l-4 -21l-139 -39l-172 -842q-46 -221 44 -342.5t279 -121.5q191 0 337.5 125t191.5 339l174 846l-125 37l4 19h303l-4 -19l-137 -37l-174 -846q-35 -167 -131.5 -291t-235 -188.5t-301.5 -64.5q-251 0 -374.5 147t-71.5 397zM866 1694 l138 116l221 -288l-25 -23z" />
<glyph unicode="&#xda;" horiz-adv-x="1456" d="M281 532l174 842l-125 39l4 21h483l-4 -21l-139 -39l-172 -842q-46 -221 44 -342.5t279 -121.5q191 0 337.5 125t191.5 339l174 846l-125 37l4 19h303l-4 -19l-137 -37l-174 -846q-35 -167 -131.5 -291t-235 -188.5t-301.5 -64.5q-251 0 -374.5 147t-71.5 397zM911 1522 l338 288l94 -116l-415 -195z" />
<glyph unicode="&#xdb;" horiz-adv-x="1456" d="M281 532l174 842l-125 39l4 21h483l-4 -21l-139 -39l-172 -842q-46 -221 44 -342.5t279 -121.5q191 0 337.5 125t191.5 339l174 846l-125 37l4 19h303l-4 -19l-137 -37l-174 -846q-35 -167 -131.5 -291t-235 -188.5t-301.5 -64.5q-251 0 -374.5 147t-71.5 397zM780 1522 l332 288h31l213 -288l-25 -23l-233 160l-301 -160z" />
<glyph unicode="&#xdc;" horiz-adv-x="1456" d="M281 532l174 842l-125 39l4 21h483l-4 -21l-139 -39l-172 -842q-46 -221 44 -342.5t279 -121.5q191 0 337.5 125t191.5 339l174 846l-125 37l4 19h303l-4 -19l-137 -37l-174 -846q-35 -167 -131.5 -291t-235 -188.5t-301.5 -64.5q-251 0 -374.5 147t-71.5 397zM737 1647 q12 56 56.5 93.5t99.5 37.5q57 0 87 -37.5t19 -93.5q-12 -57 -57 -95.5t-102 -38.5q-55 0 -84.5 38.5t-18.5 95.5zM1190 1647q12 56 57.5 93.5t100.5 37.5q56 0 86 -38t18 -93q-10 -57 -56 -95.5t-102 -38.5q-55 0 -85 38.5t-19 95.5z" />
<glyph unicode="&#xdd;" horiz-adv-x="1468" d="M307 1413l4 21h490l-4 -21l-140 -39l293 -706l592 706l-162 39l4 21h361l-4 -21l-152 -39l-626 -751l-117 -564l119 -39l-4 -20h-478l4 20l140 39l114 564l-315 751zM893 1522l340 288l92 -116l-416 -195z" />
<glyph unicode="&#xde;" horiz-adv-x="1251" d="M41 0l2 20l139 39l273 1315l-125 39l4 21h477l-4 -21l-133 -39l-47 -227h221q243 0 369.5 -110t87.5 -298q-38 -186 -210 -295.5t-413 -109.5h-164l-22 28l2 13h164q155 0 267.5 93.5t149.5 270.5q36 178 -38 272.5t-230 94.5h-193l-215 -1047l195 -39l-4 -20h-553z" />
<glyph unicode="&#xdf;" horiz-adv-x="1075" d="M70 0l2 16l98 31l135 658h-92l4 16l96 27l17 73q44 217 344 217q78 0 130 -13.5t75.5 -37.5t30.5 -50t1 -58q-8 -34 -28 -63.5t-44 -51t-47.5 -43t-43.5 -50t-27 -61.5q-11 -56 18.5 -84.5t96.5 -52.5q94 -42 127 -70q80 -67 55 -186q-22 -104 -97.5 -164.5t-211.5 -60.5 q-104 0 -185 43h-37l31 155h33q0 -176 149 -176q71 0 122 39t63 103q11 55 -18.5 83t-112.5 60q-23 9 -38 15t-35.5 16t-33 20t-27 23t-22 28.5t-13.5 35t-5.5 43.5t6.5 52q12 57 40.5 100.5t62 70t66 50.5t59 55t34.5 69q11 60 -25.5 99.5t-117.5 39.5t-126 -47t-67 -148 l-160 -774l84 -31l-2 -16h-364z" />
<glyph unicode="&#xe0;" d="M55 0l2 16l111 31l641 985h57l219 -985l91 -31l-2 -16h-392l2 16l105 31l-62 287h-438l-186 -287l127 -31l-2 -16h-273zM412 367h407l-100 473zM690 1217l117 98l164 -221l-21 -17z" />
<glyph unicode="&#xe1;" d="M55 0l2 16l111 31l641 985h57l219 -985l91 -31l-2 -16h-392l2 16l105 31l-62 287h-438l-186 -287l127 -31l-2 -16h-273zM412 367h407l-100 473zM725 1094l252 221l80 -98l-320 -140z" />
<glyph unicode="&#xe2;" d="M55 0l2 16l111 31l641 985h57l219 -985l91 -31l-2 -16h-392l2 16l105 31l-62 287h-438l-186 -287l127 -31l-2 -16h-273zM412 367h407l-100 473zM631 1094l248 221h26l158 -221l-19 -17l-180 113l-221 -113z" />
<glyph unicode="&#xe3;" d="M55 0l2 16l111 31l641 985h57l219 -985l91 -31l-2 -16h-392l2 16l105 31l-62 287h-438l-186 -287l127 -31l-2 -16h-273zM412 367h407l-100 473zM592 1135q95 80 144.5 110.5t82.5 30.5q27 0 77.5 -34t84.5 -34q31 0 72.5 17.5t76.5 48.5l17 -19q-177 -143 -234 -143 q-26 0 -78.5 35t-89.5 35q-57 0 -139 -64z" />
<glyph unicode="&#xe4;" d="M55 0l2 16l111 31l641 985h57l219 -985l91 -31l-2 -16h-392l2 16l105 31l-62 287h-438l-186 -287l127 -31l-2 -16h-273zM412 367h407l-100 473zM592 1190q9 44 45 73t80 29q45 0 68.5 -28.5t15.5 -73.5q-11 -45 -46 -74t-79 -29q-46 0 -69.5 29.5t-14.5 73.5zM932 1190 q9 44 45 73t80 29q45 0 69 -29t15 -73t-45 -73.5t-82 -29.5q-44 0 -67.5 29.5t-14.5 73.5z" />
<glyph unicode="&#xe5;" d="M55 0l2 16l111 31l641 985h57l219 -985l91 -31l-2 -16h-392l2 16l105 31l-62 287h-438l-186 -287l127 -31l-2 -16h-273zM412 367h407l-100 473zM739 1192q10 56 52.5 88.5t99.5 32.5q59 0 86.5 -32t17.5 -89q-12 -55 -54 -88t-99 -33q-56 0 -85.5 33t-17.5 88zM805 1192 q-9 -39 3.5 -63.5t39.5 -24.5q28 0 50.5 24t31.5 64q8 42 -4 66t-41 24q-27 0 -50 -25t-30 -65z" />
<glyph unicode="&#xe6;" horiz-adv-x="1345" d="M55 0l2 16l111 31l631 985h628l-38 -188h-25l-45 155h-426l-16 -450h266l57 119h25l-56 -271h-22l-10 119h-260l-19 -483h277l106 155h27l-37 -188h-658l2 14l101 25l12 295h-303l-182 -287l127 -31l-2 -16h-273zM408 367h282l19 473z" />
<glyph unicode="&#xe7;" horiz-adv-x="1138" d="M217 516q51 241 220.5 382.5t402.5 141.5q186 0 290 -82l78 39l13 -16l-43 -213h-27q-2 59 -23 103t-50 68.5t-68 40t-71.5 20t-66.5 4.5q-168 0 -286 -121.5t-166 -360.5q-45 -222 25 -349.5t266 -127.5q189 0 327 113l15 -17q-178 -145 -404 -151l-51 -62 q132 0 119 -71q-15 -69 -191 -201l-8 10q79 68 90 117q6 29 -18 40t-94 11l127 156q-236 3 -346.5 144.5t-59.5 381.5z" />
<glyph unicode="&#xe8;" horiz-adv-x="1021" d="M70 0l2 14l102 25l197 954l-92 25l4 14h821l-39 -188h-25l-47 155h-430l-92 -450h348l58 119h24l-55 -271h-25l-8 119h-348l-100 -483h444l109 155h26l-37 -188h-837zM578 1217l118 98l162 -221l-18 -17z" />
<glyph unicode="&#xe9;" horiz-adv-x="1021" d="M70 0l2 14l102 25l197 954l-92 25l4 14h821l-39 -188h-25l-47 155h-430l-92 -450h348l58 119h24l-55 -271h-25l-8 119h-348l-100 -483h444l109 155h26l-37 -188h-837zM612 1094l252 221l78 -98l-317 -140z" />
<glyph unicode="&#xea;" horiz-adv-x="1021" d="M70 0l2 14l102 25l197 954l-92 25l4 14h821l-39 -188h-25l-47 155h-430l-92 -450h348l58 119h24l-55 -271h-25l-8 119h-348l-100 -483h444l109 155h26l-37 -188h-837zM518 1094l250 221h27l157 -221l-20 -17l-178 113l-222 -113z" />
<glyph unicode="&#xeb;" horiz-adv-x="1021" d="M70 0l2 14l102 25l197 954l-92 25l4 14h821l-39 -188h-25l-47 155h-430l-92 -450h348l58 119h24l-55 -271h-25l-8 119h-348l-100 -483h444l109 155h26l-37 -188h-837zM481 1190q7 44 44 73t83 29q43 0 67 -29t15 -73t-45.5 -73.5t-79.5 -29.5q-46 0 -69.5 29.5 t-14.5 73.5zM821 1190q9 45 44.5 73.5t82.5 28.5q44 0 67 -28.5t15 -73.5q-11 -45 -46 -74t-79 -29q-46 0 -69.5 29.5t-14.5 73.5z" />
<glyph unicode="&#xec;" horiz-adv-x="526" d="M70 0l4 16l102 31l193 938l-90 31l4 16h379l-3 -16l-100 -31l-194 -938l88 -31l-2 -16h-381zM330 1217l119 98l161 -221l-18 -17z" />
<glyph unicode="&#xed;" horiz-adv-x="526" d="M70 0l4 16l102 31l193 938l-90 31l4 16h379l-3 -16l-100 -31l-194 -938l88 -31l-2 -16h-381zM365 1094l251 221l80 -98l-319 -140z" />
<glyph unicode="&#xee;" horiz-adv-x="526" d="M72 0l2 16l104 31l193 938l-90 31l4 16h377l-3 -16l-100 -31l-194 -938l88 -31l-2 -16h-379zM272 1094l246 221h29l158 -221l-19 -17l-180 113l-223 -113z" />
<glyph unicode="&#xef;" horiz-adv-x="526" d="M72 0l2 16l104 31l193 938l-90 31l4 16h377l-3 -16l-100 -31l-194 -938l88 -31l-2 -16h-379zM260 1190q9 44 45.5 73t81.5 29q44 0 67.5 -29t14.5 -73t-44 -73.5t-81 -29.5q-44 0 -68.5 29.5t-15.5 73.5zM545 1190q9 44 45 73t80 29q45 0 68.5 -28.5t15.5 -73.5 q-9 -44 -45 -73.5t-82 -29.5q-44 0 -67.5 29.5t-14.5 73.5z" />
<glyph unicode="&#xf0;" horiz-adv-x="1187" d="M70 0l2 14l102 25l96 471h-94l4 14l96 17l95 452l-92 25l4 14h489q232 0 345.5 -138.5t64.5 -377.5q-33 -159 -123 -276.5t-218 -178.5t-280 -61h-491zM365 33h200q144 0 254.5 120.5t159.5 360.5q49 241 -10 363t-203 122h-203l-94 -458h244l-6 -31h-244z" />
<glyph unicode="&#xf1;" horiz-adv-x="1132" d="M70 0l2 14l104 29l193 942l-90 31l4 16h295l407 -770l150 727l-91 29l3 14h227l-2 -14l-105 -29l-200 -989h-54l-514 969l-190 -926l90 -29l-2 -14h-227zM535 1135q94 79 144.5 110t82.5 31q29 0 79.5 -34t84.5 -34q29 0 70.5 17.5t78.5 48.5l17 -19q-177 -143 -234 -143 q-27 0 -80 35t-88 35q-57 0 -139 -64z" />
<glyph unicode="&#xf2;" horiz-adv-x="1239" d="M217 516q51 240 219.5 382t394.5 142q228 0 339.5 -142.5t62.5 -381.5q-51 -241 -220 -383.5t-397 -142.5q-227 0 -338 143t-61 383zM418 514q-51 -246 6.5 -374t196.5 -128q140 0 250 127.5t161 374.5q51 249 -6 376.5t-199 127.5q-139 0 -248.5 -128t-160.5 -376z M686 1217l119 98l162 -221l-19 -17z" />
<glyph unicode="&#xf3;" horiz-adv-x="1239" d="M217 516q51 240 219.5 382t394.5 142q228 0 339.5 -142.5t62.5 -381.5q-51 -241 -220 -383.5t-397 -142.5q-227 0 -338 143t-61 383zM418 514q-51 -246 6.5 -374t196.5 -128q140 0 250 127.5t161 374.5q51 249 -6 376.5t-199 127.5q-139 0 -248.5 -128t-160.5 -376z M723 1094l250 221l80 -98l-320 -140z" />
<glyph unicode="&#xf4;" horiz-adv-x="1239" d="M217 516q51 240 219.5 382t394.5 142q228 0 339.5 -142.5t62.5 -381.5q-51 -241 -220 -383.5t-397 -142.5q-227 0 -338 143t-61 383zM418 514q-51 -246 6.5 -374t196.5 -128q140 0 250 127.5t161 374.5q51 249 -6 376.5t-199 127.5q-139 0 -248.5 -128t-160.5 -376z M629 1094l245 221h29l158 -221l-21 -17l-178 113l-221 -113z" />
<glyph unicode="&#xf5;" horiz-adv-x="1239" d="M217 516q51 240 219.5 382t394.5 142q228 0 339.5 -142.5t62.5 -381.5q-51 -241 -220 -383.5t-397 -142.5q-227 0 -338 143t-61 383zM418 514q-51 -246 6.5 -374t196.5 -128q140 0 250 127.5t161 374.5q51 249 -6 376.5t-199 127.5q-139 0 -248.5 -128t-160.5 -376z M590 1135q94 79 144.5 110t82.5 31q27 0 77.5 -34t84.5 -34q31 0 72.5 17.5t78.5 48.5l15 -19q-173 -143 -234 -143q-26 0 -78.5 35t-89.5 35q-58 0 -137 -64z" />
<glyph unicode="&#xf6;" horiz-adv-x="1239" d="M217 516q51 240 219.5 382t394.5 142q228 0 339.5 -142.5t62.5 -381.5q-51 -241 -220 -383.5t-397 -142.5q-227 0 -338 143t-61 383zM418 514q-51 -246 6.5 -374t196.5 -128q140 0 250 127.5t161 374.5q51 249 -6 376.5t-199 127.5q-139 0 -248.5 -128t-160.5 -376z M590 1190q9 44 45 73t82 29q44 0 67.5 -29t14.5 -73t-45 -73.5t-80 -29.5q-46 0 -69.5 29.5t-14.5 73.5zM930 1190q9 44 45 73t80 29q46 0 69.5 -29t14.5 -73t-45 -73.5t-82 -29.5q-43 0 -67 29.5t-15 73.5z" />
<glyph unicode="&#xf7;" horiz-adv-x="919" d="M201 596l12 63h764l-14 -63h-762zM416 336q9 49 48 82t85 33q48 0 74 -33t16 -82q-9 -46 -48.5 -79.5t-88.5 -33.5q-45 0 -70 33.5t-16 79.5zM537 918q9 49 48 81.5t85 32.5q48 0 74 -32.5t16 -81.5q-9 -46 -48.5 -79.5t-88.5 -33.5q-46 0 -71.5 33.5t-14.5 79.5z" />
<glyph unicode="&#xf8;" horiz-adv-x="1239" d="M113 0l159 141q-104 142 -55 375q51 240 219.5 382t394.5 142q212 0 322 -122l129 114h57l-163 -143q104 -141 57 -373q-51 -241 -220 -383.5t-397 -142.5q-209 0 -321 121l-125 -111h-57zM397 252l650 571q-20 97 -77 146t-143 49q-139 0 -248.5 -128t-160.5 -376 q-34 -152 -21 -262zM403 207q20 -97 76 -146t142 -49q140 0 250 127.5t161 374.5q30 156 21 264z" />
<glyph unicode="&#xf9;" horiz-adv-x="1169" d="M244 383l125 602l-90 31l4 16h385l-4 -16l-103 -31l-125 -602q-31 -157 35 -241.5t201 -84.5q138 0 242.5 87t134.5 239l125 606l-91 29l2 14h228l-4 -14l-103 -29l-125 -606q-36 -181 -172.5 -287t-324.5 -106t-282 106.5t-58 286.5zM680 1217l117 98l164 -221l-21 -17z " />
<glyph unicode="&#xfa;" horiz-adv-x="1169" d="M244 383l125 602l-90 31l4 16h385l-4 -16l-103 -31l-125 -602q-31 -157 35 -241.5t201 -84.5q138 0 242.5 87t134.5 239l125 606l-91 29l2 14h228l-4 -14l-103 -29l-125 -606q-36 -181 -172.5 -287t-324.5 -106t-282 106.5t-58 286.5zM715 1094l252 221l80 -98l-320 -140 z" />
<glyph unicode="&#xfb;" horiz-adv-x="1169" d="M244 383l125 602l-90 31l4 16h385l-4 -16l-103 -31l-125 -602q-31 -157 35 -241.5t201 -84.5q138 0 242.5 87t134.5 239l125 606l-91 29l2 14h228l-4 -14l-103 -29l-125 -606q-36 -181 -172.5 -287t-324.5 -106t-282 106.5t-58 286.5zM618 1094l250 221h27l158 -221 l-21 -17l-176 113l-223 -113z" />
<glyph unicode="&#xfc;" horiz-adv-x="1169" d="M244 383l125 602l-90 31l4 16h385l-4 -16l-103 -31l-125 -602q-31 -157 35 -241.5t201 -84.5q138 0 242.5 87t134.5 239l125 606l-91 29l2 14h228l-4 -14l-103 -29l-125 -606q-36 -181 -172.5 -287t-324.5 -106t-282 106.5t-58 286.5zM584 1190q7 44 43 73t82 29 q44 0 67.5 -29t14.5 -73t-45 -73.5t-80 -29.5q-46 0 -69.5 29.5t-12.5 73.5zM922 1190q9 44 45 73t80 29q46 0 69 -29t14 -73t-44.5 -73.5t-79.5 -29.5t-68.5 29.5t-15.5 73.5z" />
<glyph unicode="&#xfd;" horiz-adv-x="1181" d="M262 1016l4 16h391l-4 -16l-104 -31l211 -496l422 496l-119 31l2 16h272l-2 -16l-116 -31l-449 -532l-84 -406l86 -31l-2 -16h-381l2 16l103 31l84 406l-230 532zM694 1094l252 221l80 -98l-319 -140z" />
<glyph unicode="&#xfe;" horiz-adv-x="1034" d="M70 0l2 16l104 31l193 938l-90 31l4 16h381l-5 -16l-98 -31l-33 -160h156q183 0 279 -79t67 -214q-27 -134 -155.5 -212t-311.5 -78h-112l-19 18l2 12h113q107 0 185 65.5t106 194.5q25 129 -25.5 196t-157.5 67h-133l-155 -748l147 -31l-2 -16h-442z" />
<glyph unicode="&#xff;" horiz-adv-x="1181" d="M262 1016l4 16h391l-4 -16l-104 -31l211 -496l422 496l-119 31l2 16h272l-2 -16l-116 -31l-449 -532l-84 -406l86 -31l-2 -16h-381l2 16l103 31l84 406l-230 532zM559 1190q9 44 45 73t82 29q44 0 68 -29t16 -73q-11 -44 -47 -73.5t-80 -29.5t-68.5 29.5t-15.5 73.5z M899 1190q9 44 45 73t82 29q44 0 67 -28.5t15 -73.5q-9 -44 -45 -73.5t-80 -29.5t-68.5 29.5t-15.5 73.5z" />
<glyph unicode="&#x13f;" horiz-adv-x="1189" d="M41 0l2 16l137 33l275 1325l-125 39l4 21h483l-4 -21l-139 -39l-275 -1333h559l138 209h34l-51 -250h-1038zM889 717q12 54 54.5 89.5t94.5 35.5q54 0 82.5 -35.5t18.5 -89.5t-54 -90.5t-98 -36.5q-52 0 -79.5 36.5t-18.5 90.5z" />
<glyph unicode="&#x140;" horiz-adv-x="974" d="M70 0l2 14l102 25l195 946l-90 31l4 16h385l-4 -16l-103 -31l-196 -952h393l106 155h27l-37 -188h-784zM707 516q9 41 43 69.5t75 28.5q44 0 65.5 -28t12.5 -70q-8 -42 -41.5 -70t-77.5 -28q-40 0 -63 28.5t-14 69.5z" />
<glyph unicode="&#x152;" horiz-adv-x="2023" d="M244 717q70 332 299 530.5t532 198.5q75 0 137 -12h979l-51 -252h-35l-51 211h-561l-131 -631h444l76 160h33l-76 -363h-31l-10 160h-444l-140 -678h582l137 209h35l-51 -250h-997q-71 -12 -146 -12q-304 0 -451 197t-79 532zM477 715q-69 -336 16.5 -516.5t288.5 -180.5 q129 0 234 105l248 1186q-64 106 -195 106q-203 0 -363 -181.5t-229 -518.5z" />
<glyph unicode="&#x153;" horiz-adv-x="1587" d="M217 516q51 240 219.5 382t394.5 142q64 0 105 -8h731l-37 -188h-26l-45 155h-396l-94 -450h313l60 119h22l-55 -271h-23l-10 119h-313l-100 -483h411l109 155h24l-37 -188h-743q-62 -10 -111 -10q-227 0 -338 143t-61 383zM418 514q-51 -246 6.5 -374t196.5 -128 q95 0 172 88l172 830q-43 88 -138 88q-139 0 -248.5 -128t-160.5 -376z" />
<glyph unicode="&#x178;" horiz-adv-x="1468" d="M307 1413l4 21h490l-4 -21l-140 -39l293 -706l592 706l-162 39l4 21h361l-4 -21l-152 -39l-626 -751l-117 -564l119 -39l-4 -20h-478l4 20l140 39l114 564l-315 751zM715 1647q11 56 55.5 93.5t99.5 37.5q56 0 86.5 -38t20.5 -93q-12 -57 -58 -95.5t-102 -38.5 q-55 0 -84.5 38.5t-17.5 95.5zM1169 1647q10 55 55 93t101 38q55 0 85.5 -37.5t19.5 -93.5q-12 -57 -57.5 -95.5t-100.5 -38.5q-56 0 -85.5 38.5t-17.5 95.5z" />
<glyph unicode="&#x2c6;" horiz-adv-x="743" d="M319 1153l332 289h31l213 -289l-25 -23l-235 158l-297 -158z" />
<glyph unicode="&#x2dc;" horiz-adv-x="837" d="M326 1206q119 100 181.5 139t104.5 39q33 0 68.5 -23.5t73 -47t75.5 -23.5t92 25.5t105 66.5l18 -24q-219 -182 -299 -182q-30 0 -66 23.5t-74.5 47t-76.5 23.5q-80 0 -184 -88z" />
<glyph unicode="&#x2000;" horiz-adv-x="929" />
<glyph unicode="&#x2001;" horiz-adv-x="1858" />
<glyph unicode="&#x2002;" horiz-adv-x="929" />
<glyph unicode="&#x2003;" horiz-adv-x="1858" />
<glyph unicode="&#x2004;" horiz-adv-x="619" />
<glyph unicode="&#x2005;" horiz-adv-x="464" />
<glyph unicode="&#x2006;" horiz-adv-x="309" />
<glyph unicode="&#x2007;" horiz-adv-x="309" />
<glyph unicode="&#x2008;" horiz-adv-x="232" />
<glyph unicode="&#x2009;" horiz-adv-x="371" />
<glyph unicode="&#x200a;" horiz-adv-x="103" />
<glyph unicode="&#x2010;" horiz-adv-x="614" d="M193 559l12 62h459l-13 -62h-458z" />
<glyph unicode="&#x2011;" horiz-adv-x="614" d="M193 559l12 62h459l-13 -62h-458z" />
<glyph unicode="&#x2012;" horiz-adv-x="614" d="M193 559l12 62h459l-13 -62h-458z" />
<glyph unicode="&#x2013;" horiz-adv-x="1019" d="M193 559l12 62h864l-12 -62h-864z" />
<glyph unicode="&#x2014;" horiz-adv-x="1423" d="M193 559l12 62h1268l-13 -62h-1267z" />
<glyph unicode="&#x2018;" horiz-adv-x="411" d="M307 1102q8 39 32 81t49.5 75t66 73t64 60.5t61.5 52.5l18 -25q-52 -43 -95.5 -99.5t-51.5 -88.5q-3 -15 4 -25q53 0 81.5 -34t18.5 -87t-53 -87.5t-96 -34.5q-52 0 -82 35.5t-17 103.5z" />
<glyph unicode="&#x2019;" horiz-adv-x="411" d="M309 987q52 44 96 101t50 88q3 13 -2 22q-53 0 -82 35t-19 88t53.5 88t96.5 35q52 0 81.5 -35.5t16.5 -103.5q-10 -48 -40 -98t-74.5 -97t-78.5 -78.5t-79 -68.5z" />
<glyph unicode="&#x201a;" horiz-adv-x="411" d="M59 -213q54 44 98 101t50 89q3 14 -2 23q-53 0 -82 34.5t-19 86.5q10 54 53.5 89.5t96.5 35.5q51 0 81 -36.5t17 -103.5q-10 -48 -40 -98t-75.5 -98.5t-78 -78.5t-78.5 -69z" />
<glyph unicode="&#x201c;" horiz-adv-x="737" d="M307 1102q8 39 32 81t49.5 75t66 73t64 60.5t61.5 52.5l18 -25q-52 -43 -95.5 -99.5t-51.5 -88.5q-3 -15 4 -25q53 0 81.5 -34t18.5 -87t-53 -87.5t-96 -34.5q-52 0 -82 35.5t-17 103.5zM635 1102q10 48 39.5 97.5t74.5 97.5t77.5 78t78.5 69l19 -25q-52 -44 -96 -100.5 t-50 -87.5q-3 -17 2 -25q53 0 82 -34t19 -87t-53.5 -87.5t-96.5 -34.5q-52 0 -81 35.5t-15 103.5z" />
<glyph unicode="&#x201d;" horiz-adv-x="737" d="M309 987q52 44 96 101t50 88q3 13 -2 22q-53 0 -82 35t-19 88t53.5 88t96.5 35q52 0 81.5 -35.5t16.5 -103.5q-10 -48 -40 -98t-74.5 -97t-78.5 -78.5t-79 -68.5zM637 987q51 43 94 100t51 89q3 15 -4 22q-53 0 -80.5 34.5t-17.5 88.5t52 88.5t95 34.5t82.5 -35.5 t16.5 -103.5q-30 -142 -273 -342z" />
<glyph unicode="&#x201e;" horiz-adv-x="737" d="M59 -213q54 44 98 101t50 89q3 14 -2 23q-53 0 -82 34.5t-19 86.5q10 54 53.5 89.5t96.5 35.5q51 0 81 -36.5t17 -103.5q-10 -48 -40 -98t-75.5 -98.5t-78 -78.5t-78.5 -69zM387 -213q53 45 97 101.5t48 88.5q3 16 0 23q-54 0 -82.5 34t-17.5 87q10 54 52.5 89.5 t95.5 35.5t82 -36.5t16 -103.5q-10 -48 -40 -98t-75.5 -98.5t-78 -78.5t-78.5 -69z" />
<glyph unicode="&#x2022;" horiz-adv-x="485" d="M190 614q15 76 78 128.5t138 52.5q76 0 116 -52t25 -129t-77 -128.5t-138 -51.5t-117.5 52t-24.5 128z" />
<glyph unicode="&#x2026;" horiz-adv-x="1218" d="M102 119q12 54 55.5 90.5t96.5 36.5q54 0 82.5 -36.5t17.5 -90.5t-54 -90.5t-97 -36.5q-52 0 -81 36.5t-20 90.5zM506 119q12 54 54.5 90.5t96.5 36.5t82.5 -36.5t16.5 -90.5q-11 -54 -53.5 -90.5t-96.5 -36.5q-53 0 -81 36t-19 91zM909 119q10 54 53.5 90.5t96.5 36.5 q54 0 83 -36.5t17 -90.5q-11 -54 -54 -90.5t-97 -36.5q-53 0 -81 36.5t-18 90.5z" />
<glyph unicode="&#x202f;" horiz-adv-x="371" />
<glyph unicode="&#x2039;" horiz-adv-x="522" d="M190 557l7 33l393 315l16 -20l-260 -312l131 -311l-24 -20z" />
<glyph unicode="&#x203a;" horiz-adv-x="522" d="M150 262l262 311l-133 312l26 20l260 -315l-6 -33l-391 -315z" />
<glyph unicode="&#x2044;" horiz-adv-x="700" d="M4 0l918 1434h67l-917 -1434h-68z" />
<glyph unicode="&#x205f;" horiz-adv-x="464" />
<glyph unicode="&#x20ac;" horiz-adv-x="1138" d="M164 399l12 50h27q3 29 12 67q3 20 16 68h-28l10 49h35q73 190 231 298.5t361 108.5q190 0 297 -82h77l-38 -190h-25q-3 59 -24 103t-50 69t-68 40t-71.5 19.5t-67.5 4.5q-145 0 -255 -93.5t-169 -277.5h506l-10 -49h-510q-5 -16 -14 -62q-9 -42 -12 -73h509l-12 -50 h-502q-9 -168 66.5 -261t243.5 -93q190 0 325 113l17 -17q-186 -151 -422 -151q-209 0 -322.5 108.5t-107.5 300.5h-37z" />
<glyph unicode="&#x2122;" horiz-adv-x="1660" d="M309 1303l27 131h627l-27 -131h-18l-29 108h-178l-138 -663l62 -19l-2 -12h-262l2 12l69 19l138 663h-181l-73 -108h-17zM858 717l2 8l70 20l182 656l-61 20l2 13h172l127 -584l362 584h168l-2 -13l-68 -20l-90 -653l60 -19l-2 -12h-258l2 12l67 19l80 579l-381 -610h-41 l-135 612l-162 -584l60 -20l-2 -8h-152z" />
<glyph unicode="&#x25fc;" horiz-adv-x="1034" d="M0 0v1034h1034v-1034h-1034z" />
<glyph unicode="&#xf724;" horiz-adv-x="978" d="M127 57l37 189h29q3 -56 22 -99.5t46 -68t63.5 -39.5t68.5 -20t66 -5l94 424q-136 42 -187 73q-115 71 -93 212q1 9 3 18q28 133 132 215.5t280 83.5l14 66h37l-14 -66q121 -6 217 -65h78l-39 -189h-27q-2 67 -25.5 114.5t-61 71t-73 34t-75.5 12.5l-86 -393h4 q34 -11 57 -19.5t53.5 -21t51 -23.5t44.5 -27t38 -32.5t28 -38.5t19 -46t5 -54t-7 -64q-28 -137 -136.5 -220t-297.5 -87l-15 -66h-37l15 66q-150 6 -248 65h-80zM442 819q-16 -74 22 -111.5t134 -70.5l84 379q-94 -6 -158 -60t-82 -137zM496 14q106 8 176.5 64t89.5 151 q8 25 5.5 46.5t-5.5 37.5t-16.5 30.5t-26.5 25t-35.5 21t-44 18.5t-51.5 18z" />
<glyph unicode="&#xf730;" horiz-adv-x="1073" d="M217 516q51 239 197.5 381.5t335.5 142.5q188 0 276.5 -142.5t38.5 -381.5q-49 -240 -195.5 -382t-334.5 -142q-190 0 -279 142t-39 382zM384 233.5q7 -111.5 46.5 -165.5t108.5 -54q104 0 193 127.5t140 374.5q48 255 12.5 378.5t-139.5 123.5q-105 0 -193.5 -127.5 t-139.5 -374.5q-35 -171 -28 -282.5z" />
<glyph unicode="&#xf731;" horiz-adv-x="643" d="M109 0l2 16l133 31l190 924h-143l6 24l313 47l19 -20l-201 -975l119 -31l-2 -16h-436z" />
<glyph unicode="&#xf732;" horiz-adv-x="886" d="M92 0l12 66q242 188 326 262q223 197 295 373q22 52 33 106q22 101 -12.5 155t-120.5 54q-64 0 -123 -37l-29 -145q-10 -53 -45.5 -83t-83.5 -30q-45 0 -68.5 27t-13.5 77q20 95 127.5 154t251.5 59q168 0 247 -66.5t52 -195.5q-11 -53 -40 -107t-64.5 -100t-93 -97.5 t-108 -91t-127 -90.5t-131.5 -85t-140 -86h493l88 141h25l-51 -260h-699z" />
<glyph unicode="&#xf733;" horiz-adv-x="985" d="M162 199q10 49 44.5 76.5t80.5 27.5q47 0 70 -30t14 -83l-29 -137q44 -33 117 -33q103 0 178.5 62.5t99.5 181.5q27 128 -33.5 189t-189.5 61h-65l6 31h63q237 0 285 237q24 111 -14.5 169.5t-120.5 58.5q-73 0 -129 -31l-29 -137q-9 -53 -44.5 -83t-82.5 -30 q-44 0 -67.5 27.5t-14.5 77.5q11 51 52.5 92t99.5 65t121.5 36.5t125.5 12.5q158 0 236 -70.5t53 -191.5q-20 -97 -96.5 -160.5t-196.5 -87.5q127 -22 189 -90.5t41 -173.5q-26 -126 -146.5 -201t-292.5 -75q-65 0 -125.5 12.5t-110 37t-74.5 66t-15 93.5z" />
<glyph unicode="&#xf734;" horiz-adv-x="968" d="M156 221l6 23q181 241 281.5 419.5t138.5 368.5h184q-22 -109 -72 -211.5t-128.5 -200t-162.5 -181t-202 -185.5h420l69 332l195 162l16 -21l-96 -473h106l-8 -33h-106l-35 -174l84 -31l-2 -16h-365l2 16l97 31l36 174h-458z" />
<glyph unicode="&#xf735;" horiz-adv-x="925" d="M152 186q10 50 44 77.5t80 27.5q47 0 69.5 -30t12.5 -83l-26 -131q47 -33 106 -33q96 0 163 76t95 211q30 139 -18 218t-178 79q-110 0 -189 -53l-18 18l141 465q328 0 529 27l-31 -146h-473l-137 -331q110 61 256 61q185 0 263 -87t48 -235q-31 -151 -149 -238t-300 -87 q-85 0 -153 20t-108 65.5t-27 108.5z" />
<glyph unicode="&#xf736;" horiz-adv-x="974" d="M203 457q56 269 248.5 414t496.5 169l13 -16q-237 -45 -365 -163.5t-184 -307.5q95 72 231 72q158 0 237 -86t50 -230q-31 -144 -146.5 -230.5t-277.5 -86.5q-194 0 -270.5 124.5t-32.5 340.5zM369.5 299.5q-5.5 -82.5 4.5 -147.5t41.5 -101.5t82.5 -36.5q84 0 150 79.5 t95 217.5q27 131 -13 207t-130 76q-61 0 -116 -30.5t-89 -82.5q-20 -99 -25.5 -181.5z" />
<glyph unicode="&#xf737;" horiz-adv-x="913" d="M270 768l56 264h678l-7 -22q-52 -98 -143.5 -252t-151.5 -257.5t-120 -241.5t-84 -259h-185q22 109 69 208.5t112 186t130.5 162t146.5 172.5t138 180h-518l-94 -141h-27z" />
<glyph unicode="&#xf738;" horiz-adv-x="960" d="M158 238q20 99 92.5 159t187.5 103q-32 15 -55 30t-44 37t-29.5 47t-12 59.5t7.5 76.5q25 130 122.5 210t274.5 80q155 0 221.5 -64.5t43.5 -172.5q-20 -90 -79.5 -145t-148.5 -91q33 -15 57.5 -29t48.5 -32.5t37.5 -38.5t24.5 -47t9.5 -58t-7.5 -71 q-27 -136 -136.5 -217.5t-311.5 -81.5q-178 0 -252.5 66t-50.5 180zM309 256q-52 -242 172 -242q112 0 184.5 56.5t92.5 156.5q6 26 6.5 47.5t-4.5 39.5t-12.5 32.5t-23 27.5t-30.5 23t-39.5 20.5t-46 18.5t-53.5 19l-82 30q-66 -38 -105.5 -88.5t-58.5 -140.5zM453 823 q-19 -85 24 -128t162 -87l47 -18q56 37 89 84.5t48 118.5q22 108 -13.5 166.5t-125.5 58.5t-151.5 -54t-79.5 -141z" />
<glyph unicode="&#xf739;" horiz-adv-x="972" d="M199 8q133 20 231 61t163.5 104t106.5 135.5t70 170.5q-95 -69 -227 -69q-157 0 -236.5 83.5t-50.5 223.5q31 147 149 235t283 88q190 0 265 -121t30 -337q-58 -283 -258.5 -425.5t-513.5 -162.5zM436 715q-27 -129 13.5 -202t130.5 -73q127 0 208 111q21 99 27 181 t-2.5 147.5t-39 102t-81.5 36.5q-89 0 -158.5 -82.5t-97.5 -220.5z" />
<glyph horiz-adv-x="2408" d="M309 1182l53 252h1168l317 47l21 -27l-88 -430l-45 -186l4 -7q91 96 208.5 148.5t217.5 52.5q149 0 202.5 -93t18.5 -259l-109 -533q-17 -75 41 -75q49 0 123 67l13 -16q-74 -61 -153 -97t-138 -36t-88.5 33.5t-16.5 99.5l109 522q64 316 -119 316q-68 0 -159 -51.5 t-160 -137.5l-160 -772h-187l-20 27l280 1366h-563l-276 -1334l123 -39l-2 -20h-484l4 20l140 39l274 1334h-377l-137 -211h-35z" />
<glyph d="M55 0l2 16l111 31l641 985h57l219 -985l91 -31l-2 -16h-392l2 16l105 31l-62 287h-438l-186 -287l127 -31l-2 -16h-273zM412 367h407l-100 473z" />
<glyph d="M55 0l2 16l111 31l641 985h57l219 -985l91 -31l-2 -16h-392l2 16l105 31l-62 287h-438l-186 -287l127 -31l-2 -16h-273zM412 367h407l-100 473zM725 1094l252 221l80 -98l-320 -140z" />
<glyph d="M55 0l2 16l111 31l641 985h57l219 -985l91 -31l-2 -16h-392l2 16l105 31l-62 287h-438l-186 -287l127 -31l-2 -16h-273zM412 367h407l-100 473zM631 1094l248 221h26l158 -221l-19 -17l-180 113l-221 -113z" />
<glyph d="M55 0l2 16l111 31l641 985h57l219 -985l91 -31l-2 -16h-392l2 16l105 31l-62 287h-438l-186 -287l127 -31l-2 -16h-273zM412 367h407l-100 473zM690 1217l117 98l164 -221l-21 -17z" />
<glyph d="M55 0l2 16l111 31l641 985h57l219 -985l91 -31l-2 -16h-392l2 16l105 31l-62 287h-438l-186 -287l127 -31l-2 -16h-273zM412 367h407l-100 473zM592 1190q9 44 45 73t80 29q45 0 68.5 -28.5t15.5 -73.5q-11 -45 -46 -74t-79 -29q-46 0 -69.5 29.5t-14.5 73.5zM932 1190 q9 44 45 73t80 29q45 0 69 -29t15 -73t-45 -73.5t-82 -29.5q-44 0 -67.5 29.5t-14.5 73.5z" />
<glyph d="M55 0l2 16l111 31l641 985h57l219 -985l91 -31l-2 -16h-392l2 16l105 31l-62 287h-438l-186 -287l127 -31l-2 -16h-273zM412 367h407l-100 473zM739 1192q10 56 52.5 88.5t99.5 32.5q59 0 86.5 -32t17.5 -89q-12 -55 -54 -88t-99 -33q-56 0 -85.5 33t-17.5 88zM805 1192 q-9 -39 3.5 -63.5t39.5 -24.5q28 0 50.5 24t31.5 64q8 42 -4 66t-41 24q-27 0 -50 -25t-30 -65z" />
<glyph d="M55 0l2 16l111 31l641 985h57l219 -985l91 -31l-2 -16h-392l2 16l105 31l-62 287h-438l-186 -287l127 -31l-2 -16h-273zM412 367h407l-100 473zM592 1135q95 80 144.5 110.5t82.5 30.5q27 0 77.5 -34t84.5 -34q31 0 72.5 17.5t76.5 48.5l17 -19q-177 -143 -234 -143 q-26 0 -78.5 35t-89.5 35q-57 0 -139 -64z" />
<glyph horiz-adv-x="1345" d="M55 0l2 16l111 31l631 985h628l-38 -188h-25l-45 155h-426l-16 -450h266l57 119h25l-56 -271h-22l-10 119h-260l-19 -483h277l106 155h27l-37 -188h-658l2 14l101 25l12 295h-303l-182 -287l127 -31l-2 -16h-273zM408 367h282l19 473z" />
<glyph horiz-adv-x="1087" d="M70 0l2 14l102 25l197 954l-92 25l4 14h495q164 0 252 -69t64 -187q-20 -95 -98.5 -159.5t-196.5 -86.5q128 -22 190 -90.5t41 -169.5q-26 -126 -152.5 -198t-310.5 -72h-497zM365 33h174q113 0 193 60t104 177q25 121 -30 182.5t-169 61.5h-174zM469 545h174 q95 0 163.5 57t92.5 170t-21.5 170t-140.5 57h-174z" />
<glyph horiz-adv-x="1138" d="M217 516q51 241 220.5 382.5t402.5 141.5q186 0 290 -82l78 39l13 -16l-43 -213h-27q-2 59 -23 103t-50 68.5t-68 40t-71.5 20t-66.5 4.5q-168 0 -286 -121.5t-166 -360.5q-45 -222 25 -349.5t266 -127.5q189 0 327 113l15 -17q-183 -151 -422 -151t-352 142t-62 384z " />
<glyph horiz-adv-x="1138" d="M217 516q51 241 220.5 382.5t402.5 141.5q186 0 290 -82l78 39l13 -16l-43 -213h-27q-2 59 -23 103t-50 68.5t-68 40t-71.5 20t-66.5 4.5q-168 0 -286 -121.5t-166 -360.5q-45 -222 25 -349.5t266 -127.5q189 0 327 113l15 -17q-178 -145 -404 -151l-51 -62 q132 0 119 -71q-15 -69 -191 -201l-8 10q79 68 90 117q6 29 -18 40t-94 11l127 156q-236 3 -346.5 144.5t-59.5 381.5z" />
<glyph horiz-adv-x="1187" d="M70 0l2 14l102 25l197 954l-92 25l4 14h489q232 0 345.5 -138.5t64.5 -377.5q-33 -159 -123 -276.5t-218 -178.5t-280 -61h-491zM365 33h200q144 0 254.5 120.5t159.5 360.5q49 241 -10 363t-203 122h-203z" />
<glyph horiz-adv-x="1187" d="M70 0l2 14l102 25l96 471h-94l4 14l96 17l95 452l-92 25l4 14h489q232 0 345.5 -138.5t64.5 -377.5q-33 -159 -123 -276.5t-218 -178.5t-280 -61h-491zM365 33h200q144 0 254.5 120.5t159.5 360.5q49 241 -10 363t-203 122h-203l-94 -458h244l-6 -31h-244z" />
<glyph horiz-adv-x="1034" d="M70 0l2 16l104 31l193 938l-90 31l4 16h381l-5 -16l-98 -31l-33 -160h156q183 0 279 -79t67 -214q-27 -134 -155.5 -212t-311.5 -78h-112l-19 18l2 12h113q107 0 185 65.5t106 194.5q25 129 -25.5 196t-157.5 67h-133l-155 -748l147 -31l-2 -16h-442z" />
<glyph horiz-adv-x="1021" d="M70 0l2 14l102 25l197 954l-92 25l4 14h821l-39 -188h-25l-47 155h-430l-92 -450h348l58 119h24l-55 -271h-25l-8 119h-348l-100 -483h444l109 155h26l-37 -188h-837z" />
<glyph horiz-adv-x="1021" d="M70 0l2 14l102 25l197 954l-92 25l4 14h821l-39 -188h-25l-47 155h-430l-92 -450h348l58 119h24l-55 -271h-25l-8 119h-348l-100 -483h444l109 155h26l-37 -188h-837zM612 1094l252 221l78 -98l-317 -140z" />
<glyph horiz-adv-x="1021" d="M70 0l2 14l102 25l197 954l-92 25l4 14h821l-39 -188h-25l-47 155h-430l-92 -450h348l58 119h24l-55 -271h-25l-8 119h-348l-100 -483h444l109 155h26l-37 -188h-837zM518 1094l250 221h27l157 -221l-20 -17l-178 113l-222 -113z" />
<glyph horiz-adv-x="1021" d="M70 0l2 14l102 25l197 954l-92 25l4 14h821l-39 -188h-25l-47 155h-430l-92 -450h348l58 119h24l-55 -271h-25l-8 119h-348l-100 -483h444l109 155h26l-37 -188h-837zM481 1190q7 44 44 73t83 29q43 0 67 -29t15 -73t-45.5 -73.5t-79.5 -29.5q-46 0 -69.5 29.5 t-14.5 73.5zM821 1190q9 45 44.5 73.5t82.5 28.5q44 0 67 -28.5t15 -73.5q-11 -45 -46 -74t-79 -29q-46 0 -69.5 29.5t-14.5 73.5z" />
<glyph horiz-adv-x="1021" d="M70 0l2 14l102 25l197 954l-92 25l4 14h821l-39 -188h-25l-47 155h-430l-92 -450h348l58 119h24l-55 -271h-25l-8 119h-348l-100 -483h444l109 155h26l-37 -188h-837zM578 1217l118 98l162 -221l-18 -17z" />
<glyph horiz-adv-x="985" d="M70 0l2 16l104 31l195 946l-92 25l4 14h798l-39 -188h-24l-45 155h-410l-92 -450h313l60 119h22l-55 -271h-23l-10 119h-313l-98 -469l137 -31l-2 -16h-432z" />
<glyph horiz-adv-x="1212" d="M217 516q51 242 222 383t407 141q188 0 289 -82l79 39l13 -16l-43 -213h-25q-3 59 -24.5 103t-51 68.5t-69.5 40t-72.5 20t-67.5 4.5q-171 0 -288.5 -122t-167.5 -368q-24 -106 -19.5 -194.5t33 -152t89 -99t147.5 -35.5q117 0 206 55l76 365l-90 28l4 19h379l-2 -19 l-100 -28l-84 -404l-25 -20l-90 32q-139 -71 -307 -71q-242 0 -355.5 142t-62.5 384z" />
<glyph horiz-adv-x="1220" d="M70 0l2 16l104 31l193 938l-90 31l4 16h385l-4 -16l-103 -31l-92 -444h504l92 444l-90 31l2 16h387l-4 -16l-105 -31l-192 -938l90 -31l-2 -16h-385l2 16l102 31l97 463h-504l-96 -463l92 -31l-2 -16h-387z" />
<glyph horiz-adv-x="526" d="M70 0l4 16l102 31l193 938l-90 31l4 16h379l-3 -16l-100 -31l-194 -938l88 -31l-2 -16h-381z" />
<glyph horiz-adv-x="526" d="M70 0l4 16l102 31l193 938l-90 31l4 16h379l-3 -16l-100 -31l-194 -938l88 -31l-2 -16h-381zM365 1094l251 221l80 -98l-319 -140z" />
<glyph horiz-adv-x="526" d="M72 0l2 16l104 31l193 938l-90 31l4 16h377l-3 -16l-100 -31l-194 -938l88 -31l-2 -16h-379zM272 1094l246 221h29l158 -221l-19 -17l-180 113l-223 -113z" />
<glyph horiz-adv-x="526" d="M72 0l2 16l104 31l193 938l-90 31l4 16h377l-3 -16l-100 -31l-194 -938l88 -31l-2 -16h-379zM260 1190q9 44 45.5 73t81.5 29q44 0 67.5 -29t14.5 -73t-44 -73.5t-81 -29.5q-44 0 -68.5 29.5t-15.5 73.5zM545 1190q9 44 45 73t80 29q45 0 68.5 -28.5t15.5 -73.5 q-9 -44 -45 -73.5t-82 -29.5q-44 0 -67.5 29.5t-14.5 73.5z" />
<glyph horiz-adv-x="526" d="M70 0l4 16l102 31l193 938l-90 31l4 16h379l-3 -16l-100 -31l-194 -938l88 -31l-2 -16h-381zM401 1214q9 46 48 77.5t86 31.5q46 0 70.5 -31.5t15.5 -77.5q-10 -47 -48 -78.5t-84 -31.5q-47 0 -72.5 31.5t-15.5 78.5z" />
<glyph horiz-adv-x="526" d="M70 0l4 16l102 31l193 938l-90 31l4 16h379l-3 -16l-100 -31l-194 -938l88 -31l-2 -16h-381zM330 1217l119 98l161 -221l-18 -17z" />
<glyph horiz-adv-x="526" d="M16 -287q119 136 158 318l197 954l-90 31l2 16h379l-5 -16l-98 -31l-197 -954q-24 -110 -106.5 -188.5t-226.5 -145.5z" />
<glyph horiz-adv-x="1144" d="M66 0l2 16l104 31l193 938l-91 31l5 16h385l-5 -16l-102 -31l-106 -508l596 508l-119 31l2 16h282l-4 -16l-116 -31l-369 -315l278 -627l84 -27l-2 -16h-270l-246 543l-125 -109l-80 -387l93 -31l-2 -16h-387z" />
<glyph horiz-adv-x="974" d="M70 0l2 14l102 25l195 946l-90 31l4 16h385l-4 -16l-103 -31l-196 -952h393l106 155h27l-37 -188h-784z" />
<glyph horiz-adv-x="974" d="M70 0l2 14l102 25l195 946l-90 31l4 16h385l-4 -16l-103 -31l-196 -952h393l106 155h27l-37 -188h-784zM707 516q9 41 43 69.5t75 28.5q44 0 65.5 -28t12.5 -70q-8 -42 -41.5 -70t-77.5 -28q-40 0 -63 28.5t-14 69.5z" />
<glyph horiz-adv-x="1484" d="M61 0l2 14l105 29l260 942l-90 31l4 16h254l190 -839l537 839h244l-4 -16l-101 -31l-125 -938l88 -31l-2 -16h-381l2 16l103 31l110 832l-559 -879h-57l-207 879l-233 -836l84 -29v-14h-224z" />
<glyph horiz-adv-x="1132" d="M70 0l2 14l104 29l193 942l-90 31l4 16h295l407 -770l150 727l-91 29l3 14h227l-2 -14l-105 -29l-200 -989h-54l-514 969l-190 -926l90 -29l-2 -14h-227z" />
<glyph horiz-adv-x="1132" d="M70 0l2 14l104 29l193 942l-90 31l4 16h295l407 -770l150 727l-91 29l3 14h227l-2 -14l-105 -29l-200 -989h-54l-514 969l-190 -926l90 -29l-2 -14h-227zM535 1135q94 79 144.5 110t82.5 31q29 0 79.5 -34t84.5 -34q29 0 70.5 17.5t78.5 48.5l17 -19q-177 -143 -234 -143 q-27 0 -80 35t-88 35q-57 0 -139 -64z" />
<glyph horiz-adv-x="1239" d="M217 516q51 240 219.5 382t394.5 142q228 0 339.5 -142.5t62.5 -381.5q-51 -241 -220 -383.5t-397 -142.5q-227 0 -338 143t-61 383zM418 514q-51 -246 6.5 -374t196.5 -128q140 0 250 127.5t161 374.5q51 249 -6 376.5t-199 127.5q-139 0 -248.5 -128t-160.5 -376z" />
<glyph horiz-adv-x="1239" d="M217 516q51 240 219.5 382t394.5 142q228 0 339.5 -142.5t62.5 -381.5q-51 -241 -220 -383.5t-397 -142.5q-227 0 -338 143t-61 383zM418 514q-51 -246 6.5 -374t196.5 -128q140 0 250 127.5t161 374.5q51 249 -6 376.5t-199 127.5q-139 0 -248.5 -128t-160.5 -376z M723 1094l250 221l80 -98l-320 -140z" />
<glyph horiz-adv-x="1239" d="M217 516q51 240 219.5 382t394.5 142q228 0 339.5 -142.5t62.5 -381.5q-51 -241 -220 -383.5t-397 -142.5q-227 0 -338 143t-61 383zM418 514q-51 -246 6.5 -374t196.5 -128q140 0 250 127.5t161 374.5q51 249 -6 376.5t-199 127.5q-139 0 -248.5 -128t-160.5 -376z M629 1094l245 221h29l158 -221l-21 -17l-178 113l-221 -113z" />
<glyph horiz-adv-x="1239" d="M217 516q51 240 219.5 382t394.5 142q228 0 339.5 -142.5t62.5 -381.5q-51 -241 -220 -383.5t-397 -142.5q-227 0 -338 143t-61 383zM418 514q-51 -246 6.5 -374t196.5 -128q140 0 250 127.5t161 374.5q51 249 -6 376.5t-199 127.5q-139 0 -248.5 -128t-160.5 -376z M590 1190q9 44 45 73t82 29q44 0 67.5 -29t14.5 -73t-45 -73.5t-80 -29.5q-46 0 -69.5 29.5t-14.5 73.5zM930 1190q9 44 45 73t80 29q46 0 69.5 -29t14.5 -73t-45 -73.5t-82 -29.5q-43 0 -67 29.5t-15 73.5z" />
<glyph horiz-adv-x="1239" d="M217 516q51 240 219.5 382t394.5 142q228 0 339.5 -142.5t62.5 -381.5q-51 -241 -220 -383.5t-397 -142.5q-227 0 -338 143t-61 383zM418 514q-51 -246 6.5 -374t196.5 -128q140 0 250 127.5t161 374.5q51 249 -6 376.5t-199 127.5q-139 0 -248.5 -128t-160.5 -376z M686 1217l119 98l162 -221l-19 -17z" />
<glyph horiz-adv-x="1239" d="M113 0l159 141q-104 142 -55 375q51 240 219.5 382t394.5 142q212 0 322 -122l129 114h57l-163 -143q104 -141 57 -373q-51 -241 -220 -383.5t-397 -142.5q-209 0 -321 121l-125 -111h-57zM397 252l650 571q-20 97 -77 146t-143 49q-139 0 -248.5 -128t-160.5 -376 q-34 -152 -21 -262zM403 207q20 -97 76 -146t142 -49q140 0 250 127.5t161 374.5q30 156 21 264z" />
<glyph horiz-adv-x="1239" d="M217 516q51 240 219.5 382t394.5 142q228 0 339.5 -142.5t62.5 -381.5q-51 -241 -220 -383.5t-397 -142.5q-227 0 -338 143t-61 383zM418 514q-51 -246 6.5 -374t196.5 -128q140 0 250 127.5t161 374.5q51 249 -6 376.5t-199 127.5q-139 0 -248.5 -128t-160.5 -376z M590 1135q94 79 144.5 110t82.5 31q27 0 77.5 -34t84.5 -34q31 0 72.5 17.5t78.5 48.5l15 -19q-173 -143 -234 -143q-26 0 -78.5 35t-89.5 35q-58 0 -137 -64z" />
<glyph horiz-adv-x="1587" d="M217 516q51 240 219.5 382t394.5 142q64 0 105 -8h731l-37 -188h-26l-45 155h-396l-94 -450h313l60 119h22l-55 -271h-23l-10 119h-313l-100 -483h411l109 155h24l-37 -188h-743q-62 -10 -111 -10q-227 0 -338 143t-61 383zM418 514q-51 -246 6.5 -374t196.5 -128 q95 0 172 88l172 830q-43 88 -138 88q-139 0 -248.5 -128t-160.5 -376z" />
<glyph horiz-adv-x="1034" d="M70 0l2 16l104 31l195 946l-92 25l4 14h444q182 0 277.5 -80t68.5 -217q-29 -135 -158 -215t-311 -80h-112l-17 23v8h113q107 0 185.5 67t105.5 197q27 131 -23.5 197.5t-159.5 66.5h-133l-196 -952l147 -31l-2 -16h-442z" />
<glyph horiz-adv-x="1241" d="M217 514q51 241 219.5 383.5t394.5 142.5q228 0 339.5 -142.5t62.5 -381.5q-40 -199 -168 -332t-305 -174q36 -14 76 -39.5t67.5 -46.5t65 -37t75.5 -16q76 0 119 35l13 -12q-108 -87 -244 -87q-54 0 -100 10t-92.5 36t-69 41t-73 56t-62.5 50q-189 25 -275.5 162.5 t-42.5 351.5zM418 514q-50 -247 7.5 -369t197.5 -122q141 0 249.5 123t159.5 368q51 247 -6 375.5t-197 128.5t-250 -128t-161 -376z" />
<glyph horiz-adv-x="1101" d="M70 0l2 16l104 31l195 946l-92 25l4 14h465q172 0 262 -75t63 -205q-23 -106 -109.5 -177t-213.5 -90q33 -11 52 -37.5t36 -70.5l118 -334l86 -27l-2 -16h-262l-170 477h-153l-88 -430l92 -31l-2 -16h-387zM463 508h155q96 0 166 62t95 184q24 122 -20 183.5t-140 61.5 h-156z" />
<glyph horiz-adv-x="978" d="M129 29l43 217h29q2 -57 21 -100.5t46 -67.5t64 -39t68.5 -20t66.5 -5q117 0 196 57t99 158q5 24 5.5 44t-5.5 36.5t-13.5 29.5t-23.5 25t-31 21t-40 19t-46.5 17t-54.5 17q-136 42 -188 74q-113 71 -89 214q1 7 3 15q26 134 131.5 216.5t281.5 82.5q143 0 238 -65l76 43 l12 -14l-43 -218h-29q-3 68 -27.5 117t-62 72t-73.5 33t-74 10q-103 0 -175.5 -55.5t-91.5 -143.5q-4 -20 -4 -37t2.5 -31t11 -26.5t16.5 -22t24 -19t28.5 -16t35 -15t38.5 -13.5t43 -14q37 -13 57.5 -20t53 -20.5t51 -24t44 -27t38.5 -32t27.5 -38t19.5 -46t5 -54t-7 -64.5 q-28 -139 -141 -223t-308 -84q-155 0 -258 65l-80 -45z" />
<glyph horiz-adv-x="1105" d="M262 844l39 188h928l-39 -188h-27l-45 155h-264l-197 -952l91 -31l-3 -16h-385l2 16l105 31l197 952h-267l-108 -155h-27z" />
<glyph horiz-adv-x="1169" d="M244 383l125 602l-90 31l4 16h385l-4 -16l-103 -31l-125 -602q-31 -157 35 -241.5t201 -84.5q138 0 242.5 87t134.5 239l125 606l-91 29l2 14h228l-4 -14l-103 -29l-125 -606q-36 -181 -172.5 -287t-324.5 -106t-282 106.5t-58 286.5z" />
<glyph horiz-adv-x="1169" d="M244 383l125 602l-90 31l4 16h385l-4 -16l-103 -31l-125 -602q-31 -157 35 -241.5t201 -84.5q138 0 242.5 87t134.5 239l125 606l-91 29l2 14h228l-4 -14l-103 -29l-125 -606q-36 -181 -172.5 -287t-324.5 -106t-282 106.5t-58 286.5zM715 1094l252 221l80 -98l-320 -140 z" />
<glyph horiz-adv-x="1169" d="M244 383l125 602l-90 31l4 16h385l-4 -16l-103 -31l-125 -602q-31 -157 35 -241.5t201 -84.5q138 0 242.5 87t134.5 239l125 606l-91 29l2 14h228l-4 -14l-103 -29l-125 -606q-36 -181 -172.5 -287t-324.5 -106t-282 106.5t-58 286.5zM618 1094l250 221h27l158 -221 l-21 -17l-176 113l-223 -113z" />
<glyph horiz-adv-x="1169" d="M244 383l125 602l-90 31l4 16h385l-4 -16l-103 -31l-125 -602q-31 -157 35 -241.5t201 -84.5q138 0 242.5 87t134.5 239l125 606l-91 29l2 14h228l-4 -14l-103 -29l-125 -606q-36 -181 -172.5 -287t-324.5 -106t-282 106.5t-58 286.5zM584 1190q7 44 43 73t82 29 q44 0 67.5 -29t14.5 -73t-45 -73.5t-80 -29.5q-46 0 -69.5 29.5t-12.5 73.5zM922 1190q9 44 45 73t80 29q46 0 69 -29t14 -73t-44.5 -73.5t-79.5 -29.5t-68.5 29.5t-15.5 73.5z" />
<glyph horiz-adv-x="1169" d="M244 383l125 602l-90 31l4 16h385l-4 -16l-103 -31l-125 -602q-31 -157 35 -241.5t201 -84.5q138 0 242.5 87t134.5 239l125 606l-91 29l2 14h228l-4 -14l-103 -29l-125 -606q-36 -181 -172.5 -287t-324.5 -106t-282 106.5t-58 286.5zM680 1217l117 98l164 -221l-21 -17z " />
<glyph d="M262 1016l4 16h391l-4 -16l-102 -31l178 -792l508 792l-127 31l4 16h272l-4 -16l-110 -31l-631 -985h-55l-234 985z" />
<glyph horiz-adv-x="1884" d="M262 1016l4 16h391l-4 -16l-102 -31l168 -792l364 589l-47 203l-90 31l2 16h393l-4 -16l-104 -31l168 -792l491 792l-127 31l4 16h273l-2 -16l-113 -31l-614 -985h-58l-163 741l-463 -741h-56l-221 985z" />
<glyph horiz-adv-x="1204" d="M66 0l2 16l114 31l439 459l-246 479l-84 31l4 16h387l-4 -16l-105 -31l203 -401l367 401l-119 31l2 16h272l-2 -16l-114 -31l-391 -428l264 -510l86 -31l-2 -16h-387l2 16l104 31l-223 434l-416 -434l123 -31l-2 -16h-274z" />
<glyph horiz-adv-x="1181" d="M262 1016l4 16h391l-4 -16l-104 -31l211 -496l422 496l-119 31l2 16h272l-2 -16l-116 -31l-449 -532l-84 -406l86 -31l-2 -16h-381l2 16l103 31l84 406l-230 532z" />
<glyph horiz-adv-x="1181" d="M262 1016l4 16h391l-4 -16l-104 -31l211 -496l422 496l-119 31l2 16h272l-2 -16l-116 -31l-449 -532l-84 -406l86 -31l-2 -16h-381l2 16l103 31l84 406l-230 532zM694 1094l252 221l80 -98l-319 -140z" />
<glyph horiz-adv-x="1181" d="M262 1016l4 16h391l-4 -16l-104 -31l211 -496l422 496l-119 31l2 16h272l-2 -16l-116 -31l-449 -532l-84 -406l86 -31l-2 -16h-381l2 16l103 31l84 406l-230 532zM559 1190q9 44 45 73t82 29q44 0 68 -29t16 -73q-11 -44 -47 -73.5t-80 -29.5t-68.5 29.5t-15.5 73.5z M899 1190q9 44 45 73t82 29q44 0 67 -28.5t15 -73.5q-9 -44 -45 -73.5t-80 -29.5t-68.5 29.5t-15.5 73.5z" />
<glyph horiz-adv-x="1007" d="M100 0l4 23l805 976h-485l-111 -155h-26l39 188h788l-4 -22l-803 -977h508l111 155h26l-37 -188h-815z" />
<glyph horiz-adv-x="1787" d="M-240 -281q10 50 48.5 82.5t85.5 32.5q50 0 74 -34t14 -89l-17 -88q62 0 110 98.5t93 311.5l197 950h-123l4 16l129 39l28 138q30 145 161 226t358 81q92 0 165 -15l170 21l23 -29l-90 -436l-41 -174l4 -6q174 180 393 180q92 0 156.5 -36t95 -100.5t36.5 -153 t-17 -193.5q-55 -266 -222 -408.5t-407 -142.5q-209 0 -297 94t-51 278l213 1029q-48 57 -148 57q-114 0 -188 -72.5t-101 -199.5l-30 -152h286l-8 -41h-286l-197 -950q-46 -219 -162 -336t-287 -117q-101 0 -142 39t-30 100zM1040 305q-30 -150 8 -217.5t146 -67.5 q138 0 244 130t155 366q40 196 -1.5 320.5t-153.5 124.5q-74 0 -151 -47t-146 -130z" />
<glyph horiz-adv-x="2377" d="M-240 -281q10 50 48.5 82.5t85.5 32.5q50 0 74 -34t14 -89l-17 -88q62 0 110 98.5t93 311.5l197 950h-123l4 16l129 39l14 64q21 105 101.5 184t197.5 119.5t254 40.5q133 0 207 -53q136 90 362 90q96 0 166 -15l172 21l21 -29l-90 -436l-43 -174l4 -6q177 180 395 180 q92 0 156.5 -36t94.5 -100.5t36.5 -153t-17.5 -193.5q-55 -266 -221 -408.5t-405 -142.5q-211 0 -299 93.5t-51 278.5l212 1029q-45 57 -145 57q-114 0 -189 -73t-102 -199l-30 -152h286l-8 -41h-287l-202 -983q-38 -177 -201 -280t-387 -103q-68 0 -112 11.5t-89 37.5 q-106 -86 -244 -86q-101 0 -142 39t-30 100zM221 -299q62 -51 162 -51q141 0 238.5 96t130.5 254l202 983h-376l-197 -950q-46 -212 -160 -332zM586 1024h334l47 14l26 138q24 111 109 184q-60 53 -160 53q-130 0 -220.5 -86t-119.5 -225zM1630 305q-30 -150 8 -217.5 t146 -67.5q138 0 244 130t155 366q40 196 -1.5 320.5t-153.5 124.5q-73 0 -151 -47t-146 -130z" />
<glyph horiz-adv-x="1820" d="M-240 -281q10 50 48.5 82.5t85.5 32.5q50 0 74 -34t14 -89l-17 -88q62 0 110 98.5t93 311.5l197 950h-123l4 16l129 39l28 138q30 145 161 226t358 81q92 0 165 -15l170 21l23 -29l-90 -436l-45 -186l4 -7q93 96 209.5 148.5t216.5 52.5q149 0 203 -93t20 -259l-110 -533 q-14 -75 41 -75q47 0 124 67l11 -16q-74 -61 -153 -97t-138 -36t-88 33.5t-15 99.5l109 522q17 93 15 163t-36.5 111.5t-99.5 41.5q-68 0 -158 -51.5t-161 -137.5l-160 -772h-184l-23 27l281 1364q-48 57 -148 57q-114 0 -188 -72.5t-101 -199.5l-30 -152h286l-8 -41h-286 l-197 -950q-46 -219 -162 -336t-287 -117q-101 0 -142 39t-30 100z" />
<glyph horiz-adv-x="2410" d="M-240 -281q10 50 48.5 82.5t85.5 32.5q50 0 74 -34t14 -89l-17 -88q62 0 110 98.5t93 311.5l197 950h-123l4 16l129 39l14 64q21 105 101.5 184t197.5 119.5t254 40.5q133 0 207 -53q136 90 362 90q96 0 166 -15l172 21l21 -29l-90 -436l-45 -186l4 -7q91 96 208.5 148.5 t217.5 52.5q149 0 203 -93t20 -259l-111 -533q-14 -75 41 -75q48 0 125 67l11 -16q-72 -60 -151.5 -96.5t-137.5 -36.5q-59 0 -89 33.5t-16 99.5l109 522q17 93 15 163t-36.5 111.5t-99.5 41.5q-68 0 -158 -51.5t-161 -137.5l-160 -772h-185l-22 27l280 1364q-45 57 -145 57 q-114 0 -189 -73t-102 -199l-30 -152h286l-8 -41h-287l-202 -983q-38 -177 -201 -280t-387 -103q-68 0 -112 11.5t-89 37.5q-106 -86 -244 -86q-101 0 -142 39t-30 100zM221 -299q62 -51 162 -51q141 0 238.5 96t130.5 254l202 983h-376l-197 -950q-46 -212 -160 -332z M586 1024h334l47 14l26 138q24 111 109 184q-60 53 -160 53q-130 0 -220.5 -86t-119.5 -225z" />
<glyph horiz-adv-x="1701" d="M-240 -281q10 50 48.5 82.5t85.5 32.5q50 0 74 -34t14 -89l-17 -88q62 0 110 98.5t93 311.5l197 950h-123l4 16l129 39l28 138q30 145 161 226t358 81q92 0 165 -15l170 21l23 -29l-301 -1460h-184l-23 27l281 1364q-48 57 -148 57q-114 0 -188 -72.5t-101 -199.5 l-30 -152h286l-8 -41h-286l-197 -950q-46 -219 -162 -336t-287 -117q-101 0 -142 39t-30 100zM1108 508q5 7 29 47.5t44.5 73t56.5 84t68 92t75.5 85t84 74t88 49t91.5 19.5q67 0 104 -39t25 -100q-10 -51 -49.5 -83t-90.5 -32t-75.5 34t-14.5 91l15 70q-111 -25 -314 -291 l264 -537q37 -71 97 -71q44 0 123 65l12 -16q-66 -53 -142 -92t-133 -39t-99 32t-79 111z" />
<glyph horiz-adv-x="2291" d="M-240 -281q10 50 48.5 82.5t85.5 32.5q50 0 74 -34t14 -89l-17 -88q62 0 110 98.5t93 311.5l197 950h-123l4 16l129 39l14 64q21 105 101.5 184t197.5 119.5t254 40.5q133 0 207 -53q136 90 362 90q96 0 166 -15l172 21l21 -29l-301 -1460h-185l-22 27l280 1364 q-45 57 -145 57q-114 0 -189 -73t-102 -199l-30 -152h286l-8 -41h-287l-202 -983q-38 -177 -201 -280t-387 -103q-68 0 -112 11.5t-89 37.5q-106 -86 -244 -86q-101 0 -142 39t-30 100zM221 -299q62 -51 162 -51q141 0 238.5 96t130.5 254l202 983h-376l-197 -950 q-46 -212 -160 -332zM586 1024h334l47 14l26 138q24 111 109 184q-60 53 -160 53q-130 0 -220.5 -86t-119.5 -225zM1698 508q2 3 34 56t56 89t67.5 98t84.5 105t90.5 86.5t102.5 66.5t103 23q65 0 102 -39t25 -100q-9 -51 -48.5 -83t-90.5 -32t-75.5 34t-12.5 91l14 70 q-117 -25 -313 -291l262 -537q37 -71 96 -71q44 0 123 65l13 -16q-64 -52 -140.5 -91.5t-134.5 -39.5q-56 0 -98.5 32.5t-77.5 110.5z" />
<glyph horiz-adv-x="1386" d="M-240 -281q10 50 48.5 82.5t85.5 32.5q50 0 74 -34t14 -89l-17 -88q62 0 110 98.5t93 311.5l197 950h-123l4 16l129 39l28 138q30 146 161 226.5t368 80.5q117 0 197.5 -24.5t132.5 -82.5l-72 -352h330l-9 -41h-329l-150 -719q-19 -99 11 -155t112 -56q91 0 176 72 l21 -23q-132 -112 -299 -112q-143 0 -201.5 75t-32.5 199l234 1127q-48 57 -148 57q-114 0 -188 -72.5t-101 -199.5l-30 -152h286l-8 -41h-286l-197 -950q-46 -219 -162 -336t-287 -117q-101 0 -142 39t-30 100z" />
<glyph horiz-adv-x="1978" d="M-240 -281q10 50 48.5 82.5t85.5 32.5q50 0 74 -34t14 -89l-17 -88q62 0 110 98.5t93 311.5l197 950h-123l4 16l129 39l14 64q21 105 101.5 184t197.5 119.5t254 40.5q130 0 207 -53q139 90 373 90q117 0 197 -24.5t132 -82.5l-71 -352h331l-8 -41h-331l-150 -719 q-19 -98 12 -154.5t113 -56.5q88 0 176 72l19 -23q-132 -112 -302 -112q-140 0 -198.5 75.5t-32.5 198.5l233 1127q-45 57 -145 57q-114 0 -189 -73t-102 -199l-30 -152h286l-8 -41h-287l-202 -983q-38 -177 -201 -280t-387 -103q-68 0 -112 11.5t-89 37.5 q-106 -86 -244 -86q-101 0 -142 39t-30 100zM221 -299q62 -51 162 -51q141 0 238.5 96t130.5 254l202 983h-376l-197 -950q-46 -212 -160 -332zM586 1024h334l47 14l26 138q25 114 109 184q-60 53 -160 53q-130 0 -220.5 -86t-119.5 -225z" />
<glyph horiz-adv-x="1075" d="M70 0l2 16l98 31l135 658h-92l4 16l96 27l17 73q44 217 344 217q78 0 130 -13.5t75.5 -37.5t30.5 -50t1 -58q-8 -34 -28 -63.5t-44 -51t-47.5 -43t-43.5 -50t-27 -61.5q-11 -56 18.5 -84.5t96.5 -52.5q94 -42 127 -70q80 -67 55 -186q-22 -104 -97.5 -164.5t-211.5 -60.5 q-104 0 -185 43h-37l31 155h33q0 -176 149 -176q71 0 122 39t63 103q11 55 -18.5 83t-112.5 60q-23 9 -38 15t-35.5 16t-33 20t-27 23t-22 28.5t-13.5 35t-5.5 43.5t6.5 52q12 57 40.5 100.5t62 70t66 50.5t59 55t34.5 69q11 60 -25.5 99.5t-117.5 39.5t-126 -47t-67 -148 l-160 -774l84 -31l-2 -16h-364z" />
<glyph horiz-adv-x="1161" d="M180 717q70 331 262.5 530t434.5 199q244 0 354.5 -199t42.5 -530q-70 -334 -262.5 -531.5t-436.5 -197.5q-242 0 -352.5 197.5t-42.5 531.5zM390 194q50 -176 194 -176q145 0 271 181t194 518q66 346 15.5 522t-194.5 176t-269 -181t-195 -517q-66 -347 -16 -523z" />
<glyph horiz-adv-x="1161" d="M285 0l2 20l207 39l268 1297h-234l4 30l429 62l26 -29l-280 -1360l190 -39l-4 -20h-608z" />
<glyph horiz-adv-x="1161" d="M106 0l15 78q307 236 420 332q299 256 419 475q63 114 87 229q29 147 -25.5 222t-185.5 75q-54 0 -97.5 -13.5t-97.5 -45.5l-41 -203q-13 -63 -56 -99t-102 -36q-55 0 -83 33.5t-15 95.5q25 128 170 213.5t346 85.5q222 0 328 -92t69 -271q-16 -77 -57 -155t-93 -145 t-132 -141.5t-151 -132t-174.5 -128.5t-179 -119.5t-185.5 -116.5h688l110 189h35l-65 -330h-947z" />
<glyph horiz-adv-x="1161" d="M156 268q13 62 54.5 95.5t96.5 33.5q56 0 84.5 -36.5t16.5 -98.5l-39 -182q67 -53 178 -53q143 0 249 89t140 251q35 174 -49 260t-260 86h-88l8 41h86q152 0 256.5 82t138.5 249q30 155 -24 237.5t-173 82.5q-104 0 -190 -51l-37 -183q-12 -64 -54.5 -100.5 t-100.5 -36.5q-53 0 -81 34.5t-16 96.5q14 66 67 121t127.5 89t159.5 52.5t168 18.5q203 0 303 -99t66 -266q-29 -137 -130.5 -226t-260.5 -120q169 -30 250 -124.5t51 -241.5q-37 -174 -195 -277.5t-383 -103.5q-87 0 -166.5 18t-141.5 51.5t-93 88.5t-18 122z" />
<glyph horiz-adv-x="1161" d="M154 307l8 31q118 157 201.5 281t161.5 262.5t130.5 275t81.5 277.5h213q-25 -122 -75.5 -241t-115 -222t-156.5 -213.5t-183.5 -204t-212.5 -205.5h581l105 504l223 186l23 -28l-138 -662h142l-6 -41h-144l-51 -248l113 -39l-4 -20h-455l4 20l129 39l51 248h-626z" />
<glyph horiz-adv-x="1161" d="M168 254q13 64 54.5 97.5t96.5 33.5q58 0 86.5 -36.5t16.5 -98.5l-37 -176q72 -54 164 -54q144 0 245 107t138 293q41 195 -30.5 304.5t-252.5 109.5q-152 0 -268 -76l-21 24l193 645q429 0 709 35l-35 -176h-639l-189 -485q144 84 342 84q247 0 351 -120.5t61 -324.5 q-43 -209 -201.5 -329.5t-400.5 -120.5q-115 0 -207 29.5t-142.5 90.5t-33.5 144z" />
<glyph horiz-adv-x="1161" d="M213 631q78 376 330.5 577t652.5 236l16 -21q-166 -33 -294.5 -94.5t-217 -149.5t-146.5 -191.5t-95 -233.5q131 112 329 112q209 0 313.5 -118.5t63.5 -317.5q-41 -201 -196 -320.5t-369 -119.5q-252 0 -351 170.5t-36 470.5zM398.5 329.5q-1.5 -141.5 48.5 -225.5 t147 -84q123 0 220 110.5t136 299.5q37 185 -22.5 290t-186.5 105q-91 0 -173 -46t-132 -122q-36 -186 -37.5 -327.5z" />
<glyph horiz-adv-x="1161" d="M348 1098l68 336h909l-6 -31q-72 -132 -201.5 -347.5t-213.5 -358t-168 -335.5t-118 -362h-212q30 148 93.5 287.5t151.5 264.5t175.5 233t197.5 247t186 254h-708l-119 -188h-35z" />
<glyph horiz-adv-x="1161" d="M160 340q15 74 51.5 134t90.5 103.5t110 74t127 57.5q-43 20 -74.5 40.5t-59 50t-39 64t-16.5 83t10 106.5q17 84 55.5 153t101.5 124t158 85.5t214 30.5q205 0 290.5 -93t53.5 -249q-15 -68 -46 -122.5t-74.5 -93t-88.5 -65t-102 -49.5q37 -16 66.5 -32t57.5 -37 t48.5 -43t36.5 -50.5t23 -60t6.5 -71.5t-9.5 -85q-18 -88 -61.5 -160t-114 -128.5t-177.5 -87.5t-241 -31q-235 0 -332 95t-65 257zM340 362q-69 -342 244 -342q155 0 258.5 81t134.5 227q8 37 9 67.5t-7 56t-18 45.5t-32 38.5t-42 31.5t-54.5 28t-62.5 25.5t-74 26.5 q-93 33 -112 41q-99 -51 -158 -123t-86 -203zM524.5 1072q-0.5 -28 5.5 -52t16 -43t29 -36.5t38.5 -31.5t49.5 -29t57.5 -26.5t67.5 -26.5q27 -12 68 -26q84 52 134.5 120t74.5 173q31 155 -21 237t-180 82q-127 0 -217 -77.5t-115 -202.5q-7 -33 -7.5 -61z" />
<glyph horiz-adv-x="1161" d="M209 12q146 22 262 65t198 101t145.5 138.5t104 167t72.5 196.5q-133 -111 -323 -111q-208 0 -312 114.5t-65 313.5q41 203 200 325t377 122q248 0 342.5 -163.5t32.5 -463.5q-42 -201 -132 -353.5t-222 -251t-297 -153t-367 -67.5zM502 993q-37 -183 23 -283t188 -100 q90 0 169.5 44.5t133.5 121.5q30 141 38 254.5t-6.5 200.5t-60 134.5t-119.5 47.5q-129 0 -228.5 -114.5t-137.5 -305.5z" />
<glyph horiz-adv-x="686" d="M276 1075q35 166 135.5 265.5t227.5 99.5q128 0 187.5 -99.5t25.5 -265.5q-35 -167 -135.5 -265.5t-229.5 -98.5q-127 0 -185.5 98.5t-25.5 265.5zM400.5 812.5q22.5 -85.5 91.5 -85.5q70 0 130.5 88.5t96.5 259.5q33 177 9.5 262.5t-93.5 85.5q-69 0 -129 -88.5 t-94 -259.5q-34 -177 -11.5 -262.5z" />
<glyph horiz-adv-x="397" d="M201 717l2 12l88 19l133 645h-96l4 16l215 33l12 -17l-141 -677l82 -19l-2 -12h-297z" />
<glyph horiz-adv-x="561" d="M188 717l11 45q186 148 254 213q158 155 188 303q15 69 -7.5 106t-78.5 37q-43 0 -82 -24l-20 -103q-7 -36 -32.5 -56.5t-58.5 -20.5q-31 0 -46 18.5t-9 54.5q13 65 87.5 106.5t172.5 41.5q112 0 165.5 -47t33.5 -136q-10 -51 -43.5 -103t-74 -93t-108 -92t-118.5 -84 t-133 -84h332l61 98h16l-36 -180h-474z" />
<glyph horiz-adv-x="626" d="M238 854q7 34 30.5 53t55.5 19q31 0 46.5 -21t8.5 -57l-19 -94q33 -23 80 -23q67 0 118.5 44t68.5 126q18 88 -22.5 130t-127.5 42h-45l6 21h43q158 0 191 166q17 79 -8 119t-80 40q-46 0 -86 -22l-21 -97q-7 -36 -30 -56.5t-56 -20.5q-32 0 -47 19.5t-8 53.5 q14 69 96.5 106.5t175.5 37.5q106 0 158 -49t35 -134q-15 -67 -67 -112t-132 -62q85 -14 127 -61.5t27 -120.5q-17 -87 -99 -138.5t-200 -51.5q-59 0 -110.5 14t-84.5 48t-24 81z" />
<glyph horiz-adv-x="616" d="M236 870l4 17q119 161 188 287.5t96 259.5h127q-30 -145 -125 -269.5t-262 -273.5h281l51 233l133 113l12 -16l-69 -330h73l-4 -21h-73l-25 -122l57 -19l-2 -12h-247l2 12l63 19l25 122h-305z" />
<glyph horiz-adv-x="587" d="M231 846q7 35 30 53.5t54 18.5q33 0 49 -20.5t9 -57.5l-19 -90q33 -23 70 -23q64 0 109.5 53t66.5 146q19 97 -13 152t-120 55q-71 0 -129 -37l-8 12l94 324q215 0 358 16l-18 -98h-322l-94 -232q74 41 174 41q124 0 177 -60t32 -161q-22 -105 -102.5 -165t-202.5 -60 q-91 0 -149.5 34t-45.5 99z" />
<glyph horiz-adv-x="620" d="M264 1034q39 186 171.5 287.5t338.5 116.5l8 -11q-159 -31 -246 -113t-126 -214q62 49 155 49q107 0 160 -59t33 -158q-22 -101 -101 -160t-188 -59q-131 0 -183 86t-22 235zM377 888q-2 -71 20 -116t68 -45q56 0 100.5 55.5t63.5 151.5q20 91 -5.5 142.5t-86.5 51.5 q-41 0 -78 -20.5t-60 -56.5q-20 -92 -22 -163z" />
<glyph horiz-adv-x="579" d="M313 1251l39 183h457l-2 -15q-34 -65 -125.5 -219.5t-143 -264.5t-73.5 -218h-127q18 92 66.5 180.5t99 148.5t124.5 148.5t120 155.5h-351l-65 -99h-19z" />
<glyph horiz-adv-x="610" d="M233 883q24 120 191 182q-56 26 -79 65t-9 109q19 91 85.5 146t186.5 55q104 0 148 -45t28 -121q-14 -63 -53 -101t-98 -63q68 -31 97 -73t15 -119q-22 -94 -96.5 -150.5t-210.5 -56.5q-120 0 -170.5 46t-34.5 126zM338 895q-34 -168 115 -168q75 0 124.5 39t63.5 108 q14 67 -18 97t-119 61q-11 3 -29 10.5t-26 10.5q-44 -26 -71 -61t-40 -97zM436 1288q-11 -59 18 -88.5t109 -60.5l31 -13q73 48 92 140q15 77 -8.5 117t-83.5 40q-61 0 -103.5 -37.5t-54.5 -97.5z" />
<glyph horiz-adv-x="618" d="M262 723q173 28 259 108t126 220q-59 -50 -149 -50q-107 0 -161 58t-34 158q22 101 103 161t192 60q129 0 178.5 -83.5t18.5 -234.5q-40 -196 -177 -295t-348 -112zM428 1214q-20 -91 7 -141.5t87 -50.5q84 0 140 78q14 69 19 126t-0.5 102t-26 70t-54.5 25 q-60 0 -106 -56.5t-66 -152.5z" />
<glyph horiz-adv-x="231" d="M186 608q28 23 51.5 52t26.5 47q0 8 -2 10q-29 0 -44.5 18t-10.5 47q7 29 30.5 48.5t51.5 19.5q29 0 44.5 -20t8.5 -54q-15 -76 -145 -180z" />
<glyph horiz-adv-x="231" d="M207 780q6 29 30 49.5t52 20.5q29 0 44 -20t9 -50q-4 -29 -28 -48t-54 -19q-29 0 -43.5 18.5t-9.5 48.5z" />
<glyph horiz-adv-x="294" d="M263 895.5q-9 82.5 13 179.5q29 145 98.5 248.5t182.5 192.5l8 -13q-119 -172 -172 -428q-54 -247 -4 -428l-14 -12q-50 59 -76.5 118.5t-35.5 142z" />
<glyph horiz-adv-x="292" d="M172 647q116 172 172 428q51 247 4 428l14 13q49 -58 76 -118.5t35 -142.5t-14 -180q-29 -144 -98 -247t-181 -193z" />
<glyph horiz-adv-x="325" d="M250 995l8 33h231l-6 -33h-233z" />
<glyph horiz-adv-x="686" d="M86 154q35 166 135.5 265t227.5 99q129 0 187 -99t23 -265q-33 -167 -132 -266t-228 -99q-128 0 -187 99t-26 266zM209.5 -109q22.5 -86 91.5 -86q70 0 130.5 89t94.5 260q34 177 12 262.5t-92 85.5q-69 0 -130 -89t-95 -259q-34 -177 -11.5 -263z" />
<glyph horiz-adv-x="397" d="M10 -205l2 12l90 19l131 645h-96l4 16l215 33l13 -16l-142 -678l82 -19l-2 -12h-297z" />
<glyph horiz-adv-x="561" d="M0 -205l8 45q184 146 248 207q164 157 194 306q1 1 1 3q15 69 -7 106.5t-79 37.5q-39 0 -82 -25l-23 -102q-6 -36 -30 -57t-58 -21q-30 0 -45 19t-8 55q12 65 86 106t172 41q112 0 165 -46.5t33 -135.5q-10 -51 -43 -103t-74 -94t-107 -91.5t-119.5 -84.5t-133.5 -84h334 l60 98h16l-37 -180h-471z" />
<glyph horiz-adv-x="626" d="M47 -68q7 34 30.5 53t55.5 19t47.5 -20.5t9.5 -57.5l-20 -94q32 -22 80 -22q68 0 118.5 44t67.5 126q18 88 -22 130t-127 42h-43l4 20h43q74 0 124 40.5t68 125.5q15 79 -10 119.5t-80 40.5q-41 0 -86 -23l-20 -96q-6 -36 -29.5 -57t-56.5 -21q-32 0 -47.5 20t-8.5 54 q9 47 56 81t103.5 48t113.5 14q106 0 157.5 -48.5t34.5 -133.5q-13 -67 -65 -112t-133 -62q86 -14 128 -61.5t25 -120.5q-17 -87 -98 -139t-199 -52q-60 0 -112 14t-85 48t-24 81z" />
<glyph horiz-adv-x="616" d="M45 -51l2 14q121 163 190.5 289.5t96.5 259.5h127q-30 -144 -124 -268.5t-261 -274.5h280l50 234l133 112l12 -16l-68 -330h72l-4 -20h-72l-24 -123l57 -19l-4 -12h-250l4 12l66 19l24 123h-307z" />
<glyph horiz-adv-x="587" d="M41 -76q6 34 30 53t56 19t47 -20.5t8 -57.5l-18 -90q33 -23 69 -23q64 0 110 53t65 146q22 97 -9.5 152t-119.5 55q-71 0 -129 -37l-11 12l94 324q214 0 359 16l-21 -98h-319l-94 -231q77 41 174 41q125 0 177.5 -60t31.5 -162q-22 -106 -102 -166.5t-203 -60.5 q-57 0 -103 14t-73.5 45.5t-18.5 75.5z" />
<glyph horiz-adv-x="620" d="M76 113q39 186 170.5 287t337.5 116l8 -10q-159 -31 -246.5 -113.5t-126.5 -214.5q62 49 156 49q107 0 160.5 -59t31.5 -158q-20 -101 -98.5 -161t-189.5 -60q-131 0 -182.5 87t-20.5 237zM191.5 -99.5q14.5 -95.5 82.5 -95.5q56 0 100 55t66 152q19 91 -7 143t-87 52 q-84 0 -139 -78q-30 -133 -15.5 -228.5z" />
<glyph horiz-adv-x="579" d="M125 330l37 182h459l-5 -14q-34 -65 -125.5 -220t-143 -265t-73.5 -218h-127q19 92 67 180.5t98.5 148.5t124 148t118.5 156h-348l-64 -98h-18z" />
<glyph horiz-adv-x="610" d="M45 -39q25 121 188 182q-57 26 -80.5 65t-7.5 109q19 91 86 146t187 55q104 0 148 -45t28 -121q-12 -63 -52 -100.5t-100 -63.5q45 -21 70.5 -42t39 -59t3.5 -91q-20 -94 -95 -150.5t-212 -56.5q-119 0 -169 46t-34 126zM150 -27q-37 -168 112 -168q75 0 125 39.5 t64 108.5q4 18 4.5 33.5t-3.5 28t-9 22.5t-16 19t-21 15.5t-27 14t-30.5 12.5t-35.5 13l-53 20q-44 -26 -70.5 -61t-39.5 -97zM246 367q-11 -59 18 -89t109 -61l30 -12q74 49 93 139q17 76 -7 117t-86 41q-60 0 -102.5 -37.5t-54.5 -97.5z" />
<glyph horiz-adv-x="618" d="M72 -199q173 28 259.5 108t127.5 220q-61 -49 -152 -49q-107 0 -160.5 57.5t-33.5 157.5q22 101 103 161t192 60q129 0 178.5 -82.5t19.5 -234.5q-41 -197 -177.5 -296t-348.5 -112zM238 293q-20 -92 6.5 -142.5t87.5 -50.5q83 0 139 78q19 94 22 164t-17.5 115t-65.5 45 q-58 0 -105 -57t-67 -152z" />
<glyph horiz-adv-x="231" d="M0 -313q65 61 74 98q0 8 -4 10q-28 0 -43 18.5t-9 47.5t28.5 48t51.5 19q28 0 44.5 -19.5t9.5 -53.5q-15 -73 -144 -181z" />
<glyph horiz-adv-x="231" d="M18 -141q6 31 28.5 50t51.5 19q30 0 46 -19.5t10 -49.5q-8 -30 -31 -49t-53 -19q-28 0 -43 19.5t-9 48.5z" />
<glyph horiz-adv-x="294" d="M72.5 -25.5q-8.5 82.5 13.5 179.5q31 145 99.5 248t181.5 192l8 -12q-119 -176 -174 -428q-50 -255 -2 -428l-15 -13q-49 58 -76 118.5t-35.5 143z" />
<glyph horiz-adv-x="292" d="M-16 -274q119 180 170 428q52 253 4 428l14 12q50 -59 76.5 -118.5t34.5 -142t-15 -179.5q-29 -144 -97 -247.5t-177 -193.5z" />
<glyph horiz-adv-x="325" d="M61 74l7 32h231l-6 -32h-232z" />
<glyph horiz-adv-x="1073" d="M217 516q51 239 197.5 381.5t335.5 142.5q188 0 276.5 -142.5t38.5 -381.5q-49 -240 -195.5 -382t-334.5 -142q-190 0 -279 142t-39 382zM384 233.5q7 -111.5 46.5 -165.5t108.5 -54q104 0 193 127.5t140 374.5q48 255 12.5 378.5t-139.5 123.5q-105 0 -193.5 -127.5 t-139.5 -374.5q-35 -171 -28 -282.5z" />
<glyph horiz-adv-x="643" d="M109 0l2 16l133 31l190 924h-143l6 24l313 47l19 -20l-201 -975l119 -31l-2 -16h-436z" />
<glyph horiz-adv-x="886" d="M92 0l12 66q242 188 326 262q223 197 295 373q22 52 33 106q22 101 -12.5 155t-120.5 54q-64 0 -123 -37l-29 -145q-10 -53 -45.5 -83t-83.5 -30q-45 0 -68.5 27t-13.5 77q20 95 127.5 154t251.5 59q168 0 247 -66.5t52 -195.5q-11 -53 -40 -107t-64.5 -100t-93 -97.5 t-108 -91t-127 -90.5t-131.5 -85t-140 -86h493l88 141h25l-51 -260h-699z" />
<glyph horiz-adv-x="985" d="M162 199q10 49 44.5 76.5t80.5 27.5q47 0 70 -30t14 -83l-29 -137q44 -33 117 -33q103 0 178.5 62.5t99.5 181.5q27 128 -33.5 189t-189.5 61h-65l6 31h63q237 0 285 237q24 111 -14.5 169.5t-120.5 58.5q-73 0 -129 -31l-29 -137q-9 -53 -44.5 -83t-82.5 -30 q-44 0 -67.5 27.5t-14.5 77.5q11 51 52.5 92t99.5 65t121.5 36.5t125.5 12.5q158 0 236 -70.5t53 -191.5q-20 -97 -96.5 -160.5t-196.5 -87.5q127 -22 189 -90.5t41 -173.5q-26 -126 -146.5 -201t-292.5 -75q-65 0 -125.5 12.5t-110 37t-74.5 66t-15 93.5z" />
<glyph horiz-adv-x="968" d="M156 221l6 23q181 241 281.5 419.5t138.5 368.5h184q-22 -109 -72 -211.5t-128.5 -200t-162.5 -181t-202 -185.5h420l69 332l195 162l16 -21l-96 -473h106l-8 -33h-106l-35 -174l84 -31l-2 -16h-365l2 16l97 31l36 174h-458z" />
<glyph horiz-adv-x="925" d="M152 186q10 50 44 77.5t80 27.5q47 0 69.5 -30t12.5 -83l-26 -131q47 -33 106 -33q96 0 163 76t95 211q30 139 -18 218t-178 79q-110 0 -189 -53l-18 18l141 465q328 0 529 27l-31 -146h-473l-137 -331q110 61 256 61q185 0 263 -87t48 -235q-31 -151 -149 -238t-300 -87 q-85 0 -153 20t-108 65.5t-27 108.5z" />
<glyph horiz-adv-x="974" d="M203 457q56 269 248.5 414t496.5 169l13 -16q-237 -45 -365 -163.5t-184 -307.5q95 72 231 72q158 0 237 -86t50 -230q-31 -144 -146.5 -230.5t-277.5 -86.5q-194 0 -270.5 124.5t-32.5 340.5zM369.5 299.5q-5.5 -82.5 4.5 -147.5t41.5 -101.5t82.5 -36.5q84 0 150 79.5 t95 217.5q27 131 -13 207t-130 76q-61 0 -116 -30.5t-89 -82.5q-20 -99 -25.5 -181.5z" />
<glyph horiz-adv-x="913" d="M270 768l56 264h678l-7 -22q-52 -98 -143.5 -252t-151.5 -257.5t-120 -241.5t-84 -259h-185q22 109 69 208.5t112 186t130.5 162t146.5 172.5t138 180h-518l-94 -141h-27z" />
<glyph horiz-adv-x="960" d="M158 238q20 99 92.5 159t187.5 103q-32 15 -55 30t-44 37t-29.5 47t-12 59.5t7.5 76.5q25 130 122.5 210t274.5 80q155 0 221.5 -64.5t43.5 -172.5q-20 -90 -79.5 -145t-148.5 -91q33 -15 57.5 -29t48.5 -32.5t37.5 -38.5t24.5 -47t9.5 -58t-7.5 -71 q-27 -136 -136.5 -217.5t-311.5 -81.5q-178 0 -252.5 66t-50.5 180zM309 256q-52 -242 172 -242q112 0 184.5 56.5t92.5 156.5q6 26 6.5 47.5t-4.5 39.5t-12.5 32.5t-23 27.5t-30.5 23t-39.5 20.5t-46 18.5t-53.5 19l-82 30q-66 -38 -105.5 -88.5t-58.5 -140.5zM453 823 q-19 -85 24 -128t162 -87l47 -18q56 37 89 84.5t48 118.5q22 108 -13.5 166.5t-125.5 58.5t-151.5 -54t-79.5 -141z" />
<glyph horiz-adv-x="972" d="M199 8q133 20 231 61t163.5 104t106.5 135.5t70 170.5q-95 -69 -227 -69q-157 0 -236.5 83.5t-50.5 223.5q31 147 149 235t283 88q190 0 265 -121t30 -337q-58 -283 -258.5 -425.5t-513.5 -162.5zM436 715q-27 -129 13.5 -202t130.5 -73q127 0 208 111q21 99 27 181 t-2.5 147.5t-39 102t-81.5 36.5q-89 0 -158.5 -82.5t-97.5 -220.5z" />
<glyph horiz-adv-x="1138" d="M164 399l12 50h27q3 29 12 67q3 20 16 68h-28l10 49h35q73 190 231 298.5t361 108.5q190 0 297 -82h77l-38 -190h-25q-3 59 -24 103t-50 69t-68 40t-71.5 19.5t-67.5 4.5q-145 0 -255 -93.5t-169 -277.5h506l-10 -49h-510q-5 -16 -14 -62q-9 -42 -12 -73h509l-12 -50 h-502q-9 -168 66.5 -261t243.5 -93q190 0 325 113l17 -17q-186 -151 -422 -151q-209 0 -322.5 108.5t-107.5 300.5h-37z" />
<glyph horiz-adv-x="954" d="M78 0l94 63l92 441h-92l2 14l96 21l35 168q31 154 140.5 242.5t279.5 88.5q76 0 140.5 -20t103.5 -65t26 -107q-10 -51 -44.5 -79t-80.5 -28q-48 0 -70.5 29.5t-13.5 83.5l29 131q-42 33 -90 33q-82 0 -142 -75t-87 -206l-41 -196h293l-7 -35h-292q-47 -199 -162 -375 q71 35 119 35q44 0 124.5 -37t131.5 -37q47 0 111 21t118 57l14 -18q-122 -82 -205 -126t-135 -44q-42 0 -126 37.5t-138 37.5q-100 0 -211 -71z" />
<glyph horiz-adv-x="1181" d="M262 1016l4 16h391l-4 -16l-104 -31l211 -496l422 496l-119 31l2 16h272l-2 -16l-116 -31l-449 -532l-12 -56h188l-10 -51h-188l-27 -125h188l-8 -51h-190l-25 -123l86 -31l-2 -16h-381l2 16l103 31l24 123h-186l10 51h186l27 125h-186l8 51h188l13 56l-230 532z" />
<glyph horiz-adv-x="933" d="M115 0l161 319h-118l10 50h133l150 295h-168l10 49h184l162 319h55l-164 -319h283l162 319h55l-162 -319h119l-10 -49h-135l-150 -295h170l-10 -50h-186l-160 -319h-53l159 319h-280l-162 -319h-55zM356 369h281l151 295h-282z" />
<glyph horiz-adv-x="419" d="M129 92q7 42 41.5 70t77.5 28t65.5 -27.5t14.5 -70.5q-9 -41 -43.5 -69.5t-77.5 -28.5q-41 0 -64 28.5t-14 69.5zM252 299q21 181 32 316t10.5 181.5t0 91.5t2.5 46q9 44 45 74t80 30q46 0 69.5 -30t14.5 -74q-3 -13 -23 -59t-72.5 -194.5t-121.5 -381.5h-37z" />
<glyph horiz-adv-x="1183" d="M168 289q13 60 43 108t78.5 83.5t94 58.5t110.5 49q-69 120 -45 235q20 99 97 158t206 59q118 0 164 -49.5t30 -130.5q-32 -146 -244 -244l72 -114q118 94 170 94q27 0 82.5 -33t89.5 -33q30 0 71 18t79 48l16 -18q-168 -137 -225 -142q-31 -106 -115 -209 q61 -109 87.5 -139.5t49.5 -30.5q32 0 88 45l9 -12q-48 -40 -110 -68t-118 -28q-58 0 -97 21.5t-73 88.5q-125 -112 -305 -112q-166 0 -249.5 81.5t-55.5 215.5zM344 270q-48 -233 186 -233q142 0 232 94l-227 375q-77 -44 -124.5 -97.5t-66.5 -138.5zM627 874 q-9 -52 2.5 -100t46.5 -110q98 41 158.5 89t72.5 115q13 65 -22.5 104.5t-102.5 39.5q-60 0 -100 -34.5t-55 -103.5zM791 467l133 -213q42 55 63.5 94t34.5 92q-15 4 -66 34t-84 30q-32 0 -81 -37z" />
<glyph horiz-adv-x="608" d="M31 -74l704 1180h53l-704 -1180h-53z" />
<glyph horiz-adv-x="608" d="M272 1106h56l219 -1180h-55z" />
<glyph horiz-adv-x="489" d="M195 317.5q0 91.5 22 198.5q42 208 142 357.5t264 277.5l14 -16q-95 -135 -154 -282.5t-98 -336.5t-40.5 -333t36.5 -285l-21 -17q-54 63 -89 127t-55.5 141t-20.5 168.5z" />
<glyph horiz-adv-x="489" d="M66 -102q93 135 151.5 281.5t97.5 336.5q39 187 40.5 332.5t-36.5 286.5l21 16q54 -63 89 -127t55.5 -141t20.5 -168.5t-22 -198.5q-42 -208 -142 -358t-263 -277z" />
<glyph horiz-adv-x="520" d="M106 -111l259 1254h319l-2 -17l-160 -30l-239 -1159l147 -31l-4 -17h-320z" />
<glyph horiz-adv-x="520" d="M45 -111l4 17l158 31l239 1159l-147 30l4 17h320l-258 -1254h-320z" />
<glyph horiz-adv-x="643" d="M203 504l6 24q62 0 114 76t83 225q31 147 134 234.5t242 87.5l-4 -23q-63 0 -115 -76.5t-83 -226.5q-26 -121 -101.5 -201.5t-181.5 -107.5q96 -27 138 -108.5t16 -200.5q-29 -154 -9 -228.5t82 -74.5l-4 -23q-139 0 -207 87.5t-37 234.5q29 154 9.5 227.5t-82.5 73.5z " />
<glyph horiz-adv-x="643" d="M74 -119l6 23q63 0 114.5 76.5t81.5 226.5q24 120 100 201t183 108q-96 27 -138 107.5t-18 201.5q30 154 11.5 228.5t-80.5 74.5l4 23q138 0 205 -88t37 -234q-29 -154 -9.5 -227.5t82.5 -73.5l-6 -24q-62 0 -114 -76t-82 -225q-31 -147 -134.5 -234.5t-242.5 -87.5z" />
<glyph horiz-adv-x="419" d="M125 98q2 15 22 59.5t72.5 194t120.5 381.5h39q-21 -181 -31.5 -315.5t-10.5 -181.5t-1 -92t-2 -46q-9 -44 -46 -74t-81 -30q-45 0 -68.5 30t-13.5 74zM303 940q8 41 42 69.5t77 28.5q41 0 64.5 -28.5t15.5 -69.5q-9 -43 -43.5 -70.5t-77.5 -27.5q-42 0 -64 27.5 t-14 70.5z" />
<glyph horiz-adv-x="858" d="M141 242q13 65 57.5 118t100 90.5t111 74.5t100 90t57.5 118h35q-2 -62 -16 -111.5t-35.5 -84t-47.5 -63.5t-53.5 -55.5t-51.5 -54.5t-44.5 -68t-29.5 -87q-19 -85 14 -138t113 -53q60 0 114 33l29 139q10 53 45.5 84t83.5 31q45 0 69 -27.5t15 -78.5 q-20 -92 -126.5 -148.5t-244.5 -56.5q-162 0 -241 65.5t-54 182.5zM526 940q9 42 43 70t76 28q41 0 64 -28.5t14 -69.5q-7 -42 -41.5 -70t-77.5 -28q-42 0 -64.5 28t-13.5 70z" />
<glyph horiz-adv-x="858" d="M264 834q18 91 124 147.5t243 56.5q162 0 242 -65t55 -180q-10 -49 -36 -90t-61 -71.5t-75 -58.5t-80.5 -56t-75 -58t-61.5 -71t-37 -89h-37q3 71 22 127.5t45.5 91t59.5 69.5t62.5 63.5t54.5 73t36 97.5q19 86 -15 140.5t-112 54.5q-56 0 -116 -35l-29 -141 q-10 -53 -45 -83t-82 -30q-46 0 -69 28t-13 79zM346 94q7 41 41.5 68.5t77.5 27.5q41 0 64 -27.5t16 -68.5q-9 -43 -43.5 -71.5t-75.5 -28.5q-43 0 -66 28.5t-14 71.5z" />
<glyph horiz-adv-x="370" d="M129 -147l258 1253h49l-258 -1253h-49z" />
<glyph horiz-adv-x="370" d="M129 -147l115 553h49l-115 -553h-49zM272 553l115 553h49l-112 -553h-52z" />
<glyph horiz-adv-x="1183" d="M246 0l841 1032h64l-842 -1032h-63zM266 774q26 122 102.5 195t174.5 73q99 0 146.5 -73t23.5 -195q-26 -123 -103.5 -195.5t-177.5 -72.5q-98 0 -144 72.5t-22 195.5zM375 589q16 -61 63 -61q48 0 90.5 63t67.5 183q23 124 7 185t-64 61q-46 0 -88.5 -63t-67.5 -183 q-24 -124 -8 -185zM684 258q24 122 102 195t177 73q98 0 144 -73t21 -195q-26 -123 -102 -195.5t-174 -72.5q-100 0 -147 72.5t-21 195.5zM792.5 73q15.5 -61 63.5 -61t90.5 63t67.5 183q24 124 8 185t-64 61t-90 -63t-67 -183q-24 -124 -8.5 -185z" />
<glyph horiz-adv-x="860" d="M102 49q10 51 45 79t80 28q48 0 70 -30t12 -83l-28 -139q42 -37 102 -37q83 0 143 55t74 129q11 52 -8 91.5t-56.5 63.5t-85.5 43.5t-95.5 38.5t-85.5 42.5t-57 61t-9 87.5q15 87 104 168q-65 62 -47 152q22 109 127 174t266 65q137 0 218 -56t61 -148q-10 -51 -44.5 -79 t-80.5 -28q-48 0 -70 30t-12 83l29 141q-46 35 -97 35q-83 0 -141.5 -54.5t-73.5 -127.5q-10 -47 3 -84t42 -59.5t68 -43.5t81.5 -35.5t81.5 -34.5t68.5 -42t43 -57.5t4.5 -80.5q-17 -80 -101 -161q67 -61 49 -152q-23 -109 -131 -174.5t-268 -65.5q-136 0 -217.5 56.5 t-63.5 148.5zM295 547q-10 -45 14.5 -80.5t74.5 -60.5t104.5 -46t119 -49t103.5 -57q23 37 34 74q9 46 -15.5 82.5t-74.5 63t-104 48t-119 50t-104 57.5q-26 -39 -33 -82z" />
<glyph horiz-adv-x="837" d="M248 670q35 167 177.5 264.5t340.5 97.5h213l-2 -16l-98 -31l-187 -907q-26 -125 -110 -214.5t-228 -166.5l-12 16q99 82 151 167.5t76 197.5l47 229q-197 0 -299 98t-69 265z" />
<glyph horiz-adv-x="1558" d="M244 717q70 332 299 530.5t532 198.5q305 0 453 -198.5t80 -530.5q-45 -222 -166.5 -388t-294 -253.5t-373.5 -87.5q-304 0 -451 197t-79 532zM477 715q-69 -336 16.5 -516.5t288.5 -180.5q204 0 363.5 180t228.5 517q70 338 -15.5 519t-289.5 181q-203 0 -363 -181.5 t-229 -518.5zM1042 1511l189 347h170l-328 -347h-31z" />
<glyph horiz-adv-x="1239" d="M217 516q51 240 219.5 382t394.5 142q228 0 339.5 -142.5t62.5 -381.5q-51 -241 -220 -383.5t-397 -142.5q-227 0 -338 143t-61 383zM418 514q-51 -246 6.5 -374t196.5 -128q140 0 250 127.5t161 374.5q51 249 -6 376.5t-199 127.5q-139 0 -248.5 -128t-160.5 -376z M805 1092l135 254h141l-252 -254h-24z" />
<glyph horiz-adv-x="1777" d="M246 725q70 336 320.5 528.5t637.5 192.5q132 0 239 -23.5t181 -66.5t126.5 -104t75.5 -136.5t27 -163t-18 -184.5q-43 -219 -167 -343t-310 -124q-187 0 -193 115l-4 2q-137 -117 -301 -117t-228 114.5t-26 303.5q45 220 190 337.5t363 117.5q115 0 215 -41l103 47 l20 -31l-147 -717q-17 -84 51 -84q78 0 146 104t104 287q137 664 -455 664q-308 0 -505.5 -180.5t-262.5 -491.5q-23 -123 -20.5 -227.5t41.5 -188.5t108 -143t178.5 -91t253.5 -32q160 0 318.5 41t265.5 129l18 -22q-122 -103 -300 -156t-373 -53q-385 0 -564 196.5 t-108 540.5zM807 743q-37 -171 5 -276t149 -105q106 0 206 97l131 639q-74 45 -151 45q-125 0 -212.5 -103.5t-127.5 -296.5z" />
<glyph horiz-adv-x="434" d="M111 123q3 15 13.5 41t32.5 82.5t52.5 143t82 255.5t111.5 387h50q-29 -217 -47 -386t-23.5 -255.5t-7.5 -143.5t-2.5 -83t-3.5 -41q-10 -55 -55 -93t-101 -38q-55 0 -84 37.5t-18 93.5zM360 1315q10 54 54 90.5t98 36.5q53 0 81 -36t19 -91q-11 -54 -54 -90.5t-97 -36.5 q-53 0 -82 36.5t-19 90.5z" />
<glyph horiz-adv-x="1030" d="M141 336q14 67 49.5 124.5t81.5 99t99 80.5t106.5 78.5t100 82.5t82.5 102t51 129h47q-7 -88 -29.5 -159t-54.5 -118.5t-69 -88t-75.5 -77t-72.5 -75t-62 -92.5t-41 -119q-27 -127 23 -202.5t168 -75.5q86 0 172 53l41 194q13 63 55.5 99.5t99.5 36.5q55 0 83.5 -34.5 t15.5 -97.5q-25 -122 -163.5 -203t-324.5 -81q-209 0 -312 91t-71 253zM664 1315q11 54 53 90.5t94 36.5q54 0 83.5 -36.5t18.5 -90.5q-10 -54 -54.5 -89.5t-98.5 -35.5q-52 0 -80 36t-16 89z" />
<glyph horiz-adv-x="1304" d="M41 0l2 20l129 39l193 924h-123l4 16l129 39l22 111q30 148 145.5 220.5t299.5 72.5q79 0 138.5 -13t92.5 -35t52.5 -51t20 -62t-4.5 -67q-10 -50 -38 -91.5t-62.5 -72t-68.5 -60.5t-62 -70.5t-38 -88.5q-8 -42 -0.5 -73.5t33.5 -54t52.5 -36.5t72.5 -32q29 -12 41 -17 t39.5 -18t40.5 -21.5t36 -24t34.5 -29t27.5 -33t22 -40.5t12 -46t5 -54.5t-8 -62.5q-30 -137 -131.5 -218t-280.5 -81q-148 0 -245 63h-50l43 209h41q-1 -71 15.5 -120.5t47.5 -75t65 -36t75 -10.5q100 0 172 55.5t92 149.5q18 81 -24.5 122t-159.5 85q-29 12 -46 19t-43 19 t-41 22t-34.5 25.5t-30 30.5t-21.5 36t-14.5 44t-3 52.5t6.5 62.5q16 76 54 134t82.5 94t88.5 69t79 76.5t46 97.5q18 86 -30.5 141.5t-158.5 55.5q-111 0 -174 -65t-90 -197l-225 -1090l115 -39l-4 -20h-455z" />
<glyph horiz-adv-x="700" d="M-14 -102l956 1638h70l-961 -1638h-65z" />
<glyph horiz-adv-x="700" d="M319 1536h68l287 -1638h-68z" />
<glyph horiz-adv-x="520" d="M212 360.5q-10 163.5 34 356.5q40 195 114.5 356.5t171.5 284.5t232 239l20 -22q-125 -183 -207 -389t-137 -469t-58 -465t48 -393l-29 -23q-88 116 -133.5 238.5t-55.5 286z" />
<glyph horiz-adv-x="520" d="M31 -141q126 181 207.5 386.5t138.5 471.5q55 261 57.5 465t-49.5 393l27 22q67 -86 109.5 -176t65 -197t18.5 -233t-34 -274q-61 -288 -188.5 -497t-333.5 -384z" />
<glyph horiz-adv-x="559" d="M92 -154l357 1741h399l-4 -20l-213 -39l-334 -1622l199 -39l-4 -21h-400z" />
<glyph horiz-adv-x="559" d="M6 -154l4 21l213 39l334 1622l-199 39l4 20h400l-359 -1741h-397z" />
<glyph horiz-adv-x="753" d="M223 700l8 33q90 0 165.5 109t117.5 311q41 203 175.5 323.5t314.5 120.5l-7 -30q-90 0 -165 -109t-115 -311q-35 -168 -134.5 -281t-238.5 -149q124 -36 177 -149.5t18 -280.5q-40 -207 -10.5 -313.5t118.5 -106.5l-6 -31q-180 0 -264.5 121t-42.5 324q39 207 9 313 t-120 106z" />
<glyph horiz-adv-x="753" d="M45 -164l8 31q90 0 165.5 109t115.5 311q35 167 135 280.5t238 149.5q-125 36 -177 149t-16 281q39 207 8.5 313.5t-119.5 106.5l7 30q178 0 263 -120.5t44 -323.5q-39 -207 -9.5 -313.5t119.5 -106.5l-8 -33q-90 0 -165 -108t-117 -311q-41 -202 -176.5 -323.5 t-315.5 -121.5z" />
<glyph horiz-adv-x="835" d="M219 700l8 33l394 316l14 -21l-260 -311l131 -311l-25 -21zM532 700l9 33l391 316l16 -21l-260 -311l133 -311l-26 -21z" />
<glyph horiz-adv-x="835" d="M180 406l260 311l-133 311l27 21l262 -316l-8 -33l-391 -315zM492 406l262 311l-133 311l26 21l262 -316l-8 -33l-391 -315z" />
<glyph horiz-adv-x="522" d="M219 700l8 33l394 316l14 -21l-260 -311l131 -311l-25 -21z" />
<glyph horiz-adv-x="522" d="M180 406l260 311l-133 311l27 21l262 -316l-8 -33l-391 -315z" />
<glyph horiz-adv-x="614" d="M219 686l12 62h459l-12 -62h-459z" />
<glyph horiz-adv-x="1019" d="M219 686l12 62h863l-11 -62h-864z" />
<glyph horiz-adv-x="1423" d="M219 686l12 62h1268l-12 -62h-1268z" />
<glyph horiz-adv-x="385" d="M119 -205l358 1741h62l-359 -1741h-61z" />
<glyph horiz-adv-x="385" d="M119 -205l157 768h64l-160 -768h-61zM317 768l160 768h62l-158 -768h-64z" />
<glyph horiz-adv-x="618" d="M287 1165q28 132 113 202.5t218 70.5q59 0 130 -23l65 27l12 -17l-90 -426q-8 -38 21 -38q23 0 61 30l6 -6q-79 -67 -155 -67q-34 0 -52 17t-8 50l6 21l-2 4q-89 -92 -194 -92q-90 0 -122.5 67t-8.5 180zM416 1021q17 -63 69 -63q67 0 131 80l74 359q-38 24 -82 24 q-67 0 -115 -60.5t-73 -176.5q-21 -100 -4 -163z" />
<glyph horiz-adv-x="618" d="M317 1106l107 516l-59 14l2 15l176 16l12 -16l-45 -217l-21 -86l5 -5q84 91 190 91q89 0 121.5 -66.5t9.5 -175.5q-27 -133 -111.5 -203.5t-207.5 -70.5q-222 0 -179 188zM435.5 963.5q16.5 -31.5 62.5 -31.5q64 0 113.5 65t72.5 183q20 92 2.5 154.5t-68.5 62.5 q-68 0 -131 -82l-51 -246q-17 -74 -0.5 -105.5z" />
<glyph horiz-adv-x="583" d="M289 1176q25 122 106.5 192t206.5 70q85 0 144 -35t45 -98q-6 -34 -30 -54t-56 -20t-47.5 21t-8.5 57l19 90q-32 22 -68 22q-62 0 -109 -60.5t-67 -164.5q-24 -116 6.5 -180t120.5 -64q88 0 160 60l8 -11q-96 -83 -223 -83q-125 0 -178 70t-29 188z" />
<glyph horiz-adv-x="618" d="M287 1165q28 131 107.5 202t197.5 71q54 0 102 -27l43 211l-57 14l4 15l174 16l12 -16l-135 -652q-8 -38 21 -38q23 0 61 30l6 -6q-79 -67 -155 -67q-33 0 -50.5 16.5t-11.5 50.5l8 27l-2 4q-88 -98 -192 -98q-90 0 -123.5 67.5t-9.5 179.5zM415.5 1021 q16.5 -63 67.5 -63q69 0 133 80l74 359q-40 24 -82 24q-67 0 -115 -60.5t-73 -176.5q-21 -100 -4.5 -163z" />
<glyph horiz-adv-x="567" d="M289 1174q25 123 111.5 193.5t215.5 70.5q87 0 133 -34t33 -104q-6 -27 -20.5 -45.5t-50.5 -37.5t-109 -29t-182 -10q-22 -108 11.5 -167t127.5 -59q87 0 158 60l10 -11q-96 -83 -225 -83q-128 0 -182.5 70t-30.5 186zM422 1194q117 0 174 25t70 88q10 49 -7 82.5 t-59 33.5q-52 0 -101.5 -57t-76.5 -172z" />
<glyph horiz-adv-x="567" d="M289 1174q25 123 111.5 193.5t215.5 70.5q87 0 133 -34t33 -104q-6 -27 -20.5 -45.5t-50.5 -37.5t-109 -29t-182 -10q-22 -108 11.5 -167t127.5 -59q87 0 158 60l10 -11q-96 -83 -225 -83q-128 0 -182.5 70t-30.5 186zM422 1194q117 0 174 25t70 88q10 49 -7 82.5 t-59 33.5q-52 0 -101.5 -57t-76.5 -172zM508 1579l80 68l110 -154l-14 -10z" />
<glyph horiz-adv-x="421" d="M86 786q6 27 27.5 44.5t46.5 17.5q28 0 41.5 -18.5t7.5 -49.5l-10 -47q29 0 51.5 49.5t46.5 159.5l96 469h-74l3 10l77 21l13 61q15 76 72 118t153 42q63 0 102 -22.5t29 -69.5q-4 -26 -23 -42t-45 -16q-29 0 -43.5 19.5t-7.5 52.5l10 55q-11 7 -24 7q-32 0 -57 -38 t-39 -106l-15 -69h162l-4 -23h-162l-96 -469q-23 -110 -85.5 -169.5t-156.5 -59.5q-57 0 -79.5 20t-16.5 53z" />
<glyph horiz-adv-x="591" d="M205 805q11 56 117 106q-68 22 -50 105q7 36 29 63.5t66 63.5q-61 45 -43 127q15 76 85.5 121t168.5 45q6 0 18 -1t18 -1h215l-2 -13l-75 -22h-35q61 -46 43 -129q-15 -74 -84.5 -118t-167.5 -44q-76 0 -129 29q-37 -42 -39 -64q-6 -26 10 -39.5t53 -13.5h170 q89 0 124.5 -34t21.5 -99q-36 -172 -322 -172q-100 0 -150.5 22.5t-41.5 67.5zM307 825q-9 -52 21 -73t98 -21q85 0 142.5 29t66.5 76q7 30 -10 48.5t-62 18.5h-205q-45 -42 -51 -78zM442 1272q-15 -73 4.5 -110.5t65.5 -37.5q45 0 80 38t49 110q15 71 -4.5 110t-63.5 39 q-46 0 -81 -38t-50 -111z" />
<glyph horiz-adv-x="638" d="M281 936l143 686l-59 14l2 15l176 16l12 -16l-45 -217l-23 -93l5 -2q43 46 99 72.5t105 26.5q74 0 102.5 -48.5t12.5 -129.5l-55 -261q-8 -38 18 -38q24 0 62 30l8 -6q-37 -31 -80 -49t-76 -18q-34 0 -51 16.5t-10 50.5l53 256q29 156 -51 156q-30 0 -70.5 -23.5 t-73.5 -62.5l-79 -389h-113z" />
<glyph horiz-adv-x="303" d="M281 1370q36 32 78 51t75 19q34 0 51.5 -18t10.5 -52l-78 -371q-6 -38 20 -38q24 0 62 30l6 -6q-79 -67 -154 -67q-34 0 -51.5 16.5t-11.5 50.5l76 371q9 39 -19 39q-18 0 -61 -31zM389 1577q7 35 34.5 57.5t61.5 22.5q35 0 53 -22.5t11 -57.5q-6 -35 -33.5 -58.5 t-62.5 -23.5t-53.5 23.5t-10.5 58.5z" />
<glyph horiz-adv-x="303" d="M72 786q4 27 25 44.5t46 17.5q28 0 42 -18.5t8 -49.5l-11 -47q30 0 52.5 49t46.5 160l86 414q9 39 -21 39q-16 0 -59 -31l-6 6q83 70 155 70q32 0 49.5 -18t10.5 -52l-88 -428q-22 -110 -84.5 -169.5t-157.5 -59.5q-56 0 -78 20t-16 53zM389 1577q7 35 34.5 57.5 t61.5 22.5q35 0 53 -22.5t11 -57.5q-6 -35 -33.5 -58.5t-62.5 -23.5q-34 0 -52.5 23.5t-11.5 58.5z" />
<glyph horiz-adv-x="600" d="M281 936l143 686l-59 14l2 15l176 16l12 -16l-149 -729h-113zM467 1169q1 1 19 32t32.5 55t42.5 60.5t53.5 61t58.5 42.5t64 18q35 0 55 -20.5t13 -53.5q-6 -29 -27 -46.5t-49 -17.5q-29 0 -41 18.5t-6 51.5l6 37q-52 -13 -141 -131l131 -279q19 -36 47 -36q24 0 59 30 l9 -6q-34 -27 -75 -47t-73 -20q-63 0 -94 73z" />
<glyph horiz-adv-x="303" d="M291 985l133 637l-59 14l2 15l176 16l12 -16l-135 -652q-6 -38 20 -38q22 0 60 30l6 -6q-79 -67 -154 -67q-72 0 -61 67z" />
<glyph horiz-adv-x="913" d="M279 936l86 420q9 39 -19 39q-18 0 -61 -31l-4 6q36 32 78 51t75 19q34 0 51.5 -18t10.5 -52l-9 -31l2 -2q40 50 92.5 75.5t98.5 25.5q91 0 104 -103q44 49 99 76t100 27q136 0 102 -178l-55 -261q-8 -38 21 -38q23 0 61 30l6 -6q-79 -67 -155 -67q-33 0 -51 17t-11 50 l53 256q29 156 -45 156q-26 0 -61 -22t-66 -62q2 -15 -2 -53l-71 -338h-111l-12 14l63 305q29 156 -43 156q-27 0 -61 -23.5t-64 -64.5l-78 -387h-112z" />
<glyph horiz-adv-x="638" d="M279 936l86 420q9 39 -19 39q-18 0 -61 -31l-4 6q36 32 78 51t75 19q34 0 51.5 -18t10.5 -52l-9 -29l2 -2q43 46 101 72.5t106 26.5q75 0 102 -48.5t11 -129.5l-55 -261q-6 -38 20 -38q24 0 62 30l6 -6q-79 -67 -156 -67q-33 0 -50 16.5t-11 50.5l53 256q33 156 -55 156 q-32 0 -71 -23.5t-69 -62.5l-80 -389h-112z" />
<glyph horiz-adv-x="612" d="M291 1178q23 117 109.5 188.5t201.5 71.5q116 0 173 -71t32 -189q-25 -119 -110 -189.5t-201 -70.5q-117 0 -174 70.5t-31 189.5zM417.5 993q21.5 -61 80.5 -61q60 0 108 62.5t72 183.5q24 124 2.5 184.5t-82.5 60.5q-58 0 -105.5 -62t-72.5 -183q-24 -124 -2.5 -185z " />
<glyph horiz-adv-x="618" d="M174 717l2 12l64 19l125 608q9 39 -19 39q-18 0 -61 -31l-4 6q36 32 78 51t75 19q34 0 51.5 -18t10.5 -52l-7 -22l3 -5q85 95 192 95q89 0 121 -67.5t8 -180.5q-26 -130 -105 -201t-196 -71q-65 0 -104 24l-41 -194l88 -19l-2 -12h-279zM410 956q44 -24 82 -24 q69 0 117 61.5t73 177.5q21 100 5 163t-66 63q-69 0 -136 -82z" />
<glyph horiz-adv-x="608" d="M287 1165q28 132 113 202.5t218 70.5q59 0 130 -23l65 27l12 -17l-141 -677l57 -19l-2 -12h-247l2 12l63 19l37 174l20 86l-2 2q-89 -92 -194 -92q-90 0 -122.5 67t-8.5 180zM416 1021q17 -63 69 -63q67 0 131 80l74 359q-38 24 -82 24q-67 0 -115 -60.5t-73 -176.5 q-21 -100 -4 -163z" />
<glyph horiz-adv-x="530" d="M279 936l86 420q9 39 -19 39q-18 0 -61 -31l-4 6q36 32 78 51t75 19q34 0 51.5 -18t10.5 -52l-11 -45v-4q4 11 22 36t57 53t79 28q51 0 80.5 -31.5t19.5 -83.5q-7 -38 -31 -57t-55 -19q-33 0 -48.5 21t-8.5 57l16 76q-4 4 -14 4q-28 0 -59 -31.5t-49 -62.5l-17 -31 l-74 -358h-112z" />
<glyph horiz-adv-x="499" d="M264 1018q6 28 25 43.5t43 15.5q26 0 38.5 -18.5t6.5 -50.5l-12 -60q31 -16 69 -16q55 0 92.5 25t46.5 69q8 39 -17 59.5t-89 42.5q-44 15 -66.5 25.5t-46.5 28.5t-30.5 44t0.5 62q13 68 68.5 109t158.5 41q80 0 123 -26.5t33 -76.5q-6 -28 -25 -43.5t-43 -15.5 q-28 0 -39.5 19t-5.5 53l12 57q-30 18 -63 18q-50 0 -83 -24.5t-42 -63.5q-10 -46 36 -70q12 -7 56 -24q91 -33 120 -57q53 -43 38 -117q-30 -149 -240 -149q-86 0 -129.5 25.5t-34.5 74.5z" />
<glyph horiz-adv-x="432" d="M305 1057l72 354h-62l2 10q114 24 201 133l14 -14l-22 -106h162l-4 -23h-164l-72 -354q-10 -48 4.5 -76.5t55.5 -28.5q42 0 86 35l10 -12q-67 -57 -158 -57q-75 0 -107 38t-18 101z" />
<glyph horiz-adv-x="632" d="M281 1370q36 32 78 51t75 19q34 0 51.5 -18t10.5 -52l-58 -274q-28 -138 54 -138q72 0 141 86l80 390h110l15 -15l-88 -420q-8 -38 20 -38q23 0 61 30l7 -6q-79 -67 -156 -67q-33 0 -50.5 17t-10.5 50l10 27l-4 4q-91 -98 -199 -98q-73 0 -104 43.5t-17 113.5l58 281 q9 39 -19 39q-18 0 -61 -31z" />
<glyph horiz-adv-x="632" d="M281 1370q36 32 78 51t75 19q34 0 51.5 -18t10.5 -52l-58 -274q-28 -138 54 -138q72 0 141 86l80 390h110l15 -15l-88 -420q-8 -38 20 -38q23 0 61 30l7 -6q-79 -67 -156 -67q-33 0 -50.5 17t-10.5 50l10 27l-4 4q-91 -98 -199 -98q-73 0 -104 43.5t-17 113.5l58 281 q9 39 -19 39q-18 0 -61 -31zM539 1493l172 154l55 -68l-219 -96z" />
<glyph horiz-adv-x="616" d="M281 1370q79 70 151 70q30 0 48.5 -17.5t27.5 -58.5l80 -367q23 26 56.5 66t94 125t68.5 123h-39q-31 0 -46 17t-11 46q5 26 26 44t49 18q33 0 49 -24t7 -64q-14 -69 -92.5 -175.5t-149.5 -178.5l-72 -72h-41l-102 436q-8 37 -39 37q-22 0 -61 -31z" />
<glyph horiz-adv-x="944" d="M281 1370q79 70 151 70q30 0 48.5 -17.5t27.5 -58.5l80 -367l30 37q29 38 72 96t70 99l-33 129q-10 37 -41 37q-20 0 -59 -31l-6 6q82 70 151 70q62 0 78 -76l78 -367q7 7 50.5 62t97 134.5t61.5 117.5h-37q-31 0 -46.5 17t-11.5 46q5 26 26.5 44t49.5 18 q33 0 47.5 -23.5t5.5 -64.5q-9 -44 -43 -104t-77 -114t-85 -102.5t-70 -77.5l-28 -28h-39l-65 280q-41 -59 -100 -129t-98 -111l-38 -40h-41l-102 436q-8 37 -39 37q-22 0 -61 -31z" />
<glyph horiz-adv-x="598" d="M236 991q4 27 25 44.5t48 17.5q29 0 42.5 -19t6.5 -51l-6 -29q64 20 152 201l-86 201q-16 39 -41 39t-60 -31l-6 6q80 70 131 70q66 0 95 -70l49 -117q95 185 196 185q33 0 52 -20.5t12 -53.5q-6 -29 -27 -46.5t-49 -17.5q-29 0 -41 18.5t-6 51.5l6 29q-64 -22 -133 -168 l100 -232q15 -38 39 -38q19 0 58 30l8 -6q-80 -67 -131 -67q-65 0 -92 67l-66 150q-17 -37 -37 -71.5t-47.5 -70t-61 -57t-67.5 -21.5q-33 0 -51.5 21t-11.5 55z" />
<glyph horiz-adv-x="616" d="M188 791q6 29 25.5 45t44.5 16q28 0 41 -17.5t8 -46.5l-10 -34q4 -4 12 -4q18 0 74 44.5t111 104.5l-109 459q-5 37 -37 37q-18 0 -63 -31l-4 6q79 70 151 70q60 0 78 -76l80 -375q22 27 55.5 68.5t93.5 129t68 124.5h-39q-31 0 -46 17t-11 46q5 27 26.5 44.5t50.5 17.5 q32 0 47.5 -24t6.5 -64q-13 -62 -87.5 -171t-167 -210.5t-188 -176.5t-145.5 -75q-28 0 -51 18.5t-15 57.5z" />
<glyph horiz-adv-x="524" d="M223 924l398 397l-3 4q-28 -12 -61 -12q-24 0 -64.5 13t-68.5 13q-47 0 -109 -49l-8 13q91 76 136.5 106.5t70.5 30.5q34 0 71 -11.5t70 -11.5q76 0 107 25l8 -12l-391 -396l2 -2q38 15 65 15q24 0 66 -17.5t68 -17.5q68 0 143 65l12 -10q-98 -80 -155.5 -118t-92.5 -38 q-17 0 -55.5 18.5t-77.5 18.5q-32 0 -66.5 -10t-54.5 -27z" />
<glyph horiz-adv-x="477" d="M254 1008l6 32h174l37 177h35l-37 -177h176l-6 -32h-176l-37 -177h-35l37 177h-174z" />
<glyph horiz-adv-x="477" d="M203 768l8 35h385l-8 -35h-385zM264 1059l6 33h174l37 176h35l-37 -176h176l-6 -33h-176l-37 -176h-35l37 176h-174z" />
<glyph horiz-adv-x="477" d="M63 86l7 33h174l37 176h34l-36 -176h176l-6 -33h-177l-36 -176h-35l37 176h-175z" />
<glyph horiz-adv-x="477" d="M14 -154l6 35h386l-7 -35h-385zM74 137l8 33h174l35 176h35l-37 -176h176l-6 -33h-176l-37 -176h-33l35 176h-174z" />
<glyph horiz-adv-x="978" d="M127 57l37 189h29q3 -56 22 -99.5t46 -68t63.5 -39.5t68.5 -20t66 -5l94 424q-136 42 -187 73q-115 71 -93 212q1 9 3 18q28 133 132 215.5t280 83.5l14 66h37l-14 -66q121 -6 217 -65h78l-39 -189h-27q-2 67 -25.5 114.5t-61 71t-73 34t-75.5 12.5l-86 -393h4 q34 -11 57 -19.5t53.5 -21t51 -23.5t44.5 -27t38 -32.5t28 -38.5t19 -46t5 -54t-7 -64q-28 -137 -136.5 -220t-297.5 -87l-15 -66h-37l15 66q-150 6 -248 65h-80zM442 819q-16 -74 22 -111.5t134 -70.5l84 379q-94 -6 -158 -60t-82 -137zM496 14q106 8 176.5 64t89.5 151 q8 25 5.5 46.5t-5.5 37.5t-16.5 30.5t-26.5 25t-35.5 21t-44 18.5t-51.5 18z" />
<glyph horiz-adv-x="1288" d="M211 516q29 142 126 263t236 191t285 70q109 0 200 -41.5t148 -112t79.5 -167t0.5 -203.5t-84 -203.5t-148 -167t-194 -112t-217 -41.5t-200.5 41.5t-149.5 111.5t-81 167.5t-1 203.5zM272 516q-26 -126 15.5 -232.5t138.5 -168.5t227 -62q198 0 366 135.5t208 327.5 q26 126 -15.5 232.5t-138.5 168.5t-227 62q-198 0 -366 -135.5t-208 -327.5zM494 516q26 121 111.5 191.5t203.5 70.5q95 0 143 -39l45 21l7 -8l-23 -109h-12q-4 65 -46.5 91t-93.5 26q-82 0 -139.5 -59t-81.5 -179q-23 -111 11 -174t133 -63q96 0 159 55l9 -10 q-92 -76 -213 -76q-123 0 -180.5 70.5t-32.5 191.5z" />
<glyph horiz-adv-x="1288" d="M211 516q29 142 126 263t236 191t285 70q109 0 200 -41.5t148 -112t79.5 -167t0.5 -203.5t-84 -203.5t-148 -167t-194 -112t-217 -41.5t-200.5 41.5t-149.5 111.5t-81 167.5t-1 203.5zM272 516q-26 -126 15.5 -232.5t138.5 -168.5t227 -62q198 0 366 135.5t208 327.5 q26 126 -15.5 232.5t-138.5 168.5t-227 62q-198 0 -366 -135.5t-208 -327.5zM467 272v11l55 14l99 471l-50 14v6h242q90 0 136.5 -37t33.5 -102q-9 -52 -52 -88t-106 -45q27 -9 43 -55l62 -164l41 -14v-11h-144l-84 238h-69l-45 -213l47 -14l-2 -11h-207zM676 528h74 q45 0 79 30.5t45 90.5q12 61 -8.5 92t-66.5 31h-72z" />
</font>
</defs>
</svg>
